<svg id="svg" version="1.1" width="400" height="400" viewBox="0 0 400 400" xmlns="http://www.w3.org/2000/svg" xmlns:xlink="http://www.w3.org/1999/xlink" ><g id="svgg"><path id="path0" d="M62.400 119.995 C 58.962 120.391,58.464 120.645,58.194 122.139 C 57.699 124.878,58.179 244.154,58.690 245.301 L 59.181 246.401 200.259 246.301 L 341.337 246.200 341.843 243.800 C 342.766 239.419,342.613 122.351,341.682 121.202 C 340.441 119.669,336.200 119.550,290.835 119.770 C 267.386 119.883,246.760 119.937,245.000 119.888 C 240.807 119.773,159.095 119.773,155.200 119.889 C 153.550 119.938,132.580 119.915,108.600 119.837 C 84.620 119.759,63.830 119.830,62.400 119.995 M148.700 121.859 L 150.800 122.111 150.800 144.442 L 150.800 166.773 149.387 168.187 L 147.973 169.600 106.400 169.600 L 64.827 169.600 63.413 168.187 L 62.000 166.773 62.000 144.411 L 62.000 122.048 63.500 121.891 C 66.066 121.623,146.480 121.593,148.700 121.859 M242.300 121.859 L 244.400 122.111 244.400 144.442 L 244.400 166.773 242.987 168.187 L 241.573 169.600 200.115 169.600 L 158.657 169.600 157.328 168.150 L 156.000 166.699 156.000 144.375 L 156.000 122.051 157.300 121.889 C 159.485 121.618,240.055 121.590,242.300 121.859 M336.300 121.859 L 338.400 122.111 338.400 144.442 L 338.400 166.773 336.987 168.187 L 335.573 169.600 294.000 169.600 L 252.427 169.600 251.013 168.187 L 249.600 166.773 249.600 144.411 L 249.600 122.048 251.100 121.891 C 253.666 121.623,334.080 121.593,336.300 121.859 M149.640 176.042 L 150.800 177.285 150.800 206.429 L 150.800 235.573 149.387 236.987 L 147.973 238.400 106.400 238.400 L 64.827 238.400 63.413 236.987 L 62.000 235.573 62.000 206.429 L 62.000 177.285 63.160 176.042 L 64.321 174.800 106.400 174.800 L 148.479 174.800 149.640 176.042 M243.240 176.042 L 244.400 177.285 244.400 206.429 L 244.400 235.573 242.987 236.987 L 241.573 238.400 200.115 238.400 L 158.657 238.400 157.328 236.950 L 156.000 235.499 156.000 206.392 L 156.000 177.285 157.160 176.042 L 158.321 174.800 200.200 174.800 L 242.079 174.800 243.240 176.042 M337.240 176.042 L 338.400 177.285 338.400 206.429 L 338.400 235.573 336.987 236.987 L 335.573 238.400 294.000 238.400 L 252.427 238.400 251.013 236.987 L 249.600 235.573 249.600 206.429 L 249.600 177.285 250.760 176.042 L 251.921 174.800 294.000 174.800 L 336.079 174.800 337.240 176.042 " stroke="none" fill="#3c3c3c" fill-rule="evenodd"></path><path id="path1" d="M16.800 79.200 C 15.536 80.464,15.536 338.736,16.800 340.000 C 17.579 340.779,18.133 340.800,37.777 340.800 L 57.955 340.800 58.577 339.911 C 59.132 339.119,59.200 334.014,59.200 293.083 L 59.200 247.144 58.063 245.472 C 55.906 242.298,56.000 245.216,56.000 181.502 C 56.000 116.085,55.821 120.886,58.334 119.000 C 59.395 118.204,60.022 118.200,200.200 118.200 C 340.378 118.200,341.005 118.204,342.066 119.000 C 344.579 120.886,344.400 116.085,344.400 181.502 C 344.400 245.235,344.493 242.363,342.333 245.412 L 341.190 247.025 341.295 293.527 C 341.387 334.350,341.473 340.076,342.000 340.409 C 343.371 341.275,382.711 340.889,383.600 340.000 C 384.864 338.736,384.864 80.464,383.600 79.200 C 382.335 77.935,18.065 77.935,16.800 79.200 M373.481 89.678 L 374.800 90.957 374.800 209.559 L 374.800 328.162 373.522 329.481 L 372.243 330.800 362.841 330.800 L 353.438 330.800 352.119 329.522 L 350.800 328.243 350.800 221.535 L 350.800 114.827 349.387 113.413 L 347.973 112.000 200.200 112.000 L 52.427 112.000 51.013 113.413 L 49.600 114.827 49.600 221.494 L 49.600 328.162 48.322 329.481 L 47.043 330.800 37.641 330.800 L 28.238 330.800 26.919 329.522 L 25.600 328.243 25.600 209.641 L 25.600 91.038 26.878 89.719 L 28.157 88.400 200.159 88.400 L 372.162 88.400 373.481 89.678 " stroke="none" fill="#cccccc" fill-rule="evenodd"></path><path id="path2" d="M16.138 79.017 C 15.791 79.921,16.102 79.969,16.900 79.133 C 17.492 78.513,17.506 78.400,16.987 78.400 C 16.651 78.400,16.268 78.678,16.138 79.017 M383.500 79.133 C 384.298 79.969,384.609 79.921,384.262 79.017 C 384.132 78.678,383.749 78.400,383.413 78.400 C 382.894 78.400,382.908 78.513,383.500 79.133 M26.878 89.719 L 25.600 91.038 25.600 209.641 L 25.600 328.243 26.919 329.522 L 28.238 330.800 37.641 330.800 L 47.043 330.800 48.322 329.481 L 49.600 328.162 49.600 221.494 L 49.600 114.827 51.013 113.413 L 52.427 112.000 200.200 112.000 L 347.973 112.000 349.387 113.413 L 350.800 114.827 350.800 221.535 L 350.800 328.243 352.119 329.522 L 353.438 330.800 362.841 330.800 L 372.243 330.800 373.522 329.481 L 374.800 328.162 374.800 209.559 L 374.800 90.957 373.481 89.678 L 372.162 88.400 200.159 88.400 L 28.157 88.400 26.878 89.719 M16.000 339.813 C 16.000 340.149,16.278 340.532,16.617 340.662 C 17.521 341.009,17.569 340.698,16.733 339.900 C 16.113 339.308,16.000 339.294,16.000 339.813 M58.481 340.018 C 58.172 340.513,58.146 340.800,58.409 340.800 C 58.638 340.800,58.932 340.522,59.062 340.183 C 59.422 339.245,59.033 339.134,58.481 340.018 M383.500 340.067 C 382.908 340.687,382.894 340.800,383.413 340.800 C 383.749 340.800,384.132 340.522,384.262 340.183 C 384.609 339.279,384.298 339.231,383.500 340.067 " stroke="none" fill="#f4f4f4" fill-rule="evenodd"></path><path id="path3" d="M63.600 143.925 L 63.600 165.850 64.722 166.925 L 65.844 168.000 106.447 168.000 L 147.050 168.000 148.125 166.878 L 149.200 165.756 149.200 143.878 L 149.200 122.000 106.400 122.000 L 63.600 122.000 63.600 143.925 M157.600 143.838 C 157.600 165.275,157.615 165.698,158.427 166.838 L 159.254 168.000 200.152 168.000 L 241.050 168.000 241.925 166.816 C 242.800 165.633,242.800 165.630,242.800 143.816 L 242.800 122.000 200.200 122.000 L 157.600 122.000 157.600 143.838 M251.200 143.925 L 251.200 165.850 252.322 166.925 L 253.444 168.000 294.047 168.000 L 334.650 168.000 335.725 166.878 L 336.800 165.756 336.800 143.878 L 336.800 122.000 294.000 122.000 L 251.200 122.000 251.200 143.925 M64.675 177.122 L 63.600 178.244 63.600 206.400 L 63.600 234.556 64.675 235.678 L 65.750 236.800 106.400 236.800 L 147.050 236.800 148.125 235.678 L 149.200 234.556 149.200 206.400 L 149.200 178.244 148.125 177.122 L 147.050 176.000 106.400 176.000 L 65.750 176.000 64.675 177.122 M158.427 177.162 C 157.610 178.310,157.600 178.657,157.600 206.400 C 157.600 234.143,157.610 234.490,158.427 235.638 L 159.254 236.800 200.152 236.800 L 241.050 236.800 241.925 235.616 L 242.800 234.432 242.800 206.400 L 242.800 178.368 241.925 177.184 L 241.050 176.000 200.152 176.000 L 159.254 176.000 158.427 177.162 M252.275 177.122 L 251.200 178.244 251.200 206.400 L 251.200 234.556 252.275 235.678 L 253.350 236.800 294.000 236.800 L 334.650 236.800 335.725 235.678 L 336.800 234.556 336.800 206.400 L 336.800 178.244 335.725 177.122 L 334.650 176.000 294.000 176.000 L 253.350 176.000 252.275 177.122 M129.468 246.700 C 168.225 246.756,231.765 246.756,270.668 246.700 C 309.570 246.644,277.860 246.598,200.200 246.598 C 122.540 246.598,90.710 246.644,129.468 246.700 " stroke="none" fill="#2c2c2c" fill-rule="evenodd"></path><path id="path4" d="M61.300 118.276 C 61.685 118.376,62.315 118.376,62.700 118.276 C 63.085 118.175,62.770 118.093,62.000 118.093 C 61.230 118.093,60.915 118.175,61.300 118.276 M150.100 118.276 C 150.485 118.376,151.115 118.376,151.500 118.276 C 151.885 118.175,151.570 118.093,150.800 118.093 C 150.030 118.093,149.715 118.175,150.100 118.276 M155.300 118.276 C 155.685 118.376,156.315 118.376,156.700 118.276 C 157.085 118.175,156.770 118.093,156.000 118.093 C 155.230 118.093,154.915 118.175,155.300 118.276 M243.700 118.276 C 244.085 118.376,244.715 118.376,245.100 118.276 C 245.485 118.175,245.170 118.093,244.400 118.093 C 243.630 118.093,243.315 118.175,243.700 118.276 M248.900 118.276 C 249.285 118.376,249.915 118.376,250.300 118.276 C 250.685 118.175,250.370 118.093,249.600 118.093 C 248.830 118.093,248.515 118.175,248.900 118.276 M337.700 118.276 C 338.085 118.376,338.715 118.376,339.100 118.276 C 339.485 118.175,339.170 118.093,338.400 118.093 C 337.630 118.093,337.315 118.175,337.700 118.276 " stroke="none" fill="#c87ce4" fill-rule="evenodd"></path><path id="path5" d="M61.114 118.298 C 59.003 118.428,58.721 118.565,57.414 120.092 L 56.000 121.744 56.004 181.572 L 56.008 241.400 56.960 243.400 C 57.484 244.500,58.217 245.760,58.589 246.200 L 59.265 247.000 59.001 246.200 C 58.855 245.760,58.572 244.410,58.370 243.200 C 57.972 240.804,57.853 123.188,58.248 121.717 C 58.787 119.707,62.937 119.625,153.000 119.842 C 155.640 119.848,176.700 119.841,199.800 119.827 C 222.900 119.812,243.240 119.840,245.000 119.888 C 246.760 119.937,267.386 119.883,290.835 119.770 C 336.200 119.550,340.441 119.669,341.682 121.202 C 342.481 122.189,342.825 239.719,342.038 242.800 C 341.841 243.570,341.571 244.810,341.439 245.555 L 341.198 246.911 342.006 245.883 C 344.573 242.620,344.381 247.779,344.391 181.534 L 344.400 121.667 342.784 119.934 L 341.167 118.200 202.284 118.179 C 125.898 118.167,62.372 118.221,61.114 118.298 " stroke="none" fill="#603094" fill-rule="evenodd"></path><path id="path6" d="" stroke="none" fill="#64302c" fill-rule="evenodd"></path><path id="path7" d="M85.500 121.900 C 96.995 121.959,115.805 121.959,127.300 121.900 C 138.795 121.841,129.390 121.793,106.400 121.793 C 83.410 121.793,74.005 121.841,85.500 121.900 M179.100 121.900 C 190.595 121.959,209.405 121.959,220.900 121.900 C 232.395 121.841,222.990 121.793,200.000 121.793 C 177.010 121.793,167.605 121.841,179.100 121.900 M273.100 121.900 C 284.595 121.959,303.405 121.959,314.900 121.900 C 326.395 121.841,316.990 121.793,294.000 121.793 C 271.010 121.793,261.605 121.841,273.100 121.900 M62.000 144.387 L 62.000 166.773 63.413 168.187 L 64.827 169.600 106.400 169.600 L 147.973 169.600 149.387 168.187 L 150.800 166.773 150.800 144.387 C 150.800 129.729,150.662 122.000,150.400 122.000 C 150.138 122.000,150.000 129.641,150.000 144.122 L 150.000 166.243 148.681 167.522 L 147.362 168.800 106.359 168.800 L 65.357 168.800 64.078 167.481 L 62.800 166.162 62.800 144.081 C 62.800 129.627,62.662 122.000,62.400 122.000 C 62.138 122.000,62.000 129.729,62.000 144.387 M156.000 144.350 L 156.000 166.699 157.328 168.150 L 158.657 169.600 200.115 169.600 L 241.573 169.600 242.987 168.187 L 244.400 166.773 244.400 144.387 C 244.400 129.729,244.262 122.000,244.000 122.000 C 243.738 122.000,243.596 129.641,243.588 144.100 L 243.577 166.200 242.394 167.500 L 241.211 168.800 200.106 168.800 L 159.000 168.800 157.900 167.421 L 156.800 166.043 156.800 144.021 C 156.800 129.607,156.662 122.000,156.400 122.000 C 156.138 122.000,156.000 129.717,156.000 144.350 M249.600 144.387 L 249.600 166.773 251.013 168.187 L 252.427 169.600 294.000 169.600 L 335.573 169.600 336.987 168.187 L 338.400 166.773 338.400 144.387 C 338.400 129.729,338.262 122.000,338.000 122.000 C 337.738 122.000,337.600 129.641,337.600 144.122 L 337.600 166.243 336.281 167.522 L 334.962 168.800 293.959 168.800 L 252.957 168.800 251.678 167.481 L 250.400 166.162 250.400 144.081 C 250.400 129.627,250.262 122.000,250.000 122.000 C 249.738 122.000,249.600 129.729,249.600 144.387 M63.160 176.042 L 62.000 177.285 62.000 206.429 L 62.000 235.573 63.413 236.987 L 64.827 238.400 106.400 238.400 L 147.973 238.400 149.387 236.987 L 150.800 235.573 150.800 206.429 L 150.800 177.285 149.640 176.042 L 148.479 174.800 106.400 174.800 L 64.321 174.800 63.160 176.042 M157.160 176.042 L 156.000 177.285 156.000 206.392 L 156.000 235.499 157.328 236.950 L 158.657 238.400 200.115 238.400 L 241.573 238.400 242.987 236.987 L 244.400 235.573 244.400 206.429 L 244.400 177.285 243.240 176.042 L 242.079 174.800 200.200 174.800 L 158.321 174.800 157.160 176.042 M250.760 176.042 L 249.600 177.285 249.600 206.429 L 249.600 235.573 251.013 236.987 L 252.427 238.400 294.000 238.400 L 335.573 238.400 336.987 236.987 L 338.400 235.573 338.400 206.429 L 338.400 177.285 337.240 176.042 L 336.079 174.800 294.000 174.800 L 251.921 174.800 250.760 176.042 M148.681 176.478 L 150.000 177.757 150.000 206.359 L 150.000 234.962 148.722 236.281 L 147.443 237.600 106.441 237.600 L 65.438 237.600 64.119 236.322 L 62.800 235.043 62.800 206.441 L 62.800 177.838 64.078 176.519 L 65.357 175.200 106.359 175.200 L 147.362 175.200 148.681 176.478 M242.394 176.500 L 243.577 177.800 243.577 206.400 L 243.577 235.000 242.394 236.300 L 241.211 237.600 200.106 237.600 L 159.000 237.600 157.900 236.221 L 156.800 234.843 156.800 206.400 L 156.800 177.957 157.900 176.579 L 159.000 175.200 200.106 175.200 L 241.211 175.200 242.394 176.500 M336.281 176.478 L 337.600 177.757 337.600 206.359 L 337.600 234.962 336.322 236.281 L 335.043 237.600 294.041 237.600 L 253.038 237.600 251.719 236.322 L 250.400 235.043 250.400 206.441 L 250.400 177.838 251.678 176.519 L 252.957 175.200 293.959 175.200 L 334.962 175.200 336.281 176.478 " stroke="none" fill="#2c342c" fill-rule="evenodd"></path><path id="path8" d="M62.800 144.122 L 62.800 166.243 64.119 167.522 L 65.438 168.800 106.441 168.800 L 147.443 168.800 148.722 167.481 L 150.000 166.162 150.000 144.081 C 150.000 129.627,149.862 122.000,149.600 122.000 C 149.338 122.000,149.200 129.559,149.200 143.878 L 149.200 165.756 148.125 166.878 L 147.050 168.000 106.447 168.000 L 65.844 168.000 64.722 166.925 L 63.600 165.850 63.600 143.925 C 63.600 129.575,63.462 122.000,63.200 122.000 C 62.938 122.000,62.800 129.641,62.800 144.122 M156.800 144.021 L 156.800 166.043 157.900 167.421 L 159.000 168.800 200.106 168.800 L 241.211 168.800 242.394 167.500 L 243.577 166.200 243.588 144.100 C 243.596 129.626,243.462 122.000,243.200 122.000 C 242.938 122.000,242.800 129.539,242.800 143.816 C 242.800 165.630,242.800 165.633,241.925 166.816 L 241.050 168.000 200.152 168.000 L 159.254 168.000 158.427 166.838 C 157.615 165.698,157.600 165.275,157.600 143.838 C 157.600 129.546,157.462 122.000,157.200 122.000 C 156.938 122.000,156.800 129.607,156.800 144.021 M250.400 144.122 L 250.400 166.243 251.719 167.522 L 253.038 168.800 294.041 168.800 L 335.043 168.800 336.322 167.481 L 337.600 166.162 337.600 144.081 C 337.600 129.627,337.462 122.000,337.200 122.000 C 336.938 122.000,336.800 129.559,336.800 143.878 L 336.800 165.756 335.725 166.878 L 334.650 168.000 294.047 168.000 L 253.444 168.000 252.322 166.925 L 251.200 165.850 251.200 143.925 C 251.200 129.575,251.062 122.000,250.800 122.000 C 250.538 122.000,250.400 129.641,250.400 144.122 M64.078 176.519 L 62.800 177.838 62.800 206.441 L 62.800 235.043 64.119 236.322 L 65.438 237.600 106.441 237.600 L 147.443 237.600 148.722 236.281 L 150.000 234.962 150.000 206.359 L 150.000 177.757 148.681 176.478 L 147.362 175.200 106.359 175.200 L 65.357 175.200 64.078 176.519 M157.900 176.579 L 156.800 177.957 156.800 206.400 L 156.800 234.843 157.900 236.221 L 159.000 237.600 200.106 237.600 L 241.211 237.600 242.394 236.300 L 243.577 235.000 243.577 206.400 L 243.577 177.800 242.394 176.500 L 241.211 175.200 200.106 175.200 L 159.000 175.200 157.900 176.579 M251.678 176.519 L 250.400 177.838 250.400 206.441 L 250.400 235.043 251.719 236.322 L 253.038 237.600 294.041 237.600 L 335.043 237.600 336.322 236.281 L 337.600 234.962 337.600 206.359 L 337.600 177.757 336.281 176.478 L 334.962 175.200 293.959 175.200 L 252.957 175.200 251.678 176.519 M148.125 177.122 L 149.200 178.244 149.200 206.400 L 149.200 234.556 148.125 235.678 L 147.050 236.800 106.400 236.800 L 65.750 236.800 64.675 235.678 L 63.600 234.556 63.600 206.400 L 63.600 178.244 64.675 177.122 L 65.750 176.000 106.400 176.000 L 147.050 176.000 148.125 177.122 M241.925 177.184 L 242.800 178.368 242.800 206.400 L 242.800 234.432 241.925 235.616 L 241.050 236.800 200.152 236.800 L 159.254 236.800 158.427 235.638 C 157.610 234.490,157.600 234.143,157.600 206.400 C 157.600 178.657,157.610 178.310,158.427 177.162 L 159.254 176.000 200.152 176.000 L 241.050 176.000 241.925 177.184 M335.725 177.122 L 336.800 178.244 336.800 206.400 L 336.800 234.556 335.725 235.678 L 334.650 236.800 294.000 236.800 L 253.350 236.800 252.275 235.678 L 251.200 234.556 251.200 206.400 L 251.200 178.244 252.275 177.122 L 253.350 176.000 294.000 176.000 L 334.650 176.000 335.725 177.122 " stroke="none" fill="#302c2c" fill-rule="evenodd"></path></g></svg>