<svg id="svg" version="1.1" width="400" height="400" viewBox="0 0 400 400" xmlns="http://www.w3.org/2000/svg" xmlns:xlink="http://www.w3.org/1999/xlink" ><g id="svgg"><path id="path0" d="M62.400 119.995 C 58.962 120.391,58.464 120.645,58.193 122.139 C 57.699 124.866,58.179 231.753,58.690 232.901 L 59.181 234.001 200.259 233.901 L 341.337 233.800 341.843 231.400 C 342.765 227.025,342.612 122.350,341.682 121.202 C 340.441 119.669,336.200 119.550,290.835 119.770 C 267.386 119.883,246.760 119.937,245.000 119.888 C 240.807 119.773,159.095 119.773,155.200 119.889 C 153.550 119.938,132.580 119.915,108.600 119.837 C 84.620 119.759,63.830 119.830,62.400 119.995 M148.700 121.859 L 150.800 122.111 150.800 138.242 L 150.800 154.373 149.387 155.787 L 147.973 157.200 106.400 157.200 L 64.827 157.200 63.413 155.787 L 62.000 154.373 62.000 138.211 L 62.000 122.048 63.500 121.891 C 66.066 121.623,146.480 121.593,148.700 121.859 M242.300 121.859 L 244.400 122.111 244.400 138.242 L 244.400 154.373 242.987 155.787 L 241.573 157.200 200.115 157.200 L 158.657 157.200 157.328 155.750 L 156.000 154.299 156.000 138.175 L 156.000 122.051 157.300 121.889 C 159.485 121.618,240.055 121.590,242.300 121.859 M336.300 121.859 L 338.400 122.111 338.400 138.242 L 338.400 154.373 336.987 155.787 L 335.573 157.200 294.000 157.200 L 252.427 157.200 251.013 155.787 L 249.600 154.373 249.600 138.211 L 249.600 122.048 251.100 121.891 C 253.666 121.623,334.080 121.593,336.300 121.859 M149.387 163.413 L 150.800 164.827 150.787 193.913 C 150.773 225.470,150.889 223.846,148.577 225.046 C 146.985 225.872,65.815 225.872,64.223 225.046 C 61.911 223.846,62.027 225.470,62.013 193.913 L 62.000 164.827 63.413 163.413 L 64.827 162.000 106.400 162.000 L 147.973 162.000 149.387 163.413 M242.987 163.413 L 244.400 164.827 244.387 193.913 C 244.373 225.470,244.489 223.846,242.177 225.046 C 240.844 225.737,158.400 225.889,158.400 225.200 C 158.400 224.980,158.151 224.800,157.846 224.800 C 156.008 224.800,156.000 224.659,156.000 193.877 L 156.000 164.925 157.300 163.465 L 158.600 162.004 200.087 162.002 L 241.573 162.000 242.987 163.413 M336.987 163.413 L 338.400 164.827 338.387 193.913 C 338.373 225.470,338.489 223.846,336.177 225.046 C 334.585 225.872,253.415 225.872,251.823 225.046 C 249.511 223.846,249.627 225.470,249.613 193.913 L 249.600 164.827 251.013 163.413 L 252.427 162.000 294.000 162.000 L 335.573 162.000 336.987 163.413 " stroke="none" fill="#3c3c3c" fill-rule="evenodd"></path><path id="path1" d="M16.800 79.200 C 15.536 80.464,15.536 338.736,16.800 340.000 C 17.579 340.779,18.133 340.800,37.777 340.800 L 57.955 340.800 58.577 339.911 C 59.133 339.117,59.200 333.425,59.200 286.883 L 59.200 234.744 58.063 233.072 C 55.912 229.906,56.000 232.379,56.000 175.302 C 56.000 116.714,55.827 120.881,58.334 119.000 C 59.395 118.204,60.022 118.200,200.200 118.200 C 340.378 118.200,341.005 118.204,342.066 119.000 C 344.573 120.881,344.400 116.714,344.400 175.302 C 344.400 232.396,344.487 229.972,342.333 233.012 L 341.191 234.623 341.296 287.326 C 341.387 333.662,341.472 340.075,342.000 340.408 C 343.371 341.275,382.711 340.889,383.600 340.000 C 384.864 338.736,384.864 80.464,383.600 79.200 C 382.335 77.935,18.065 77.935,16.800 79.200 M373.481 89.678 L 374.800 90.957 374.800 209.559 L 374.800 328.162 373.522 329.481 L 372.243 330.800 362.841 330.800 L 353.438 330.800 352.119 329.522 L 350.800 328.243 350.800 221.535 L 350.800 114.827 349.387 113.413 L 347.973 112.000 200.200 112.000 L 52.427 112.000 51.013 113.413 L 49.600 114.827 49.600 221.494 L 49.600 328.162 48.322 329.481 L 47.043 330.800 37.641 330.800 L 28.238 330.800 26.919 329.522 L 25.600 328.243 25.600 209.641 L 25.600 91.038 26.878 89.719 L 28.157 88.400 200.159 88.400 L 372.162 88.400 373.481 89.678 " stroke="none" fill="#cccccc" fill-rule="evenodd"></path><path id="path2" d="M16.138 79.017 C 15.791 79.921,16.102 79.969,16.900 79.133 C 17.492 78.513,17.506 78.400,16.987 78.400 C 16.651 78.400,16.268 78.678,16.138 79.017 M383.500 79.133 C 384.298 79.969,384.609 79.921,384.262 79.017 C 384.132 78.678,383.749 78.400,383.413 78.400 C 382.894 78.400,382.908 78.513,383.500 79.133 M26.878 89.719 L 25.600 91.038 25.600 209.641 L 25.600 328.243 26.919 329.522 L 28.238 330.800 37.641 330.800 L 47.043 330.800 48.322 329.481 L 49.600 328.162 49.600 221.494 L 49.600 114.827 51.013 113.413 L 52.427 112.000 200.200 112.000 L 347.973 112.000 349.387 113.413 L 350.800 114.827 350.800 221.535 L 350.800 328.243 352.119 329.522 L 353.438 330.800 362.841 330.800 L 372.243 330.800 373.522 329.481 L 374.800 328.162 374.800 209.559 L 374.800 90.957 373.481 89.678 L 372.162 88.400 200.159 88.400 L 28.157 88.400 26.878 89.719 M16.000 339.813 C 16.000 340.149,16.278 340.532,16.617 340.662 C 17.521 341.009,17.569 340.698,16.733 339.900 C 16.113 339.308,16.000 339.294,16.000 339.813 M58.481 340.018 C 58.172 340.513,58.146 340.800,58.409 340.800 C 58.638 340.800,58.932 340.522,59.062 340.183 C 59.422 339.245,59.033 339.134,58.481 340.018 M383.500 340.067 C 382.908 340.687,382.894 340.800,383.413 340.800 C 383.749 340.800,384.132 340.522,384.262 340.183 C 384.609 339.279,384.298 339.231,383.500 340.067 " stroke="none" fill="#f4f4f4" fill-rule="evenodd"></path><path id="path3" d="M63.600 137.678 L 63.600 153.356 64.675 154.478 L 65.750 155.600 106.400 155.600 L 147.050 155.600 148.125 154.478 L 149.200 153.356 149.200 137.678 L 149.200 122.000 106.400 122.000 L 63.600 122.000 63.600 137.678 M157.600 137.638 C 157.600 152.807,157.625 153.311,158.427 154.438 L 159.254 155.600 200.152 155.600 L 241.050 155.600 241.925 154.416 C 242.790 153.246,242.800 153.052,242.800 137.616 L 242.800 122.000 200.200 122.000 L 157.600 122.000 157.600 137.638 M251.200 137.678 L 251.200 153.356 252.275 154.478 L 253.350 155.600 294.000 155.600 L 334.650 155.600 335.725 154.478 L 336.800 153.356 336.800 137.678 L 336.800 122.000 294.000 122.000 L 251.200 122.000 251.200 137.678 M64.675 164.722 L 63.600 165.844 63.600 194.000 L 63.600 222.156 64.675 223.278 L 65.750 224.400 106.400 224.400 L 147.050 224.400 148.125 223.278 L 149.200 222.156 149.200 194.000 L 149.200 165.844 148.125 164.722 L 147.050 163.600 106.400 163.600 L 65.750 163.600 64.675 164.722 M158.427 164.762 C 157.610 165.910,157.600 166.257,157.600 194.000 C 157.600 221.743,157.610 222.090,158.427 223.238 L 159.254 224.400 200.152 224.400 L 241.050 224.400 241.925 223.216 L 242.800 222.032 242.800 194.000 L 242.800 165.968 241.925 164.784 L 241.050 163.600 200.152 163.600 L 159.254 163.600 158.427 164.762 M252.275 164.722 L 251.200 165.844 251.200 194.000 L 251.200 222.156 252.275 223.278 L 253.350 224.400 294.000 224.400 L 334.650 224.400 335.725 223.278 L 336.800 222.156 336.800 194.000 L 336.800 165.844 335.725 164.722 L 334.650 163.600 294.000 163.600 L 253.350 163.600 252.275 164.722 M129.468 234.300 C 168.225 234.356,231.765 234.356,270.668 234.300 C 309.570 234.244,277.860 234.198,200.200 234.198 C 122.540 234.198,90.710 234.244,129.468 234.300 " stroke="none" fill="#2c2c2c" fill-rule="evenodd"></path><path id="path4" d="M61.300 118.276 C 61.685 118.376,62.315 118.376,62.700 118.276 C 63.085 118.175,62.770 118.093,62.000 118.093 C 61.230 118.093,60.915 118.175,61.300 118.276 M150.100 118.276 C 150.485 118.376,151.115 118.376,151.500 118.276 C 151.885 118.175,151.570 118.093,150.800 118.093 C 150.030 118.093,149.715 118.175,150.100 118.276 M155.300 118.276 C 155.685 118.376,156.315 118.376,156.700 118.276 C 157.085 118.175,156.770 118.093,156.000 118.093 C 155.230 118.093,154.915 118.175,155.300 118.276 M243.700 118.276 C 244.085 118.376,244.715 118.376,245.100 118.276 C 245.485 118.175,245.170 118.093,244.400 118.093 C 243.630 118.093,243.315 118.175,243.700 118.276 M248.900 118.276 C 249.285 118.376,249.915 118.376,250.300 118.276 C 250.685 118.175,250.370 118.093,249.600 118.093 C 248.830 118.093,248.515 118.175,248.900 118.276 M337.700 118.276 C 338.085 118.376,338.715 118.376,339.100 118.276 C 339.485 118.175,339.170 118.093,338.400 118.093 C 337.630 118.093,337.315 118.175,337.700 118.276 " stroke="none" fill="#c87ce4" fill-rule="evenodd"></path><path id="path5" d="M61.114 118.298 C 59.003 118.428,58.721 118.565,57.414 120.092 L 56.000 121.744 56.004 175.372 L 56.008 229.000 56.960 231.000 C 57.484 232.100,58.217 233.360,58.589 233.800 L 59.265 234.600 59.001 233.800 C 58.855 233.360,58.572 232.010,58.370 230.800 C 57.972 228.406,57.854 123.185,58.248 121.717 C 58.787 119.707,62.937 119.625,153.000 119.842 C 155.640 119.848,176.700 119.841,199.800 119.827 C 222.900 119.812,243.240 119.840,245.000 119.888 C 246.760 119.937,267.386 119.883,290.835 119.770 C 336.200 119.550,340.441 119.669,341.682 121.202 C 342.481 122.189,342.824 227.324,342.038 230.400 C 341.841 231.170,341.571 232.410,341.439 233.155 L 341.198 234.511 342.006 233.483 C 344.563 230.232,344.382 234.663,344.391 175.334 L 344.400 121.667 342.784 119.934 L 341.167 118.200 202.284 118.179 C 125.898 118.167,62.372 118.221,61.114 118.298 " stroke="none" fill="#603094" fill-rule="evenodd"></path><path id="path6" d="" stroke="none" fill="#64302c" fill-rule="evenodd"></path><path id="path7" d="M85.500 121.900 C 96.995 121.959,115.805 121.959,127.300 121.900 C 138.795 121.841,129.390 121.793,106.400 121.793 C 83.410 121.793,74.005 121.841,85.500 121.900 M179.100 121.900 C 190.595 121.959,209.405 121.959,220.900 121.900 C 232.395 121.841,222.990 121.793,200.000 121.793 C 177.010 121.793,167.605 121.841,179.100 121.900 M273.100 121.900 C 284.595 121.959,303.405 121.959,314.900 121.900 C 326.395 121.841,316.990 121.793,294.000 121.793 C 271.010 121.793,261.605 121.841,273.100 121.900 M62.000 138.187 L 62.000 154.373 63.413 155.787 L 64.827 157.200 106.400 157.200 L 147.973 157.200 149.387 155.787 L 150.800 154.373 150.800 138.187 C 150.800 127.662,150.660 122.000,150.400 122.000 C 150.140 122.000,150.000 127.574,150.000 137.922 L 150.000 153.843 148.681 155.122 L 147.362 156.400 106.359 156.400 L 65.357 156.400 64.078 155.081 L 62.800 153.762 62.800 137.881 C 62.800 127.560,62.660 122.000,62.400 122.000 C 62.140 122.000,62.000 127.662,62.000 138.187 M156.000 138.150 L 156.000 154.299 157.328 155.750 L 158.657 157.200 200.115 157.200 L 241.573 157.200 242.987 155.787 L 244.400 154.373 244.400 138.187 C 244.400 127.662,244.260 122.000,244.000 122.000 C 243.740 122.000,243.596 127.574,243.588 137.900 L 243.577 153.800 242.394 155.100 L 241.211 156.400 200.106 156.400 L 159.000 156.400 157.900 155.021 L 156.800 153.643 156.800 137.821 C 156.800 127.540,156.660 122.000,156.400 122.000 C 156.140 122.000,156.000 127.650,156.000 138.150 M249.600 138.187 L 249.600 154.373 251.013 155.787 L 252.427 157.200 294.000 157.200 L 335.573 157.200 336.987 155.787 L 338.400 154.373 338.400 138.187 C 338.400 127.662,338.260 122.000,338.000 122.000 C 337.740 122.000,337.600 127.574,337.600 137.922 L 337.600 153.843 336.281 155.122 L 334.962 156.400 293.959 156.400 L 252.957 156.400 251.678 155.081 L 250.400 153.762 250.400 137.881 C 250.400 127.560,250.260 122.000,250.000 122.000 C 249.740 122.000,249.600 127.662,249.600 138.187 M63.413 163.413 L 62.000 164.827 62.013 193.913 C 62.027 225.470,61.911 223.846,64.223 225.046 C 65.815 225.872,146.985 225.872,148.577 225.046 C 150.889 223.846,150.773 225.470,150.787 193.913 L 150.800 164.827 149.387 163.413 L 147.973 162.000 106.400 162.000 L 64.827 162.000 63.413 163.413 M157.300 163.465 L 156.000 164.925 156.000 193.877 C 156.000 224.659,156.008 224.800,157.846 224.800 C 158.151 224.800,158.400 224.980,158.400 225.200 C 158.400 225.889,240.844 225.737,242.177 225.046 C 244.489 223.846,244.373 225.470,244.387 193.913 L 244.400 164.827 242.987 163.413 L 241.573 162.000 200.087 162.002 L 158.600 162.004 157.300 163.465 M251.013 163.413 L 249.600 164.827 249.613 193.913 C 249.627 225.470,249.511 223.846,251.823 225.046 C 253.415 225.872,334.585 225.872,336.177 225.046 C 338.489 223.846,338.373 225.470,338.387 193.913 L 338.400 164.827 336.987 163.413 L 335.573 162.000 294.000 162.000 L 252.427 162.000 251.013 163.413 M148.681 164.078 L 150.000 165.357 150.000 193.957 L 150.000 222.556 148.925 223.678 L 147.850 224.800 106.400 224.800 L 64.950 224.800 63.875 223.678 L 62.800 222.556 62.800 193.997 L 62.800 165.438 64.078 164.119 L 65.357 162.800 106.359 162.800 L 147.362 162.800 148.681 164.078 M242.394 164.100 L 243.577 165.400 243.588 193.978 L 243.600 222.556 242.525 223.678 L 241.450 224.800 200.106 224.800 L 158.762 224.800 157.793 223.700 L 156.825 222.600 156.813 194.079 L 156.800 165.557 157.900 164.179 L 159.000 162.800 200.106 162.800 L 241.211 162.800 242.394 164.100 M336.281 164.078 L 337.600 165.357 337.600 193.957 L 337.600 222.556 336.525 223.678 L 335.450 224.800 294.000 224.800 L 252.550 224.800 251.475 223.678 L 250.400 222.556 250.400 193.997 L 250.400 165.438 251.678 164.119 L 252.957 162.800 293.959 162.800 L 334.962 162.800 336.281 164.078 " stroke="none" fill="#2c342c" fill-rule="evenodd"></path><path id="path8" d="M62.800 137.922 L 62.800 153.843 64.119 155.122 L 65.438 156.400 106.441 156.400 L 147.443 156.400 148.722 155.081 L 150.000 153.762 150.000 137.881 C 150.000 127.560,149.860 122.000,149.600 122.000 C 149.340 122.000,149.200 127.493,149.200 137.678 L 149.200 153.356 148.125 154.478 L 147.050 155.600 106.400 155.600 L 65.750 155.600 64.675 154.478 L 63.600 153.356 63.600 137.678 C 63.600 127.493,63.460 122.000,63.200 122.000 C 62.940 122.000,62.800 127.574,62.800 137.922 M156.800 137.821 L 156.800 153.643 157.900 155.021 L 159.000 156.400 200.106 156.400 L 241.211 156.400 242.394 155.100 L 243.577 153.800 243.588 137.900 C 243.596 127.559,243.460 122.000,243.200 122.000 C 242.940 122.000,242.800 127.472,242.800 137.616 C 242.800 153.052,242.790 153.246,241.925 154.416 L 241.050 155.600 200.152 155.600 L 159.254 155.600 158.427 154.438 C 157.625 153.311,157.600 152.807,157.600 137.638 C 157.600 127.479,157.460 122.000,157.200 122.000 C 156.940 122.000,156.800 127.540,156.800 137.821 M250.400 137.922 L 250.400 153.843 251.719 155.122 L 253.038 156.400 294.041 156.400 L 335.043 156.400 336.322 155.081 L 337.600 153.762 337.600 137.881 C 337.600 127.560,337.460 122.000,337.200 122.000 C 336.940 122.000,336.800 127.493,336.800 137.678 L 336.800 153.356 335.725 154.478 L 334.650 155.600 294.000 155.600 L 253.350 155.600 252.275 154.478 L 251.200 153.356 251.200 137.678 C 251.200 127.493,251.060 122.000,250.800 122.000 C 250.540 122.000,250.400 127.574,250.400 137.922 M64.078 164.119 L 62.800 165.438 62.800 193.997 L 62.800 222.556 63.875 223.678 L 64.950 224.800 106.400 224.800 L 147.850 224.800 148.925 223.678 L 150.000 222.556 150.000 193.957 L 150.000 165.357 148.681 164.078 L 147.362 162.800 106.359 162.800 L 65.357 162.800 64.078 164.119 M157.900 164.179 L 156.800 165.557 156.813 194.079 L 156.825 222.600 157.793 223.700 L 158.762 224.800 200.106 224.800 L 241.450 224.800 242.525 223.678 L 243.600 222.556 243.588 193.978 L 243.577 165.400 242.394 164.100 L 241.211 162.800 200.106 162.800 L 159.000 162.800 157.900 164.179 M251.678 164.119 L 250.400 165.438 250.400 193.997 L 250.400 222.556 251.475 223.678 L 252.550 224.800 294.000 224.800 L 335.450 224.800 336.525 223.678 L 337.600 222.556 337.600 193.957 L 337.600 165.357 336.281 164.078 L 334.962 162.800 293.959 162.800 L 252.957 162.800 251.678 164.119 M148.125 164.722 L 149.200 165.844 149.200 194.000 L 149.200 222.156 148.125 223.278 L 147.050 224.400 106.400 224.400 L 65.750 224.400 64.675 223.278 L 63.600 222.156 63.600 194.000 L 63.600 165.844 64.675 164.722 L 65.750 163.600 106.400 163.600 L 147.050 163.600 148.125 164.722 M241.925 164.784 L 242.800 165.968 242.800 194.000 L 242.800 222.032 241.925 223.216 L 241.050 224.400 200.152 224.400 L 159.254 224.400 158.427 223.238 C 157.610 222.090,157.600 221.743,157.600 194.000 C 157.600 166.257,157.610 165.910,158.427 164.762 L 159.254 163.600 200.152 163.600 L 241.050 163.600 241.925 164.784 M335.725 164.722 L 336.800 165.844 336.800 194.000 L 336.800 222.156 335.725 223.278 L 334.650 224.400 294.000 224.400 L 253.350 224.400 252.275 223.278 L 251.200 222.156 251.200 194.000 L 251.200 165.844 252.275 164.722 L 253.350 163.600 294.000 163.600 L 334.650 163.600 335.725 164.722 " stroke="none" fill="#302c2c" fill-rule="evenodd"></path></g></svg>