<svg id="svg" version="1.1" width="400" height="400" viewBox="0 0 400 400" xmlns="http://www.w3.org/2000/svg" xmlns:xlink="http://www.w3.org/1999/xlink" ><g id="svgg"><path id="path0" d="M62.400 119.995 C 58.961 120.391,58.463 120.645,58.195 122.139 C 57.697 124.904,58.181 281.756,58.690 282.901 L 59.181 284.001 200.259 283.901 L 341.337 283.800 341.843 281.400 C 342.769 277.006,342.614 122.352,341.682 121.202 C 340.441 119.669,336.200 119.550,290.835 119.770 C 267.386 119.883,246.760 119.937,245.000 119.888 C 240.807 119.773,159.095 119.773,155.200 119.889 C 153.550 119.938,132.580 119.915,108.600 119.837 C 84.620 119.759,63.830 119.830,62.400 119.995 M148.700 121.859 L 150.800 122.111 150.800 128.842 L 150.800 135.573 149.387 136.987 L 147.973 138.400 106.400 138.400 L 64.827 138.400 63.413 136.987 L 62.000 135.573 62.000 128.811 L 62.000 122.048 63.500 121.891 C 66.066 121.623,146.480 121.593,148.700 121.859 M242.300 121.859 L 244.400 122.111 244.400 128.842 L 244.400 135.573 242.987 136.987 L 241.573 138.400 200.115 138.400 L 158.657 138.400 157.328 136.950 L 156.000 135.499 156.000 128.775 L 156.000 122.051 157.300 121.889 C 159.485 121.618,240.055 121.590,242.300 121.859 M336.300 121.859 L 338.400 122.111 338.400 128.842 L 338.400 135.573 336.987 136.987 L 335.573 138.400 294.000 138.400 L 252.427 138.400 251.013 136.987 L 249.600 135.573 249.600 128.811 L 249.600 122.048 251.100 121.891 C 253.666 121.623,334.080 121.593,336.300 121.859 M149.387 144.613 L 150.800 146.027 150.800 175.200 L 150.800 204.373 149.387 205.787 L 147.973 207.200 106.400 207.200 L 64.827 207.200 63.413 205.787 L 62.000 204.373 62.000 175.200 L 62.000 146.027 63.413 144.613 L 64.827 143.200 106.400 143.200 L 147.973 143.200 149.387 144.613 M242.987 144.613 L 244.400 146.027 244.400 175.200 L 244.400 204.373 242.987 205.787 L 241.573 207.200 200.115 207.200 L 158.657 207.200 157.328 205.750 L 156.000 204.299 156.000 175.212 L 156.000 146.125 157.300 144.665 L 158.600 143.204 200.087 143.202 L 241.573 143.200 242.987 144.613 M336.987 144.613 L 338.400 146.027 338.400 175.200 L 338.400 204.373 336.987 205.787 L 335.573 207.200 294.000 207.200 L 252.427 207.200 251.013 205.787 L 249.600 204.373 249.600 175.200 L 249.600 146.027 251.013 144.613 L 252.427 143.200 294.000 143.200 L 335.573 143.200 336.987 144.613 M149.387 213.413 L 150.800 214.827 150.787 243.913 C 150.773 275.470,150.889 273.846,148.577 275.046 C 146.985 275.872,65.815 275.872,64.223 275.046 C 61.911 273.846,62.027 275.470,62.013 243.913 L 62.000 214.827 63.413 213.413 L 64.827 212.000 106.400 212.000 L 147.973 212.000 149.387 213.413 M242.987 213.413 L 244.400 214.827 244.387 243.913 C 244.373 275.470,244.489 273.846,242.177 275.046 C 240.844 275.737,158.400 275.889,158.400 275.200 C 158.400 274.980,158.151 274.800,157.846 274.800 C 156.008 274.800,156.000 274.659,156.000 243.877 L 156.000 214.925 157.300 213.465 L 158.600 212.004 200.087 212.002 L 241.573 212.000 242.987 213.413 M336.987 213.413 L 338.400 214.827 338.387 243.913 C 338.373 275.470,338.489 273.846,336.177 275.046 C 334.585 275.872,253.415 275.872,251.823 275.046 C 249.511 273.846,249.627 275.470,249.613 243.913 L 249.600 214.827 251.013 213.413 L 252.427 212.000 294.000 212.000 L 335.573 212.000 336.987 213.413 " stroke="none" fill="#3c3c3c" fill-rule="evenodd"></path><path id="path1" d="M16.800 79.200 C 15.536 80.464,15.536 338.736,16.800 340.000 C 17.579 340.779,18.133 340.800,37.777 340.800 L 57.955 340.800 58.577 339.911 C 59.676 338.342,59.503 285.149,58.393 283.591 C 55.800 279.948,56.019 287.587,56.009 200.351 L 56.000 121.703 57.554 119.951 L 59.109 118.200 200.138 118.200 L 341.167 118.200 342.783 119.934 L 344.400 121.667 344.400 200.246 C 344.400 286.095,344.570 279.762,342.173 283.233 L 341.184 284.666 341.292 312.348 C 341.386 336.439,341.478 340.079,342.000 340.409 C 343.371 341.275,382.711 340.889,383.600 340.000 C 384.864 338.736,384.864 80.464,383.600 79.200 C 382.335 77.935,18.065 77.935,16.800 79.200 M373.481 89.678 L 374.800 90.957 374.800 209.559 L 374.800 328.162 373.522 329.481 L 372.243 330.800 362.841 330.800 L 353.438 330.800 352.119 329.522 L 350.800 328.243 350.800 221.535 L 350.800 114.827 349.387 113.413 L 347.973 112.000 200.200 112.000 L 52.427 112.000 51.013 113.413 L 49.600 114.827 49.600 221.494 L 49.600 328.162 48.322 329.481 L 47.043 330.800 37.641 330.800 L 28.238 330.800 26.919 329.522 L 25.600 328.243 25.600 209.641 L 25.600 91.038 26.878 89.719 L 28.157 88.400 200.159 88.400 L 372.162 88.400 373.481 89.678 " stroke="none" fill="#cccccc" fill-rule="evenodd"></path><path id="path2" d="M16.138 79.017 C 15.791 79.921,16.102 79.969,16.900 79.133 C 17.492 78.513,17.506 78.400,16.987 78.400 C 16.651 78.400,16.268 78.678,16.138 79.017 M383.500 79.133 C 384.298 79.969,384.609 79.921,384.262 79.017 C 384.132 78.678,383.749 78.400,383.413 78.400 C 382.894 78.400,382.908 78.513,383.500 79.133 M26.878 89.719 L 25.600 91.038 25.600 209.641 L 25.600 328.243 26.919 329.522 L 28.238 330.800 37.641 330.800 L 47.043 330.800 48.322 329.481 L 49.600 328.162 49.600 221.494 L 49.600 114.827 51.013 113.413 L 52.427 112.000 200.200 112.000 L 347.973 112.000 349.387 113.413 L 350.800 114.827 350.800 221.535 L 350.800 328.243 352.119 329.522 L 353.438 330.800 362.841 330.800 L 372.243 330.800 373.522 329.481 L 374.800 328.162 374.800 209.559 L 374.800 90.957 373.481 89.678 L 372.162 88.400 200.159 88.400 L 28.157 88.400 26.878 89.719 M16.000 339.813 C 16.000 340.149,16.278 340.532,16.617 340.662 C 17.521 341.009,17.569 340.698,16.733 339.900 C 16.113 339.308,16.000 339.294,16.000 339.813 M58.481 340.018 C 58.172 340.513,58.146 340.800,58.409 340.800 C 58.638 340.800,58.932 340.522,59.062 340.183 C 59.422 339.245,59.033 339.134,58.481 340.018 M383.500 340.067 C 382.908 340.687,382.894 340.800,383.413 340.800 C 383.749 340.800,384.132 340.522,384.262 340.183 C 384.609 339.279,384.298 339.231,383.500 340.067 " stroke="none" fill="#f4f4f4" fill-rule="evenodd"></path><path id="path3" d="M63.600 128.278 C 63.600 134.546,63.602 134.558,64.675 135.678 L 65.750 136.800 106.400 136.800 L 147.050 136.800 148.125 135.678 C 149.198 134.558,149.200 134.546,149.200 128.278 L 149.200 122.000 106.400 122.000 L 63.600 122.000 63.600 128.278 M157.600 128.238 C 157.600 133.904,157.676 134.583,158.427 135.638 L 159.254 136.800 200.152 136.800 L 241.050 136.800 241.925 135.616 C 242.737 134.518,242.800 133.983,242.800 128.216 L 242.800 122.000 200.200 122.000 L 157.600 122.000 157.600 128.238 M251.200 128.278 C 251.200 134.546,251.202 134.558,252.275 135.678 L 253.350 136.800 294.000 136.800 L 334.650 136.800 335.725 135.678 C 336.798 134.558,336.800 134.546,336.800 128.278 L 336.800 122.000 294.000 122.000 L 251.200 122.000 251.200 128.278 M64.675 145.922 L 63.600 147.044 63.600 175.200 L 63.600 203.356 64.675 204.478 L 65.750 205.600 106.400 205.600 L 147.050 205.600 148.125 204.478 L 149.200 203.356 149.200 175.200 L 149.200 147.044 148.125 145.922 L 147.050 144.800 106.400 144.800 L 65.750 144.800 64.675 145.922 M158.427 145.962 C 157.127 147.788,157.127 202.612,158.427 204.438 L 159.254 205.600 200.152 205.600 L 241.050 205.600 241.925 204.416 L 242.800 203.232 242.800 175.200 L 242.800 147.168 241.925 145.984 L 241.050 144.800 200.152 144.800 L 159.254 144.800 158.427 145.962 M252.275 145.922 L 251.200 147.044 251.200 175.200 L 251.200 203.356 252.275 204.478 L 253.350 205.600 294.000 205.600 L 334.650 205.600 335.725 204.478 L 336.800 203.356 336.800 175.200 L 336.800 147.044 335.725 145.922 L 334.650 144.800 294.000 144.800 L 253.350 144.800 252.275 145.922 M64.675 214.722 L 63.600 215.844 63.600 244.000 L 63.600 272.156 64.675 273.278 L 65.750 274.400 106.400 274.400 L 147.050 274.400 148.125 273.278 L 149.200 272.156 149.200 244.000 L 149.200 215.844 148.125 214.722 L 147.050 213.600 106.400 213.600 L 65.750 213.600 64.675 214.722 M158.427 214.762 C 157.610 215.910,157.600 216.257,157.600 244.000 C 157.600 271.743,157.610 272.090,158.427 273.238 L 159.254 274.400 200.152 274.400 L 241.050 274.400 241.925 273.216 L 242.800 272.032 242.800 244.000 L 242.800 215.968 241.925 214.784 L 241.050 213.600 200.152 213.600 L 159.254 213.600 158.427 214.762 M252.275 214.722 L 251.200 215.844 251.200 244.000 L 251.200 272.156 252.275 273.278 L 253.350 274.400 294.000 274.400 L 334.650 274.400 335.725 273.278 L 336.800 272.156 336.800 244.000 L 336.800 215.844 335.725 214.722 L 334.650 213.600 294.000 213.600 L 253.350 213.600 252.275 214.722 M129.468 284.300 C 168.225 284.356,231.765 284.356,270.668 284.300 C 309.570 284.244,277.860 284.198,200.200 284.198 C 122.540 284.198,90.710 284.244,129.468 284.300 " stroke="none" fill="#2c2c2c" fill-rule="evenodd"></path><path id="path4" d="M61.114 118.298 C 59.003 118.428,58.721 118.565,57.414 120.092 L 56.000 121.744 56.004 200.372 L 56.008 279.000 56.960 281.000 C 57.484 282.100,58.217 283.360,58.589 283.800 L 59.265 284.600 59.001 283.800 C 58.855 283.360,58.572 282.010,58.370 280.800 C 57.971 278.400,57.852 123.194,58.248 121.717 C 58.787 119.707,62.937 119.625,153.000 119.842 C 155.640 119.848,176.700 119.841,199.800 119.827 C 222.900 119.812,243.240 119.840,245.000 119.888 C 246.760 119.937,267.386 119.883,290.835 119.770 C 336.200 119.550,340.441 119.669,341.682 121.202 C 342.482 122.189,342.828 277.307,342.038 280.400 C 341.841 281.170,341.571 282.410,341.439 283.155 L 341.198 284.511 342.006 283.483 C 344.593 280.195,344.381 287.554,344.391 200.334 L 344.400 121.667 342.784 119.934 L 341.167 118.200 202.284 118.179 C 125.898 118.167,62.372 118.221,61.114 118.298 " stroke="none" fill="#603094" fill-rule="evenodd"></path><path id="path5" d="" stroke="none" fill="#64302c" fill-rule="evenodd"></path><path id="path6" d="M85.500 121.900 C 96.995 121.959,115.805 121.959,127.300 121.900 C 138.795 121.841,129.390 121.793,106.400 121.793 C 83.410 121.793,74.005 121.841,85.500 121.900 M179.100 121.900 C 190.595 121.959,209.405 121.959,220.900 121.900 C 232.395 121.841,222.990 121.793,200.000 121.793 C 177.010 121.793,167.605 121.841,179.100 121.900 M273.100 121.900 C 284.595 121.959,303.405 121.959,314.900 121.900 C 326.395 121.841,316.990 121.793,294.000 121.793 C 271.010 121.793,261.605 121.841,273.100 121.900 M62.000 128.787 L 62.000 135.573 63.413 136.987 L 64.827 138.400 106.400 138.400 L 147.973 138.400 149.387 136.987 L 150.800 135.573 150.800 128.787 C 150.800 124.529,150.651 122.000,150.400 122.000 C 150.150 122.000,150.000 124.441,150.000 128.522 L 150.000 135.043 148.681 136.322 L 147.362 137.600 106.359 137.600 L 65.357 137.600 64.078 136.281 L 62.800 134.962 62.800 128.481 C 62.800 124.427,62.650 122.000,62.400 122.000 C 62.149 122.000,62.000 124.529,62.000 128.787 M156.000 128.750 L 156.000 135.499 157.328 136.950 L 158.657 138.400 200.115 138.400 L 241.573 138.400 242.987 136.987 L 244.400 135.573 244.400 128.787 C 244.400 124.529,244.251 122.000,244.000 122.000 C 243.750 122.000,243.596 124.441,243.588 128.500 L 243.577 135.000 242.394 136.300 L 241.211 137.600 200.106 137.600 L 159.000 137.600 157.900 136.221 C 156.803 134.846,156.800 134.826,156.800 128.421 C 156.800 124.407,156.650 122.000,156.400 122.000 C 156.149 122.000,156.000 124.517,156.000 128.750 M249.600 128.787 L 249.600 135.573 251.013 136.987 L 252.427 138.400 294.000 138.400 L 335.573 138.400 336.987 136.987 L 338.400 135.573 338.400 128.787 C 338.400 124.529,338.251 122.000,338.000 122.000 C 337.750 122.000,337.600 124.441,337.600 128.522 L 337.600 135.043 336.281 136.322 L 334.962 137.600 293.959 137.600 L 252.957 137.600 251.678 136.281 L 250.400 134.962 250.400 128.481 C 250.400 124.427,250.250 122.000,250.000 122.000 C 249.749 122.000,249.600 124.529,249.600 128.787 M63.413 144.613 L 62.000 146.027 62.000 175.200 L 62.000 204.373 63.413 205.787 L 64.827 207.200 106.400 207.200 L 147.973 207.200 149.387 205.787 L 150.800 204.373 150.800 175.200 L 150.800 146.027 149.387 144.613 L 147.973 143.200 106.400 143.200 L 64.827 143.200 63.413 144.613 M157.300 144.665 L 156.000 146.125 156.000 175.212 L 156.000 204.299 157.328 205.750 L 158.657 207.200 200.115 207.200 L 241.573 207.200 242.987 205.787 L 244.400 204.373 244.400 175.200 L 244.400 146.027 242.987 144.613 L 241.573 143.200 200.087 143.202 L 158.600 143.204 157.300 144.665 M251.013 144.613 L 249.600 146.027 249.600 175.200 L 249.600 204.373 251.013 205.787 L 252.427 207.200 294.000 207.200 L 335.573 207.200 336.987 205.787 L 338.400 204.373 338.400 175.200 L 338.400 146.027 336.987 144.613 L 335.573 143.200 294.000 143.200 L 252.427 143.200 251.013 144.613 M148.681 145.278 L 150.000 146.557 150.000 175.159 L 150.000 203.762 148.722 205.081 L 147.443 206.400 106.441 206.400 L 65.438 206.400 64.119 205.122 L 62.800 203.843 62.800 175.241 L 62.800 146.638 64.078 145.319 L 65.357 144.000 106.359 144.000 L 147.362 144.000 148.681 145.278 M242.394 145.300 L 243.577 146.600 243.577 175.200 L 243.577 203.800 242.394 205.100 L 241.211 206.400 200.106 206.400 L 159.000 206.400 157.900 205.021 L 156.800 203.643 156.800 175.200 L 156.800 146.757 157.900 145.379 L 159.000 144.000 200.106 144.000 L 241.211 144.000 242.394 145.300 M336.281 145.278 L 337.600 146.557 337.600 175.159 L 337.600 203.762 336.322 205.081 L 335.043 206.400 294.041 206.400 L 253.038 206.400 251.719 205.122 L 250.400 203.843 250.400 175.241 L 250.400 146.638 251.678 145.319 L 252.957 144.000 293.959 144.000 L 334.962 144.000 336.281 145.278 M63.413 213.413 L 62.000 214.827 62.013 243.913 C 62.027 275.470,61.911 273.846,64.223 275.046 C 65.815 275.872,146.985 275.872,148.577 275.046 C 150.889 273.846,150.773 275.470,150.787 243.913 L 150.800 214.827 149.387 213.413 L 147.973 212.000 106.400 212.000 L 64.827 212.000 63.413 213.413 M157.300 213.465 L 156.000 214.925 156.000 243.877 C 156.000 274.659,156.008 274.800,157.846 274.800 C 158.151 274.800,158.400 274.980,158.400 275.200 C 158.400 275.889,240.844 275.737,242.177 275.046 C 244.489 273.846,244.373 275.470,244.387 243.913 L 244.400 214.827 242.987 213.413 L 241.573 212.000 200.087 212.002 L 158.600 212.004 157.300 213.465 M251.013 213.413 L 249.600 214.827 249.613 243.913 C 249.627 275.470,249.511 273.846,251.823 275.046 C 253.415 275.872,334.585 275.872,336.177 275.046 C 338.489 273.846,338.373 275.470,338.387 243.913 L 338.400 214.827 336.987 213.413 L 335.573 212.000 294.000 212.000 L 252.427 212.000 251.013 213.413 M148.681 214.078 L 150.000 215.357 150.000 243.957 L 150.000 272.556 148.925 273.678 L 147.850 274.800 106.400 274.800 L 64.950 274.800 63.875 273.678 L 62.800 272.556 62.800 243.997 L 62.800 215.438 64.078 214.119 L 65.357 212.800 106.359 212.800 L 147.362 212.800 148.681 214.078 M242.394 214.100 L 243.577 215.400 243.588 243.978 L 243.600 272.556 242.525 273.678 L 241.450 274.800 200.106 274.800 L 158.762 274.800 157.793 273.700 L 156.825 272.600 156.813 244.079 L 156.800 215.557 157.900 214.179 L 159.000 212.800 200.106 212.800 L 241.211 212.800 242.394 214.100 M336.281 214.078 L 337.600 215.357 337.600 243.957 L 337.600 272.556 336.525 273.678 L 335.450 274.800 294.000 274.800 L 252.550 274.800 251.475 273.678 L 250.400 272.556 250.400 243.997 L 250.400 215.438 251.678 214.119 L 252.957 212.800 293.959 212.800 L 334.962 212.800 336.281 214.078 " stroke="none" fill="#2c342c" fill-rule="evenodd"></path><path id="path7" d="M62.800 128.522 L 62.800 135.043 64.119 136.322 L 65.438 137.600 106.441 137.600 L 147.443 137.600 148.722 136.281 L 150.000 134.962 150.000 128.481 C 150.000 124.427,149.850 122.000,149.600 122.000 C 149.350 122.000,149.200 124.359,149.200 128.278 C 149.200 134.546,149.198 134.558,148.125 135.678 L 147.050 136.800 106.400 136.800 L 65.750 136.800 64.675 135.678 C 63.602 134.558,63.600 134.546,63.600 128.278 C 63.600 124.359,63.450 122.000,63.200 122.000 C 62.950 122.000,62.800 124.441,62.800 128.522 M156.800 128.421 C 156.800 134.826,156.803 134.846,157.900 136.221 L 159.000 137.600 200.106 137.600 L 241.211 137.600 242.394 136.300 L 243.577 135.000 243.588 128.500 C 243.596 124.426,243.451 122.000,243.200 122.000 C 242.950 122.000,242.800 124.339,242.800 128.216 C 242.800 133.983,242.737 134.518,241.925 135.616 L 241.050 136.800 200.152 136.800 L 159.254 136.800 158.427 135.638 C 157.676 134.583,157.600 133.904,157.600 128.238 C 157.600 124.346,157.450 122.000,157.200 122.000 C 156.950 122.000,156.800 124.407,156.800 128.421 M250.400 128.522 L 250.400 135.043 251.719 136.322 L 253.038 137.600 294.041 137.600 L 335.043 137.600 336.322 136.281 L 337.600 134.962 337.600 128.481 C 337.600 124.427,337.450 122.000,337.200 122.000 C 336.950 122.000,336.800 124.359,336.800 128.278 C 336.800 134.546,336.798 134.558,335.725 135.678 L 334.650 136.800 294.000 136.800 L 253.350 136.800 252.275 135.678 C 251.202 134.558,251.200 134.546,251.200 128.278 C 251.200 124.359,251.050 122.000,250.800 122.000 C 250.550 122.000,250.400 124.441,250.400 128.522 M64.078 145.319 L 62.800 146.638 62.800 175.241 L 62.800 203.843 64.119 205.122 L 65.438 206.400 106.441 206.400 L 147.443 206.400 148.722 205.081 L 150.000 203.762 150.000 175.159 L 150.000 146.557 148.681 145.278 L 147.362 144.000 106.359 144.000 L 65.357 144.000 64.078 145.319 M157.900 145.379 L 156.800 146.757 156.800 175.200 L 156.800 203.643 157.900 205.021 L 159.000 206.400 200.106 206.400 L 241.211 206.400 242.394 205.100 L 243.577 203.800 243.577 175.200 L 243.577 146.600 242.394 145.300 L 241.211 144.000 200.106 144.000 L 159.000 144.000 157.900 145.379 M251.678 145.319 L 250.400 146.638 250.400 175.241 L 250.400 203.843 251.719 205.122 L 253.038 206.400 294.041 206.400 L 335.043 206.400 336.322 205.081 L 337.600 203.762 337.600 175.159 L 337.600 146.557 336.281 145.278 L 334.962 144.000 293.959 144.000 L 252.957 144.000 251.678 145.319 M148.125 145.922 L 149.200 147.044 149.200 175.200 L 149.200 203.356 148.125 204.478 L 147.050 205.600 106.400 205.600 L 65.750 205.600 64.675 204.478 L 63.600 203.356 63.600 175.200 L 63.600 147.044 64.675 145.922 L 65.750 144.800 106.400 144.800 L 147.050 144.800 148.125 145.922 M241.925 145.984 L 242.800 147.168 242.800 175.200 L 242.800 203.232 241.925 204.416 L 241.050 205.600 200.152 205.600 L 159.254 205.600 158.427 204.438 C 157.610 203.290,157.600 202.943,157.600 175.200 C 157.600 147.457,157.610 147.110,158.427 145.962 L 159.254 144.800 200.152 144.800 L 241.050 144.800 241.925 145.984 M335.725 145.922 L 336.800 147.044 336.800 175.200 L 336.800 203.356 335.725 204.478 L 334.650 205.600 294.000 205.600 L 253.350 205.600 252.275 204.478 L 251.200 203.356 251.200 175.200 L 251.200 147.044 252.275 145.922 L 253.350 144.800 294.000 144.800 L 334.650 144.800 335.725 145.922 M64.078 214.119 L 62.800 215.438 62.800 243.997 L 62.800 272.556 63.875 273.678 L 64.950 274.800 106.400 274.800 L 147.850 274.800 148.925 273.678 L 150.000 272.556 150.000 243.957 L 150.000 215.357 148.681 214.078 L 147.362 212.800 106.359 212.800 L 65.357 212.800 64.078 214.119 M157.900 214.179 L 156.800 215.557 156.813 244.079 L 156.825 272.600 157.793 273.700 L 158.762 274.800 200.106 274.800 L 241.450 274.800 242.525 273.678 L 243.600 272.556 243.588 243.978 L 243.577 215.400 242.394 214.100 L 241.211 212.800 200.106 212.800 L 159.000 212.800 157.900 214.179 M251.678 214.119 L 250.400 215.438 250.400 243.997 L 250.400 272.556 251.475 273.678 L 252.550 274.800 294.000 274.800 L 335.450 274.800 336.525 273.678 L 337.600 272.556 337.600 243.957 L 337.600 215.357 336.281 214.078 L 334.962 212.800 293.959 212.800 L 252.957 212.800 251.678 214.119 M148.125 214.722 L 149.200 215.844 149.200 244.000 L 149.200 272.156 148.125 273.278 L 147.050 274.400 106.400 274.400 L 65.750 274.400 64.675 273.278 L 63.600 272.156 63.600 244.000 L 63.600 215.844 64.675 214.722 L 65.750 213.600 106.400 213.600 L 147.050 213.600 148.125 214.722 M241.925 214.784 L 242.800 215.968 242.800 244.000 L 242.800 272.032 241.925 273.216 L 241.050 274.400 200.152 274.400 L 159.254 274.400 158.427 273.238 C 157.610 272.090,157.600 271.743,157.600 244.000 C 157.600 216.257,157.610 215.910,158.427 214.762 L 159.254 213.600 200.152 213.600 L 241.050 213.600 241.925 214.784 M335.725 214.722 L 336.800 215.844 336.800 244.000 L 336.800 272.156 335.725 273.278 L 334.650 274.400 294.000 274.400 L 253.350 274.400 252.275 273.278 L 251.200 272.156 251.200 244.000 L 251.200 215.844 252.275 214.722 L 253.350 213.600 294.000 213.600 L 334.650 213.600 335.725 214.722 " stroke="none" fill="#302c2c" fill-rule="evenodd"></path><path id="path8" d="M62.800 128.522 L 62.800 135.043 64.119 136.322 L 65.438 137.600 106.441 137.600 L 147.443 137.600 148.722 136.281 L 150.000 134.962 150.000 128.481 C 150.000 124.427,149.850 122.000,149.600 122.000 C 149.350 122.000,149.200 124.359,149.200 128.278 C 149.200 134.546,149.198 134.558,148.125 135.678 L 147.050 136.800 106.400 136.800 L 65.750 136.800 64.675 135.678 C 63.602 134.558,63.600 134.546,63.600 128.278 C 63.600 124.359,63.450 122.000,63.200 122.000 C 62.950 122.000,62.800 124.441,62.800 128.522 M156.800 128.421 C 156.800 134.826,156.803 134.846,157.900 136.221 L 159.000 137.600 200.106 137.600 L 241.211 137.600 242.394 136.300 L 243.577 135.000 243.588 128.500 C 243.596 124.426,243.451 122.000,243.200 122.000 C 242.950 122.000,242.800 124.339,242.800 128.216 C 242.800 133.983,242.737 134.518,241.925 135.616 L 241.050 136.800 200.152 136.800 L 159.254 136.800 158.427 135.638 C 157.676 134.583,157.600 133.904,157.600 128.238 C 157.600 124.346,157.450 122.000,157.200 122.000 C 156.950 122.000,156.800 124.407,156.800 128.421 M250.400 128.522 L 250.400 135.043 251.719 136.322 L 253.038 137.600 294.041 137.600 L 335.043 137.600 336.322 136.281 L 337.600 134.962 337.600 128.481 C 337.600 124.427,337.450 122.000,337.200 122.000 C 336.950 122.000,336.800 124.359,336.800 128.278 C 336.800 134.546,336.798 134.558,335.725 135.678 L 334.650 136.800 294.000 136.800 L 253.350 136.800 252.275 135.678 C 251.202 134.558,251.200 134.546,251.200 128.278 C 251.200 124.359,251.050 122.000,250.800 122.000 C 250.550 122.000,250.400 124.441,250.400 128.522 M64.078 145.319 L 62.800 146.638 62.800 175.241 L 62.800 203.843 64.119 205.122 L 65.438 206.400 106.441 206.400 L 147.443 206.400 148.722 205.081 L 150.000 203.762 150.000 175.159 L 150.000 146.557 148.681 145.278 L 147.362 144.000 106.359 144.000 L 65.357 144.000 64.078 145.319 M157.900 145.379 L 156.800 146.757 156.800 175.200 L 156.800 203.643 157.900 205.021 L 159.000 206.400 200.106 206.400 L 241.211 206.400 242.394 205.100 L 243.577 203.800 243.577 175.200 L 243.577 146.600 242.394 145.300 L 241.211 144.000 200.106 144.000 L 159.000 144.000 157.900 145.379 M251.678 145.319 L 250.400 146.638 250.400 175.241 L 250.400 203.843 251.719 205.122 L 253.038 206.400 294.041 206.400 L 335.043 206.400 336.322 205.081 L 337.600 203.762 337.600 175.159 L 337.600 146.557 336.281 145.278 L 334.962 144.000 293.959 144.000 L 252.957 144.000 251.678 145.319 M148.125 145.922 L 149.200 147.044 149.200 175.200 L 149.200 203.356 148.125 204.478 L 147.050 205.600 106.400 205.600 L 65.750 205.600 64.675 204.478 L 63.600 203.356 63.600 175.200 L 63.600 147.044 64.675 145.922 L 65.750 144.800 106.400 144.800 L 147.050 144.800 148.125 145.922 M241.925 145.984 L 242.800 147.168 242.800 175.200 L 242.800 203.232 241.925 204.416 L 241.050 205.600 200.152 205.600 L 159.254 205.600 158.427 204.438 C 157.610 203.290,157.600 202.943,157.600 175.200 C 157.600 147.457,157.610 147.110,158.427 145.962 L 159.254 144.800 200.152 144.800 L 241.050 144.800 241.925 145.984 M335.725 145.922 L 336.800 147.044 336.800 175.200 L 336.800 203.356 335.725 204.478 L 334.650 205.600 294.000 205.600 L 253.350 205.600 252.275 204.478 L 251.200 203.356 251.200 175.200 L 251.200 147.044 252.275 145.922 L 253.350 144.800 294.000 144.800 L 334.650 144.800 335.725 145.922 M64.078 214.119 L 62.800 215.438 62.800 243.997 L 62.800 272.556 63.875 273.678 L 64.950 274.800 106.400 274.800 L 147.850 274.800 148.925 273.678 L 150.000 272.556 150.000 243.957 L 150.000 215.357 148.681 214.078 L 147.362 212.800 106.359 212.800 L 65.357 212.800 64.078 214.119 M157.900 214.179 L 156.800 215.557 156.813 244.079 L 156.825 272.600 157.793 273.700 L 158.762 274.800 200.106 274.800 L 241.450 274.800 242.525 273.678 L 243.600 272.556 243.588 243.978 L 243.577 215.400 242.394 214.100 L 241.211 212.800 200.106 212.800 L 159.000 212.800 157.900 214.179 M251.678 214.119 L 250.400 215.438 250.400 243.997 L 250.400 272.556 251.475 273.678 L 252.550 274.800 294.000 274.800 L 335.450 274.800 336.525 273.678 L 337.600 272.556 337.600 243.957 L 337.600 215.357 336.281 214.078 L 334.962 212.800 293.959 212.800 L 252.957 212.800 251.678 214.119 M148.125 214.722 L 149.200 215.844 149.200 244.000 L 149.200 272.156 148.125 273.278 L 147.050 274.400 106.400 274.400 L 65.750 274.400 64.675 273.278 L 63.600 272.156 63.600 244.000 L 63.600 215.844 64.675 214.722 L 65.750 213.600 106.400 213.600 L 147.050 213.600 148.125 214.722 M241.925 214.784 L 242.800 215.968 242.800 244.000 L 242.800 272.032 241.925 273.216 L 241.050 274.400 200.152 274.400 L 159.254 274.400 158.427 273.238 C 157.610 272.090,157.600 271.743,157.600 244.000 C 157.600 216.257,157.610 215.910,158.427 214.762 L 159.254 213.600 200.152 213.600 L 241.050 213.600 241.925 214.784 M335.725 214.722 L 336.800 215.844 336.800 244.000 L 336.800 272.156 335.725 273.278 L 334.650 274.400 294.000 274.400 L 253.350 274.400 252.275 273.278 L 251.200 272.156 251.200 244.000 L 251.200 215.844 252.275 214.722 L 253.350 213.600 294.000 213.600 L 334.650 213.600 335.725 214.722 " stroke="none" fill="#302c2c" fill-rule="evenodd"></path></g></svg>