<svg id="svg" version="1.1" width="400" height="400" viewBox="0 0 400 400" xmlns="http://www.w3.org/2000/svg" xmlns:xlink="http://www.w3.org/1999/xlink" ><g id="svgg"><path id="path0" d="M62.400 119.995 C 58.961 120.391,58.463 120.645,58.195 122.139 C 57.675 125.036,58.183 306.971,58.714 307.901 L 59.229 308.801 200.284 308.701 L 341.340 308.600 341.853 306.400 C 342.787 302.395,342.621 122.362,341.682 121.202 C 340.441 119.669,336.200 119.550,290.835 119.770 C 267.386 119.883,246.760 119.937,245.000 119.888 C 240.807 119.773,159.095 119.773,155.200 119.889 C 153.550 119.938,132.580 119.915,108.600 119.837 C 84.620 119.759,63.830 119.830,62.400 119.995 M148.700 121.859 L 150.800 122.111 150.800 141.242 L 150.800 160.373 149.387 161.787 L 147.973 163.200 106.400 163.200 L 64.827 163.200 63.413 161.787 L 62.000 160.373 62.000 141.211 L 62.000 122.048 63.500 121.891 C 66.066 121.623,146.480 121.593,148.700 121.859 M242.300 121.859 L 244.400 122.111 244.400 141.242 L 244.400 160.373 242.987 161.787 L 241.573 163.200 200.115 163.200 L 158.657 163.200 157.328 161.750 L 156.000 160.299 156.000 141.175 L 156.000 122.051 157.300 121.889 C 159.485 121.618,240.055 121.590,242.300 121.859 M336.300 121.859 L 338.400 122.111 338.400 141.242 L 338.400 160.373 336.987 161.787 L 335.573 163.200 294.000 163.200 L 252.427 163.200 251.013 161.787 L 249.600 160.373 249.600 141.211 L 249.600 122.048 251.100 121.891 C 253.666 121.623,334.080 121.593,336.300 121.859 M149.387 169.813 L 150.800 171.227 150.800 200.200 L 150.800 229.173 149.387 230.587 L 147.973 232.000 106.400 232.000 L 64.827 232.000 63.413 230.587 L 62.000 229.173 62.000 200.200 L 62.000 171.227 63.413 169.813 L 64.827 168.400 106.400 168.400 L 147.973 168.400 149.387 169.813 M242.987 169.813 L 244.400 171.227 244.400 200.200 L 244.400 229.173 242.987 230.587 L 241.573 232.000 200.115 232.000 L 158.657 232.000 157.328 230.550 L 156.000 229.099 156.000 200.212 L 156.000 171.325 157.300 169.865 L 158.600 168.404 200.087 168.402 L 241.573 168.400 242.987 169.813 M336.987 169.813 L 338.400 171.227 338.400 200.200 L 338.400 229.173 336.987 230.587 L 335.573 232.000 294.000 232.000 L 252.427 232.000 251.013 230.587 L 249.600 229.173 249.600 200.200 L 249.600 171.227 251.013 169.813 L 252.427 168.400 294.000 168.400 L 335.573 168.400 336.987 169.813 M149.387 238.613 L 150.800 240.027 150.800 269.000 L 150.800 297.973 149.387 299.387 L 147.973 300.800 106.400 300.800 L 64.827 300.800 63.413 299.387 L 62.000 297.973 62.000 269.000 L 62.000 240.027 63.413 238.613 L 64.827 237.200 106.400 237.200 L 147.973 237.200 149.387 238.613 M242.987 238.613 L 244.400 240.027 244.400 269.000 L 244.400 297.973 242.987 299.387 L 241.573 300.800 200.115 300.800 L 158.657 300.800 157.328 299.350 L 156.000 297.899 156.000 269.012 L 156.000 240.125 157.300 238.665 L 158.600 237.204 200.087 237.202 L 241.573 237.200 242.987 238.613 M336.987 238.613 L 338.400 240.027 338.400 269.000 L 338.400 297.973 336.987 299.387 L 335.573 300.800 294.000 300.800 L 252.427 300.800 251.013 299.387 L 249.600 297.973 249.600 269.000 L 249.600 240.027 251.013 238.613 L 252.427 237.200 294.000 237.200 L 335.573 237.200 336.987 238.613 " stroke="none" fill="#3c3c3c" fill-rule="evenodd"></path><path id="path1" d="M16.800 79.200 C 15.536 80.464,15.536 338.736,16.800 340.000 C 17.579 340.779,18.133 340.800,37.777 340.800 L 57.955 340.800 58.577 339.911 C 59.550 338.522,59.512 309.556,58.536 308.749 C 58.171 308.447,57.453 307.300,56.940 306.200 L 56.008 304.200 56.004 212.951 L 56.000 121.703 57.554 119.951 L 59.109 118.200 200.138 118.200 L 341.167 118.200 342.783 119.934 L 344.400 121.667 344.391 212.934 C 344.381 314.363,344.592 306.071,341.966 308.517 C 340.896 309.514,340.928 339.732,342.000 340.409 C 343.372 341.275,382.711 340.889,383.600 340.000 C 384.864 338.736,384.864 80.464,383.600 79.200 C 382.335 77.935,18.065 77.935,16.800 79.200 M373.481 89.678 L 374.800 90.957 374.800 209.559 L 374.800 328.162 373.522 329.481 L 372.243 330.800 362.841 330.800 L 353.438 330.800 352.119 329.522 L 350.800 328.243 350.800 221.535 L 350.800 114.827 349.387 113.413 L 347.973 112.000 200.200 112.000 L 52.427 112.000 51.013 113.413 L 49.600 114.827 49.600 221.494 L 49.600 328.162 48.322 329.481 L 47.043 330.800 37.641 330.800 L 28.238 330.800 26.919 329.522 L 25.600 328.243 25.600 209.641 L 25.600 91.038 26.878 89.719 L 28.157 88.400 200.159 88.400 L 372.162 88.400 373.481 89.678 " stroke="none" fill="#cccccc" fill-rule="evenodd"></path><path id="path2" d="M16.138 79.017 C 15.791 79.921,16.102 79.969,16.900 79.133 C 17.492 78.513,17.506 78.400,16.987 78.400 C 16.651 78.400,16.268 78.678,16.138 79.017 M383.500 79.133 C 384.298 79.969,384.609 79.921,384.262 79.017 C 384.132 78.678,383.749 78.400,383.413 78.400 C 382.894 78.400,382.908 78.513,383.500 79.133 M26.878 89.719 L 25.600 91.038 25.600 209.641 L 25.600 328.243 26.919 329.522 L 28.238 330.800 37.641 330.800 L 47.043 330.800 48.322 329.481 L 49.600 328.162 49.600 221.494 L 49.600 114.827 51.013 113.413 L 52.427 112.000 200.200 112.000 L 347.973 112.000 349.387 113.413 L 350.800 114.827 350.800 221.535 L 350.800 328.243 352.119 329.522 L 353.438 330.800 362.841 330.800 L 372.243 330.800 373.522 329.481 L 374.800 328.162 374.800 209.559 L 374.800 90.957 373.481 89.678 L 372.162 88.400 200.159 88.400 L 28.157 88.400 26.878 89.719 M16.000 339.813 C 16.000 340.149,16.278 340.532,16.617 340.662 C 17.521 341.009,17.569 340.698,16.733 339.900 C 16.113 339.308,16.000 339.294,16.000 339.813 M58.481 340.018 C 58.172 340.513,58.146 340.800,58.409 340.800 C 58.638 340.800,58.932 340.522,59.062 340.183 C 59.422 339.245,59.033 339.134,58.481 340.018 M383.500 340.067 C 382.908 340.687,382.894 340.800,383.413 340.800 C 383.749 340.800,384.132 340.522,384.262 340.183 C 384.609 339.279,384.298 339.231,383.500 340.067 " stroke="none" fill="#f4f4f4" fill-rule="evenodd"></path><path id="path3" d="M63.600 140.725 L 63.600 159.450 64.722 160.525 L 65.844 161.600 106.447 161.600 L 147.050 161.600 148.125 160.478 L 149.200 159.356 149.200 140.678 L 149.200 122.000 106.400 122.000 L 63.600 122.000 63.600 140.725 M157.600 140.638 C 157.600 158.840,157.619 159.304,158.427 160.438 L 159.254 161.600 200.152 161.600 L 241.050 161.600 241.925 160.416 C 242.796 159.238,242.800 159.138,242.800 140.616 L 242.800 122.000 200.200 122.000 L 157.600 122.000 157.600 140.638 M251.200 140.725 L 251.200 159.450 252.322 160.525 L 253.444 161.600 294.047 161.600 L 334.650 161.600 335.725 160.478 L 336.800 159.356 336.800 140.678 L 336.800 122.000 294.000 122.000 L 251.200 122.000 251.200 140.725 M64.675 171.122 L 63.600 172.244 63.600 200.200 L 63.600 228.156 64.675 229.278 L 65.750 230.400 106.400 230.400 L 147.050 230.400 148.125 229.278 L 149.200 228.156 149.200 200.200 L 149.200 172.244 148.125 171.122 L 147.050 170.000 106.400 170.000 L 65.750 170.000 64.675 171.122 M158.427 171.162 C 157.127 172.988,157.127 227.412,158.427 229.238 L 159.254 230.400 200.152 230.400 L 241.050 230.400 241.925 229.216 L 242.800 228.032 242.800 200.200 L 242.800 172.368 241.925 171.184 L 241.050 170.000 200.152 170.000 L 159.254 170.000 158.427 171.162 M252.275 171.122 L 251.200 172.244 251.200 200.200 L 251.200 228.156 252.275 229.278 L 253.350 230.400 294.000 230.400 L 334.650 230.400 335.725 229.278 L 336.800 228.156 336.800 200.200 L 336.800 172.244 335.725 171.122 L 334.650 170.000 294.000 170.000 L 253.350 170.000 252.275 171.122 M64.675 239.922 L 63.600 241.044 63.600 269.000 L 63.600 296.956 64.675 298.078 L 65.750 299.200 106.400 299.200 L 147.050 299.200 148.125 298.078 L 149.200 296.956 149.200 269.000 L 149.200 241.044 148.125 239.922 L 147.050 238.800 106.400 238.800 L 65.750 238.800 64.675 239.922 M158.427 239.962 C 157.610 241.110,157.600 241.459,157.600 269.000 C 157.600 296.541,157.610 296.890,158.427 298.038 L 159.254 299.200 200.152 299.200 L 241.050 299.200 241.925 298.016 L 242.800 296.832 242.800 269.000 L 242.800 241.168 241.925 239.984 L 241.050 238.800 200.152 238.800 L 159.254 238.800 158.427 239.962 M252.275 239.922 L 251.200 241.044 251.200 269.000 L 251.200 296.956 252.275 298.078 L 253.350 299.200 294.000 299.200 L 334.650 299.200 335.725 298.078 L 336.800 296.956 336.800 269.000 L 336.800 241.044 335.725 239.922 L 334.650 238.800 294.000 238.800 L 253.350 238.800 252.275 239.922 M129.468 309.100 C 168.225 309.156,231.765 309.156,270.668 309.100 C 309.570 309.044,277.860 308.998,200.200 308.998 C 122.540 308.998,90.710 309.044,129.468 309.100 " stroke="none" fill="#2c2c2c" fill-rule="evenodd"></path><path id="path4" d="M61.114 118.298 C 59.003 118.428,58.721 118.565,57.414 120.092 L 56.000 121.744 56.004 212.972 L 56.008 304.200 56.940 306.200 C 57.876 308.206,59.745 310.362,59.021 308.600 C 58.840 308.160,58.547 306.990,58.370 306.000 C 58.004 303.954,57.883 123.075,58.248 121.717 C 58.787 119.707,62.937 119.625,153.000 119.842 C 155.640 119.848,176.700 119.841,199.800 119.827 C 222.900 119.812,243.240 119.840,245.000 119.888 C 246.760 119.937,267.386 119.883,290.835 119.770 C 336.200 119.550,340.441 119.669,341.682 121.202 C 342.483 122.191,342.830 302.507,342.037 305.600 C 341.085 309.313,341.084 309.339,341.965 308.519 C 344.592 306.071,344.381 314.368,344.391 212.934 L 344.400 121.667 342.784 119.934 L 341.167 118.200 202.284 118.179 C 125.898 118.167,62.372 118.221,61.114 118.298 " stroke="none" fill="#5c3094" fill-rule="evenodd"></path><path id="path5" d="" stroke="none" fill="#60302c" fill-rule="evenodd"></path><path id="path6" d="M85.500 121.900 C 96.995 121.959,115.805 121.959,127.300 121.900 C 138.795 121.841,129.390 121.793,106.400 121.793 C 83.410 121.793,74.005 121.841,85.500 121.900 M179.100 121.900 C 190.595 121.959,209.405 121.959,220.900 121.900 C 232.395 121.841,222.990 121.793,200.000 121.793 C 177.010 121.793,167.605 121.841,179.100 121.900 M273.100 121.900 C 284.595 121.959,303.405 121.959,314.900 121.900 C 326.395 121.841,316.990 121.793,294.000 121.793 C 271.010 121.793,261.605 121.841,273.100 121.900 M62.000 141.187 L 62.000 160.373 63.413 161.787 L 64.827 163.200 106.400 163.200 L 147.973 163.200 149.387 161.787 L 150.800 160.373 150.800 141.187 C 150.800 128.662,150.661 122.000,150.400 122.000 C 150.139 122.000,150.000 128.574,150.000 140.922 L 150.000 159.843 148.681 161.122 L 147.362 162.400 106.359 162.400 L 65.357 162.400 64.078 161.081 L 62.800 159.762 62.800 140.881 C 62.800 128.560,62.661 122.000,62.400 122.000 C 62.139 122.000,62.000 128.662,62.000 141.187 M156.000 141.150 L 156.000 160.299 157.328 161.750 L 158.657 163.200 200.115 163.200 L 241.573 163.200 242.987 161.787 L 244.400 160.373 244.400 141.187 C 244.400 128.662,244.261 122.000,244.000 122.000 C 243.739 122.000,243.596 128.574,243.588 140.900 L 243.577 159.800 242.394 161.100 L 241.211 162.400 200.106 162.400 L 159.000 162.400 157.900 161.021 L 156.800 159.643 156.800 140.821 C 156.800 128.540,156.661 122.000,156.400 122.000 C 156.139 122.000,156.000 128.650,156.000 141.150 M249.600 141.187 L 249.600 160.373 251.013 161.787 L 252.427 163.200 294.000 163.200 L 335.573 163.200 336.987 161.787 L 338.400 160.373 338.400 141.187 C 338.400 128.662,338.261 122.000,338.000 122.000 C 337.739 122.000,337.600 128.574,337.600 140.922 L 337.600 159.843 336.281 161.122 L 334.962 162.400 293.959 162.400 L 252.957 162.400 251.678 161.081 L 250.400 159.762 250.400 140.881 C 250.400 128.560,250.261 122.000,250.000 122.000 C 249.739 122.000,249.600 128.662,249.600 141.187 M63.413 169.813 L 62.000 171.227 62.000 200.200 L 62.000 229.173 63.413 230.587 L 64.827 232.000 106.400 232.000 L 147.973 232.000 149.387 230.587 L 150.800 229.173 150.800 200.200 L 150.800 171.227 149.387 169.813 L 147.973 168.400 106.400 168.400 L 64.827 168.400 63.413 169.813 M157.300 169.865 L 156.000 171.325 156.000 200.212 L 156.000 229.099 157.328 230.550 L 158.657 232.000 200.115 232.000 L 241.573 232.000 242.987 230.587 L 244.400 229.173 244.400 200.200 L 244.400 171.227 242.987 169.813 L 241.573 168.400 200.087 168.402 L 158.600 168.404 157.300 169.865 M251.013 169.813 L 249.600 171.227 249.600 200.200 L 249.600 229.173 251.013 230.587 L 252.427 232.000 294.000 232.000 L 335.573 232.000 336.987 230.587 L 338.400 229.173 338.400 200.200 L 338.400 171.227 336.987 169.813 L 335.573 168.400 294.000 168.400 L 252.427 168.400 251.013 169.813 M148.681 170.478 L 150.000 171.757 150.000 200.159 L 150.000 228.562 148.722 229.881 L 147.443 231.200 106.441 231.200 L 65.438 231.200 64.119 229.922 L 62.800 228.643 62.800 200.241 L 62.800 171.838 64.078 170.519 L 65.357 169.200 106.359 169.200 L 147.362 169.200 148.681 170.478 M242.394 170.500 L 243.577 171.800 243.577 200.200 L 243.577 228.600 242.394 229.900 L 241.211 231.200 200.106 231.200 L 159.000 231.200 157.900 229.821 L 156.800 228.443 156.800 200.200 L 156.800 171.957 157.900 170.579 L 159.000 169.200 200.106 169.200 L 241.211 169.200 242.394 170.500 M336.281 170.478 L 337.600 171.757 337.600 200.159 L 337.600 228.562 336.322 229.881 L 335.043 231.200 294.041 231.200 L 253.038 231.200 251.719 229.922 L 250.400 228.643 250.400 200.241 L 250.400 171.838 251.678 170.519 L 252.957 169.200 293.959 169.200 L 334.962 169.200 336.281 170.478 M63.413 238.613 L 62.000 240.027 62.000 269.000 L 62.000 297.973 63.413 299.387 L 64.827 300.800 106.400 300.800 L 147.973 300.800 149.387 299.387 L 150.800 297.973 150.800 269.000 L 150.800 240.027 149.387 238.613 L 147.973 237.200 106.400 237.200 L 64.827 237.200 63.413 238.613 M157.300 238.665 L 156.000 240.125 156.000 269.012 L 156.000 297.899 157.328 299.350 L 158.657 300.800 200.115 300.800 L 241.573 300.800 242.987 299.387 L 244.400 297.973 244.400 269.000 L 244.400 240.027 242.987 238.613 L 241.573 237.200 200.087 237.202 L 158.600 237.204 157.300 238.665 M251.013 238.613 L 249.600 240.027 249.600 269.000 L 249.600 297.973 251.013 299.387 L 252.427 300.800 294.000 300.800 L 335.573 300.800 336.987 299.387 L 338.400 297.973 338.400 269.000 L 338.400 240.027 336.987 238.613 L 335.573 237.200 294.000 237.200 L 252.427 237.200 251.013 238.613 M148.681 239.278 L 150.000 240.557 150.000 268.959 L 150.000 297.362 148.722 298.681 L 147.443 300.000 106.441 300.000 L 65.438 300.000 64.119 298.722 L 62.800 297.443 62.800 269.041 L 62.800 240.638 64.078 239.319 L 65.357 238.000 106.359 238.000 L 147.362 238.000 148.681 239.278 M242.394 239.300 L 243.577 240.600 243.577 269.000 L 243.577 297.400 242.394 298.700 L 241.211 300.000 200.106 300.000 L 159.000 300.000 157.900 298.621 L 156.800 297.243 156.800 269.000 L 156.800 240.757 157.900 239.379 L 159.000 238.000 200.106 238.000 L 241.211 238.000 242.394 239.300 M336.281 239.278 L 337.600 240.557 337.600 268.959 L 337.600 297.362 336.322 298.681 L 335.043 300.000 294.041 300.000 L 253.038 300.000 251.719 298.722 L 250.400 297.443 250.400 269.041 L 250.400 240.638 251.678 239.319 L 252.957 238.000 293.959 238.000 L 334.962 238.000 336.281 239.278 " stroke="none" fill="#2c342c" fill-rule="evenodd"></path><path id="path7" d="M62.800 140.922 L 62.800 159.843 64.119 161.122 L 65.438 162.400 106.441 162.400 L 147.443 162.400 148.722 161.081 L 150.000 159.762 150.000 140.881 C 150.000 128.560,149.861 122.000,149.600 122.000 C 149.339 122.000,149.200 128.493,149.200 140.678 L 149.200 159.356 148.125 160.478 L 147.050 161.600 106.447 161.600 L 65.844 161.600 64.722 160.525 L 63.600 159.450 63.600 140.725 C 63.600 128.508,63.461 122.000,63.200 122.000 C 62.939 122.000,62.800 128.574,62.800 140.922 M156.800 140.821 L 156.800 159.643 157.900 161.021 L 159.000 162.400 200.106 162.400 L 241.211 162.400 242.394 161.100 L 243.577 159.800 243.588 140.900 C 243.596 128.559,243.461 122.000,243.200 122.000 C 242.939 122.000,242.800 128.472,242.800 140.616 C 242.800 159.138,242.796 159.238,241.925 160.416 L 241.050 161.600 200.152 161.600 L 159.254 161.600 158.427 160.438 C 157.619 159.304,157.600 158.840,157.600 140.638 C 157.600 128.479,157.461 122.000,157.200 122.000 C 156.939 122.000,156.800 128.540,156.800 140.821 M250.400 140.922 L 250.400 159.843 251.719 161.122 L 253.038 162.400 294.041 162.400 L 335.043 162.400 336.322 161.081 L 337.600 159.762 337.600 140.881 C 337.600 128.560,337.461 122.000,337.200 122.000 C 336.939 122.000,336.800 128.493,336.800 140.678 L 336.800 159.356 335.725 160.478 L 334.650 161.600 294.047 161.600 L 253.444 161.600 252.322 160.525 L 251.200 159.450 251.200 140.725 C 251.200 128.508,251.061 122.000,250.800 122.000 C 250.539 122.000,250.400 128.574,250.400 140.922 M64.078 170.519 L 62.800 171.838 62.800 200.241 L 62.800 228.643 64.119 229.922 L 65.438 231.200 106.441 231.200 L 147.443 231.200 148.722 229.881 L 150.000 228.562 150.000 200.159 L 150.000 171.757 148.681 170.478 L 147.362 169.200 106.359 169.200 L 65.357 169.200 64.078 170.519 M157.900 170.579 L 156.800 171.957 156.800 200.200 L 156.800 228.443 157.900 229.821 L 159.000 231.200 200.106 231.200 L 241.211 231.200 242.394 229.900 L 243.577 228.600 243.577 200.200 L 243.577 171.800 242.394 170.500 L 241.211 169.200 200.106 169.200 L 159.000 169.200 157.900 170.579 M251.678 170.519 L 250.400 171.838 250.400 200.241 L 250.400 228.643 251.719 229.922 L 253.038 231.200 294.041 231.200 L 335.043 231.200 336.322 229.881 L 337.600 228.562 337.600 200.159 L 337.600 171.757 336.281 170.478 L 334.962 169.200 293.959 169.200 L 252.957 169.200 251.678 170.519 M148.125 171.122 L 149.200 172.244 149.200 200.200 L 149.200 228.156 148.125 229.278 L 147.050 230.400 106.400 230.400 L 65.750 230.400 64.675 229.278 L 63.600 228.156 63.600 200.200 L 63.600 172.244 64.675 171.122 L 65.750 170.000 106.400 170.000 L 147.050 170.000 148.125 171.122 M241.925 171.184 L 242.800 172.368 242.800 200.200 L 242.800 228.032 241.925 229.216 L 241.050 230.400 200.152 230.400 L 159.254 230.400 158.427 229.238 C 157.610 228.090,157.600 227.741,157.600 200.200 C 157.600 172.659,157.610 172.310,158.427 171.162 L 159.254 170.000 200.152 170.000 L 241.050 170.000 241.925 171.184 M335.725 171.122 L 336.800 172.244 336.800 200.200 L 336.800 228.156 335.725 229.278 L 334.650 230.400 294.000 230.400 L 253.350 230.400 252.275 229.278 L 251.200 228.156 251.200 200.200 L 251.200 172.244 252.275 171.122 L 253.350 170.000 294.000 170.000 L 334.650 170.000 335.725 171.122 M64.078 239.319 L 62.800 240.638 62.800 269.041 L 62.800 297.443 64.119 298.722 L 65.438 300.000 106.441 300.000 L 147.443 300.000 148.722 298.681 L 150.000 297.362 150.000 268.959 L 150.000 240.557 148.681 239.278 L 147.362 238.000 106.359 238.000 L 65.357 238.000 64.078 239.319 M157.900 239.379 L 156.800 240.757 156.800 269.000 L 156.800 297.243 157.900 298.621 L 159.000 300.000 200.106 300.000 L 241.211 300.000 242.394 298.700 L 243.577 297.400 243.577 269.000 L 243.577 240.600 242.394 239.300 L 241.211 238.000 200.106 238.000 L 159.000 238.000 157.900 239.379 M251.678 239.319 L 250.400 240.638 250.400 269.041 L 250.400 297.443 251.719 298.722 L 253.038 300.000 294.041 300.000 L 335.043 300.000 336.322 298.681 L 337.600 297.362 337.600 268.959 L 337.600 240.557 336.281 239.278 L 334.962 238.000 293.959 238.000 L 252.957 238.000 251.678 239.319 M148.125 239.922 L 149.200 241.044 149.200 269.000 L 149.200 296.956 148.125 298.078 L 147.050 299.200 106.400 299.200 L 65.750 299.200 64.675 298.078 L 63.600 296.956 63.600 269.000 L 63.600 241.044 64.675 239.922 L 65.750 238.800 106.400 238.800 L 147.050 238.800 148.125 239.922 M241.925 239.984 L 242.800 241.168 242.800 269.000 L 242.800 296.832 241.925 298.016 L 241.050 299.200 200.152 299.200 L 159.254 299.200 158.427 298.038 C 157.610 296.890,157.600 296.541,157.600 269.000 C 157.600 241.459,157.610 241.110,158.427 239.962 L 159.254 238.800 200.152 238.800 L 241.050 238.800 241.925 239.984 M335.725 239.922 L 336.800 241.044 336.800 269.000 L 336.800 296.956 335.725 298.078 L 334.650 299.200 294.000 299.200 L 253.350 299.200 252.275 298.078 L 251.200 296.956 251.200 269.000 L 251.200 241.044 252.275 239.922 L 253.350 238.800 294.000 238.800 L 334.650 238.800 335.725 239.922 " stroke="none" fill="#302c2c" fill-rule="evenodd"></path><path id="path8" d="M62.800 140.922 L 62.800 159.843 64.119 161.122 L 65.438 162.400 106.441 162.400 L 147.443 162.400 148.722 161.081 L 150.000 159.762 150.000 140.881 C 150.000 128.560,149.861 122.000,149.600 122.000 C 149.339 122.000,149.200 128.493,149.200 140.678 L 149.200 159.356 148.125 160.478 L 147.050 161.600 106.447 161.600 L 65.844 161.600 64.722 160.525 L 63.600 159.450 63.600 140.725 C 63.600 128.508,63.461 122.000,63.200 122.000 C 62.939 122.000,62.800 128.574,62.800 140.922 M156.800 140.821 L 156.800 159.643 157.900 161.021 L 159.000 162.400 200.106 162.400 L 241.211 162.400 242.394 161.100 L 243.577 159.800 243.588 140.900 C 243.596 128.559,243.461 122.000,243.200 122.000 C 242.939 122.000,242.800 128.472,242.800 140.616 C 242.800 159.138,242.796 159.238,241.925 160.416 L 241.050 161.600 200.152 161.600 L 159.254 161.600 158.427 160.438 C 157.619 159.304,157.600 158.840,157.600 140.638 C 157.600 128.479,157.461 122.000,157.200 122.000 C 156.939 122.000,156.800 128.540,156.800 140.821 M250.400 140.922 L 250.400 159.843 251.719 161.122 L 253.038 162.400 294.041 162.400 L 335.043 162.400 336.322 161.081 L 337.600 159.762 337.600 140.881 C 337.600 128.560,337.461 122.000,337.200 122.000 C 336.939 122.000,336.800 128.493,336.800 140.678 L 336.800 159.356 335.725 160.478 L 334.650 161.600 294.047 161.600 L 253.444 161.600 252.322 160.525 L 251.200 159.450 251.200 140.725 C 251.200 128.508,251.061 122.000,250.800 122.000 C 250.539 122.000,250.400 128.574,250.400 140.922 M64.078 170.519 L 62.800 171.838 62.800 200.241 L 62.800 228.643 64.119 229.922 L 65.438 231.200 106.441 231.200 L 147.443 231.200 148.722 229.881 L 150.000 228.562 150.000 200.159 L 150.000 171.757 148.681 170.478 L 147.362 169.200 106.359 169.200 L 65.357 169.200 64.078 170.519 M157.900 170.579 L 156.800 171.957 156.800 200.200 L 156.800 228.443 157.900 229.821 L 159.000 231.200 200.106 231.200 L 241.211 231.200 242.394 229.900 L 243.577 228.600 243.577 200.200 L 243.577 171.800 242.394 170.500 L 241.211 169.200 200.106 169.200 L 159.000 169.200 157.900 170.579 M251.678 170.519 L 250.400 171.838 250.400 200.241 L 250.400 228.643 251.719 229.922 L 253.038 231.200 294.041 231.200 L 335.043 231.200 336.322 229.881 L 337.600 228.562 337.600 200.159 L 337.600 171.757 336.281 170.478 L 334.962 169.200 293.959 169.200 L 252.957 169.200 251.678 170.519 M148.125 171.122 L 149.200 172.244 149.200 200.200 L 149.200 228.156 148.125 229.278 L 147.050 230.400 106.400 230.400 L 65.750 230.400 64.675 229.278 L 63.600 228.156 63.600 200.200 L 63.600 172.244 64.675 171.122 L 65.750 170.000 106.400 170.000 L 147.050 170.000 148.125 171.122 M241.925 171.184 L 242.800 172.368 242.800 200.200 L 242.800 228.032 241.925 229.216 L 241.050 230.400 200.152 230.400 L 159.254 230.400 158.427 229.238 C 157.610 228.090,157.600 227.741,157.600 200.200 C 157.600 172.659,157.610 172.310,158.427 171.162 L 159.254 170.000 200.152 170.000 L 241.050 170.000 241.925 171.184 M335.725 171.122 L 336.800 172.244 336.800 200.200 L 336.800 228.156 335.725 229.278 L 334.650 230.400 294.000 230.400 L 253.350 230.400 252.275 229.278 L 251.200 228.156 251.200 200.200 L 251.200 172.244 252.275 171.122 L 253.350 170.000 294.000 170.000 L 334.650 170.000 335.725 171.122 M64.078 239.319 L 62.800 240.638 62.800 269.041 L 62.800 297.443 64.119 298.722 L 65.438 300.000 106.441 300.000 L 147.443 300.000 148.722 298.681 L 150.000 297.362 150.000 268.959 L 150.000 240.557 148.681 239.278 L 147.362 238.000 106.359 238.000 L 65.357 238.000 64.078 239.319 M157.900 239.379 L 156.800 240.757 156.800 269.000 L 156.800 297.243 157.900 298.621 L 159.000 300.000 200.106 300.000 L 241.211 300.000 242.394 298.700 L 243.577 297.400 243.577 269.000 L 243.577 240.600 242.394 239.300 L 241.211 238.000 200.106 238.000 L 159.000 238.000 157.900 239.379 M251.678 239.319 L 250.400 240.638 250.400 269.041 L 250.400 297.443 251.719 298.722 L 253.038 300.000 294.041 300.000 L 335.043 300.000 336.322 298.681 L 337.600 297.362 337.600 268.959 L 337.600 240.557 336.281 239.278 L 334.962 238.000 293.959 238.000 L 252.957 238.000 251.678 239.319 M148.125 239.922 L 149.200 241.044 149.200 269.000 L 149.200 296.956 148.125 298.078 L 147.050 299.200 106.400 299.200 L 65.750 299.200 64.675 298.078 L 63.600 296.956 63.600 269.000 L 63.600 241.044 64.675 239.922 L 65.750 238.800 106.400 238.800 L 147.050 238.800 148.125 239.922 M241.925 239.984 L 242.800 241.168 242.800 269.000 L 242.800 296.832 241.925 298.016 L 241.050 299.200 200.152 299.200 L 159.254 299.200 158.427 298.038 C 157.610 296.890,157.600 296.541,157.600 269.000 C 157.600 241.459,157.610 241.110,158.427 239.962 L 159.254 238.800 200.152 238.800 L 241.050 238.800 241.925 239.984 M335.725 239.922 L 336.800 241.044 336.800 269.000 L 336.800 296.956 335.725 298.078 L 334.650 299.200 294.000 299.200 L 253.350 299.200 252.275 298.078 L 251.200 296.956 251.200 269.000 L 251.200 241.044 252.275 239.922 L 253.350 238.800 294.000 238.800 L 334.650 238.800 335.725 239.922 " stroke="none" fill="#302c2c" fill-rule="evenodd"></path></g></svg>