<svg id="svg" version="1.1" width="400" height="400" viewBox="0 0 400 400" xmlns="http://www.w3.org/2000/svg" xmlns:xlink="http://www.w3.org/1999/xlink" ><g id="svgg"><path id="path0" d="M16.138 79.017 C 15.791 79.921,16.102 79.969,16.900 79.133 C 17.492 78.513,17.506 78.400,16.987 78.400 C 16.651 78.400,16.268 78.678,16.138 79.017 M383.500 79.133 C 384.298 79.969,384.609 79.921,384.262 79.017 C 384.132 78.678,383.749 78.400,383.413 78.400 C 382.894 78.400,382.908 78.513,383.500 79.133 M27.680 90.480 C 26.981 91.179,26.981 328.021,27.680 328.720 C 28.362 329.402,46.838 329.402,47.520 328.720 C 47.891 328.349,48.000 303.968,48.001 221.420 C 48.001 101.912,47.729 112.635,50.800 111.101 C 52.977 110.013,347.423 110.013,349.600 111.101 C 352.671 112.635,352.399 101.912,352.399 221.420 C 352.400 303.968,352.509 328.349,352.880 328.720 C 353.562 329.402,372.038 329.402,372.720 328.720 C 373.419 328.021,373.419 91.179,372.720 90.480 C 372.020 89.780,28.380 89.780,27.680 90.480 M16.000 339.813 C 16.000 340.149,16.278 340.532,16.617 340.662 C 17.521 341.009,17.569 340.698,16.733 339.900 C 16.113 339.308,16.000 339.294,16.000 339.813 M58.481 340.018 C 58.172 340.513,58.146 340.800,58.409 340.800 C 58.638 340.800,58.932 340.522,59.062 340.183 C 59.422 339.245,59.033 339.134,58.481 340.018 M383.500 340.067 C 382.908 340.687,382.894 340.800,383.413 340.800 C 383.749 340.800,384.132 340.522,384.262 340.183 C 384.609 339.279,384.298 339.231,383.500 340.067 " stroke="none" fill="#f4f4f4" fill-rule="evenodd"></path><path id="path1" d="M16.800 79.200 C 15.545 80.455,15.539 338.739,16.794 339.994 C 17.561 340.761,18.193 340.785,37.788 340.785 L 57.991 340.785 58.625 339.818 C 58.974 339.286,59.225 338.524,59.183 338.125 C 59.142 337.726,59.129 288.935,59.154 229.700 L 59.200 122.000 200.200 122.000 L 341.200 122.000 341.246 229.700 C 341.271 288.935,341.258 337.726,341.217 338.124 C 341.175 338.522,341.357 339.107,341.620 339.424 C 341.883 339.741,341.941 340.003,341.749 340.006 C 341.557 340.009,341.670 340.185,342.000 340.396 C 343.351 341.259,382.721 340.879,383.606 339.994 C 384.861 338.739,384.855 80.455,383.600 79.200 C 382.805 78.405,382.108 78.402,200.200 78.402 C 18.292 78.402,17.595 78.405,16.800 79.200 M373.881 89.278 L 375.200 90.557 375.200 209.559 L 375.200 328.562 373.922 329.881 L 372.643 331.200 362.841 331.200 L 353.038 331.200 351.719 329.922 L 350.400 328.643 350.400 222.074 L 350.400 115.506 348.847 113.953 L 347.294 112.400 200.200 112.400 L 53.106 112.400 51.553 113.953 L 50.000 115.506 50.000 222.034 L 50.000 328.562 48.722 329.881 L 47.443 331.200 37.641 331.200 L 27.838 331.200 26.519 329.922 L 25.200 328.643 25.200 209.641 L 25.200 90.638 26.478 89.319 L 27.757 88.000 200.159 88.000 L 372.562 88.000 373.881 89.278 " stroke="none" fill="#cccccc" fill-rule="evenodd"></path><path id="path2" d="M26.478 89.319 L 25.200 90.638 25.200 209.641 L 25.200 328.643 26.519 329.922 L 27.838 331.200 37.641 331.200 L 47.443 331.200 48.722 329.881 L 50.000 328.562 50.000 222.034 L 50.000 115.506 51.553 113.953 L 53.106 112.400 200.200 112.400 L 347.294 112.400 348.847 113.953 L 350.400 115.506 350.400 222.074 L 350.400 328.643 351.719 329.922 L 353.038 331.200 362.841 331.200 L 372.643 331.200 373.922 329.881 L 375.200 328.562 375.200 209.559 L 375.200 90.557 373.881 89.278 L 372.562 88.000 200.159 88.000 L 27.757 88.000 26.478 89.319 M372.720 90.480 C 373.419 91.179,373.419 328.021,372.720 328.720 C 372.038 329.402,353.562 329.402,352.880 328.720 C 352.509 328.349,352.400 303.968,352.399 221.420 C 352.399 101.912,352.671 112.635,349.600 111.101 C 347.423 110.013,52.977 110.013,50.800 111.101 C 47.729 112.635,48.001 101.912,48.001 221.420 C 48.000 303.968,47.891 328.349,47.520 328.720 C 46.838 329.402,28.362 329.402,27.680 328.720 C 26.981 328.021,26.981 91.179,27.680 90.480 C 28.380 89.780,372.020 89.780,372.720 90.480 " stroke="none" fill="#e8f8e0" fill-rule="evenodd"></path><path id="path3" d="M26.478 89.319 L 25.200 90.638 25.200 209.641 L 25.200 328.643 26.519 329.922 L 27.838 331.200 37.641 331.200 L 47.443 331.200 48.722 329.881 L 50.000 328.562 50.000 222.034 L 50.000 115.506 51.553 113.953 L 53.106 112.400 200.200 112.400 L 347.294 112.400 348.847 113.953 L 350.400 115.506 350.400 222.074 L 350.400 328.643 351.719 329.922 L 353.038 331.200 362.841 331.200 L 372.643 331.200 373.922 329.881 L 375.200 328.562 375.200 209.559 L 375.200 90.557 373.881 89.278 L 372.562 88.000 200.159 88.000 L 27.757 88.000 26.478 89.319 M372.720 90.480 C 373.419 91.179,373.419 328.021,372.720 328.720 C 372.038 329.402,353.562 329.402,352.880 328.720 C 352.509 328.349,352.400 303.968,352.399 221.420 C 352.399 101.912,352.671 112.635,349.600 111.101 C 347.423 110.013,52.977 110.013,50.800 111.101 C 47.729 112.635,48.001 101.912,48.001 221.420 C 48.000 303.968,47.891 328.349,47.520 328.720 C 46.838 329.402,28.362 329.402,27.680 328.720 C 26.981 328.021,26.981 91.179,27.680 90.480 C 28.380 89.780,372.020 89.780,372.720 90.480 " stroke="none" fill="#e8f8e0" fill-rule="evenodd"></path><path id="path4" d="M26.478 89.319 L 25.200 90.638 25.200 209.641 L 25.200 328.643 26.519 329.922 L 27.838 331.200 37.641 331.200 L 47.443 331.200 48.722 329.881 L 50.000 328.562 50.000 222.034 L 50.000 115.506 51.553 113.953 L 53.106 112.400 200.200 112.400 L 347.294 112.400 348.847 113.953 L 350.400 115.506 350.400 222.074 L 350.400 328.643 351.719 329.922 L 353.038 331.200 362.841 331.200 L 372.643 331.200 373.922 329.881 L 375.200 328.562 375.200 209.559 L 375.200 90.557 373.881 89.278 L 372.562 88.000 200.159 88.000 L 27.757 88.000 26.478 89.319 M372.720 90.480 C 373.419 91.179,373.419 328.021,372.720 328.720 C 372.038 329.402,353.562 329.402,352.880 328.720 C 352.509 328.349,352.400 303.968,352.399 221.420 C 352.399 101.912,352.671 112.635,349.600 111.101 C 347.423 110.013,52.977 110.013,50.800 111.101 C 47.729 112.635,48.001 101.912,48.001 221.420 C 48.000 303.968,47.891 328.349,47.520 328.720 C 46.838 329.402,28.362 329.402,27.680 328.720 C 26.981 328.021,26.981 91.179,27.680 90.480 C 28.380 89.780,372.020 89.780,372.720 90.480 " stroke="none" fill="#e8f8e0" fill-rule="evenodd"></path><path id="path5" d="M26.478 89.319 L 25.200 90.638 25.200 209.641 L 25.200 328.643 26.519 329.922 L 27.838 331.200 37.641 331.200 L 47.443 331.200 48.722 329.881 L 50.000 328.562 50.000 222.034 L 50.000 115.506 51.553 113.953 L 53.106 112.400 200.200 112.400 L 347.294 112.400 348.847 113.953 L 350.400 115.506 350.400 222.074 L 350.400 328.643 351.719 329.922 L 353.038 331.200 362.841 331.200 L 372.643 331.200 373.922 329.881 L 375.200 328.562 375.200 209.559 L 375.200 90.557 373.881 89.278 L 372.562 88.000 200.159 88.000 L 27.757 88.000 26.478 89.319 M372.720 90.480 C 373.419 91.179,373.419 328.021,372.720 328.720 C 372.038 329.402,353.562 329.402,352.880 328.720 C 352.509 328.349,352.400 303.968,352.399 221.420 C 352.399 101.912,352.671 112.635,349.600 111.101 C 347.423 110.013,52.977 110.013,50.800 111.101 C 47.729 112.635,48.001 101.912,48.001 221.420 C 48.000 303.968,47.891 328.349,47.520 328.720 C 46.838 329.402,28.362 329.402,27.680 328.720 C 26.981 328.021,26.981 91.179,27.680 90.480 C 28.380 89.780,372.020 89.780,372.720 90.480 " stroke="none" fill="#e8f8e0" fill-rule="evenodd"></path><path id="path6" d="M26.478 89.319 L 25.200 90.638 25.200 209.641 L 25.200 328.643 26.519 329.922 L 27.838 331.200 37.641 331.200 L 47.443 331.200 48.722 329.881 L 50.000 328.562 50.000 222.034 L 50.000 115.506 51.553 113.953 L 53.106 112.400 200.200 112.400 L 347.294 112.400 348.847 113.953 L 350.400 115.506 350.400 222.074 L 350.400 328.643 351.719 329.922 L 353.038 331.200 362.841 331.200 L 372.643 331.200 373.922 329.881 L 375.200 328.562 375.200 209.559 L 375.200 90.557 373.881 89.278 L 372.562 88.000 200.159 88.000 L 27.757 88.000 26.478 89.319 M372.720 90.480 C 373.419 91.179,373.419 328.021,372.720 328.720 C 372.038 329.402,353.562 329.402,352.880 328.720 C 352.509 328.349,352.400 303.968,352.399 221.420 C 352.399 101.912,352.671 112.635,349.600 111.101 C 347.423 110.013,52.977 110.013,50.800 111.101 C 47.729 112.635,48.001 101.912,48.001 221.420 C 48.000 303.968,47.891 328.349,47.520 328.720 C 46.838 329.402,28.362 329.402,27.680 328.720 C 26.981 328.021,26.981 91.179,27.680 90.480 C 28.380 89.780,372.020 89.780,372.720 90.480 " stroke="none" fill="#e8f8e0" fill-rule="evenodd"></path><path id="path7" d="M26.478 89.319 L 25.200 90.638 25.200 209.641 L 25.200 328.643 26.519 329.922 L 27.838 331.200 37.641 331.200 L 47.443 331.200 48.722 329.881 L 50.000 328.562 50.000 222.034 L 50.000 115.506 51.553 113.953 L 53.106 112.400 200.200 112.400 L 347.294 112.400 348.847 113.953 L 350.400 115.506 350.400 222.074 L 350.400 328.643 351.719 329.922 L 353.038 331.200 362.841 331.200 L 372.643 331.200 373.922 329.881 L 375.200 328.562 375.200 209.559 L 375.200 90.557 373.881 89.278 L 372.562 88.000 200.159 88.000 L 27.757 88.000 26.478 89.319 M372.720 90.480 C 373.419 91.179,373.419 328.021,372.720 328.720 C 372.038 329.402,353.562 329.402,352.880 328.720 C 352.509 328.349,352.400 303.968,352.399 221.420 C 352.399 101.912,352.671 112.635,349.600 111.101 C 347.423 110.013,52.977 110.013,50.800 111.101 C 47.729 112.635,48.001 101.912,48.001 221.420 C 48.000 303.968,47.891 328.349,47.520 328.720 C 46.838 329.402,28.362 329.402,27.680 328.720 C 26.981 328.021,26.981 91.179,27.680 90.480 C 28.380 89.780,372.020 89.780,372.720 90.480 " stroke="none" fill="#e8f8e0" fill-rule="evenodd"></path><path id="path8" d="M26.478 89.319 L 25.200 90.638 25.200 209.641 L 25.200 328.643 26.519 329.922 L 27.838 331.200 37.641 331.200 L 47.443 331.200 48.722 329.881 L 50.000 328.562 50.000 222.034 L 50.000 115.506 51.553 113.953 L 53.106 112.400 200.200 112.400 L 347.294 112.400 348.847 113.953 L 350.400 115.506 350.400 222.074 L 350.400 328.643 351.719 329.922 L 353.038 331.200 362.841 331.200 L 372.643 331.200 373.922 329.881 L 375.200 328.562 375.200 209.559 L 375.200 90.557 373.881 89.278 L 372.562 88.000 200.159 88.000 L 27.757 88.000 26.478 89.319 M372.720 90.480 C 373.419 91.179,373.419 328.021,372.720 328.720 C 372.038 329.402,353.562 329.402,352.880 328.720 C 352.509 328.349,352.400 303.968,352.399 221.420 C 352.399 101.912,352.671 112.635,349.600 111.101 C 347.423 110.013,52.977 110.013,50.800 111.101 C 47.729 112.635,48.001 101.912,48.001 221.420 C 48.000 303.968,47.891 328.349,47.520 328.720 C 46.838 329.402,28.362 329.402,27.680 328.720 C 26.981 328.021,26.981 91.179,27.680 90.480 C 28.380 89.780,372.020 89.780,372.720 90.480 " stroke="none" fill="#e8f8e0" fill-rule="evenodd"></path></g></svg>