<svg id="svg" version="1.1" width="400" height="400" viewBox="0 0 400 400" xmlns="http://www.w3.org/2000/svg" xmlns:xlink="http://www.w3.org/1999/xlink" ><g id="svgg"><path id="path0" d="M16.800 79.200 C 15.536 80.464,15.536 338.736,16.800 340.000 C 17.579 340.779,18.133 340.800,37.777 340.800 L 57.955 340.800 58.577 339.911 C 59.135 339.114,59.200 331.631,59.200 267.981 L 59.200 196.939 58.147 195.970 C 55.488 193.520,55.619 195.547,55.609 156.501 L 55.600 121.202 57.047 119.601 L 58.493 118.000 200.094 118.000 L 341.694 118.000 343.247 119.553 L 344.800 121.106 344.800 156.366 C 344.800 195.105,344.917 193.197,342.376 195.822 L 341.193 197.045 341.297 268.537 C 341.388 331.575,341.471 340.074,342.000 340.408 C 343.371 341.275,382.711 340.889,383.600 340.000 C 384.864 338.736,384.864 80.464,383.600 79.200 C 382.335 77.935,18.065 77.935,16.800 79.200 M373.481 89.678 L 374.800 90.957 374.800 209.559 L 374.800 328.162 373.522 329.481 L 372.243 330.800 362.841 330.800 L 353.438 330.800 352.119 329.522 L 350.800 328.243 350.800 221.535 L 350.800 114.827 349.387 113.413 L 347.973 112.000 200.200 112.000 L 52.427 112.000 51.013 113.413 L 49.600 114.827 49.600 221.494 L 49.600 328.162 48.322 329.481 L 47.043 330.800 37.641 330.800 L 28.238 330.800 26.919 329.522 L 25.600 328.243 25.600 209.641 L 25.600 91.038 26.878 89.719 L 28.157 88.400 200.159 88.400 L 372.162 88.400 373.481 89.678 " stroke="none" fill="#cccccc" fill-rule="evenodd"></path><path id="path1" d="M16.138 79.017 C 15.791 79.921,16.102 79.969,16.900 79.133 C 17.492 78.513,17.506 78.400,16.987 78.400 C 16.651 78.400,16.268 78.678,16.138 79.017 M383.500 79.133 C 384.298 79.969,384.609 79.921,384.262 79.017 C 384.132 78.678,383.749 78.400,383.413 78.400 C 382.894 78.400,382.908 78.513,383.500 79.133 M26.878 89.719 L 25.600 91.038 25.600 209.641 L 25.600 328.243 26.919 329.522 L 28.238 330.800 37.641 330.800 L 47.043 330.800 48.322 329.481 L 49.600 328.162 49.600 221.494 L 49.600 114.827 51.013 113.413 L 52.427 112.000 200.200 112.000 L 347.973 112.000 349.387 113.413 L 350.800 114.827 350.800 221.535 L 350.800 328.243 352.119 329.522 L 353.438 330.800 362.841 330.800 L 372.243 330.800 373.522 329.481 L 374.800 328.162 374.800 209.559 L 374.800 90.957 373.481 89.678 L 372.162 88.400 200.159 88.400 L 28.157 88.400 26.878 89.719 M16.000 339.813 C 16.000 340.149,16.278 340.532,16.617 340.662 C 17.521 341.009,17.569 340.698,16.733 339.900 C 16.113 339.308,16.000 339.294,16.000 339.813 M58.481 340.018 C 58.172 340.513,58.146 340.800,58.409 340.800 C 58.638 340.800,58.932 340.522,59.062 340.183 C 59.422 339.245,59.033 339.134,58.481 340.018 M383.500 340.067 C 382.908 340.687,382.894 340.800,383.413 340.800 C 383.749 340.800,384.132 340.522,384.262 340.183 C 384.609 339.279,384.298 339.231,383.500 340.067 " stroke="none" fill="#f4f4f4" fill-rule="evenodd"></path><path id="path2" d="M57.900 120.579 L 56.800 121.957 56.821 156.679 L 56.841 191.400 57.760 193.800 L 58.679 196.200 200.042 196.301 L 341.404 196.401 342.402 194.301 L 343.400 192.200 343.492 157.000 L 343.585 121.800 342.398 120.500 L 341.211 119.200 200.106 119.200 L 59.000 119.200 57.900 120.579 M148.568 125.406 C 150.909 127.178,150.795 125.588,150.795 156.400 C 150.795 187.742,150.961 185.783,148.143 187.641 C 146.358 188.818,66.442 188.818,64.657 187.641 C 61.839 185.783,62.005 187.742,62.005 156.400 C 62.005 125.588,61.891 127.178,64.232 125.406 C 65.389 124.531,147.411 124.531,148.568 125.406 M242.168 125.406 C 244.509 127.178,244.395 125.588,244.395 156.400 C 244.395 187.507,244.553 185.506,241.928 187.571 C 240.272 188.874,159.877 188.881,158.375 187.578 C 155.853 185.391,156.005 187.399,156.005 156.400 C 156.005 125.885,155.881 127.804,158.000 125.487 C 158.862 124.544,240.924 124.466,242.168 125.406 M336.168 125.406 C 338.509 127.178,338.395 125.588,338.395 156.400 C 338.395 187.742,338.561 185.783,335.743 187.641 C 333.958 188.818,254.042 188.818,252.257 187.641 C 249.439 185.783,249.605 187.742,249.605 156.400 C 249.605 125.588,249.491 127.178,251.832 125.406 C 252.989 124.531,335.011 124.531,336.168 125.406 " stroke="none" fill="#3c3c3c" fill-rule="evenodd"></path><path id="path3" d="M64.232 125.406 C 61.891 127.178,62.005 125.588,62.005 156.400 C 62.005 187.742,61.839 185.783,64.657 187.641 C 66.442 188.818,146.358 188.818,148.143 187.641 C 150.961 185.783,150.795 187.742,150.795 156.400 C 150.795 125.588,150.909 127.178,148.568 125.406 C 147.411 124.531,65.389 124.531,64.232 125.406 M158.000 125.487 C 155.881 127.804,156.005 125.885,156.005 156.400 C 156.005 187.399,155.853 185.391,158.375 187.578 C 159.877 188.881,240.272 188.874,241.928 187.571 C 244.553 185.506,244.395 187.507,244.395 156.400 C 244.395 125.588,244.509 127.178,242.168 125.406 C 240.924 124.466,158.862 124.544,158.000 125.487 M251.832 125.406 C 249.491 127.178,249.605 125.588,249.605 156.400 C 249.605 187.742,249.439 185.783,252.257 187.641 C 254.042 188.818,333.958 188.818,335.743 187.641 C 338.561 185.783,338.395 187.742,338.395 156.400 C 338.395 125.588,338.509 127.178,336.168 125.406 C 335.011 124.531,252.989 124.531,251.832 125.406 M129.468 196.700 C 168.225 196.756,231.765 196.756,270.668 196.700 C 309.570 196.644,277.860 196.598,200.200 196.598 C 122.540 196.598,90.710 196.644,129.468 196.700 " stroke="none" fill="#2c2c2c" fill-rule="evenodd"></path><path id="path4" d="M57.047 119.601 L 55.600 121.202 55.609 156.501 C 55.619 195.678,55.479 193.584,58.235 196.000 C 58.862 196.550,59.180 196.730,58.941 196.400 C 56.768 193.400,56.800 194.002,56.800 156.564 L 56.800 121.957 57.900 120.579 L 59.000 119.200 200.106 119.200 L 341.211 119.200 342.398 120.500 L 343.585 121.800 343.492 157.000 C 343.403 190.913,343.372 192.259,342.624 193.800 C 341.066 197.014,341.056 197.073,342.233 195.988 C 344.915 193.517,344.781 195.582,344.791 156.453 L 344.800 121.106 343.247 119.553 L 341.694 118.000 200.094 118.000 L 58.493 118.000 57.047 119.601 " stroke="none" fill="#b87ce4" fill-rule="evenodd"></path><path id="path5" d="" stroke="none" fill="#b8e4f8" fill-rule="evenodd"></path><path id="path6" d="" stroke="none" fill="#b8e4f8" fill-rule="evenodd"></path><path id="path7" d="" stroke="none" fill="#b8e4f8" fill-rule="evenodd"></path><path id="path8" d="" stroke="none" fill="#b8e4f8" fill-rule="evenodd"></path></g></svg>