<svg id="svg" version="1.1" width="400" height="400" viewBox="0 0 400 400" xmlns="http://www.w3.org/2000/svg" xmlns:xlink="http://www.w3.org/1999/xlink" ><g id="svgg"><path id="path0" d="M16.800 79.200 C 15.536 80.464,15.536 338.736,16.800 340.000 C 17.579 340.779,18.133 340.800,37.777 340.800 L 57.955 340.800 58.577 339.911 C 59.134 339.116,59.200 332.827,59.200 280.581 L 59.200 222.139 58.147 221.170 C 55.447 218.683,55.619 222.197,55.609 169.085 L 55.600 121.169 57.171 119.485 L 58.743 117.800 199.071 117.684 C 350.071 117.559,341.467 117.432,343.563 119.819 L 344.800 121.228 344.800 169.027 C 344.800 221.589,344.950 218.363,342.376 221.023 L 341.192 222.246 341.296 281.138 C 341.388 332.975,341.472 340.075,342.000 340.408 C 343.371 341.275,382.711 340.889,383.600 340.000 C 384.864 338.736,384.864 80.464,383.600 79.200 C 382.335 77.935,18.065 77.935,16.800 79.200 M373.481 89.678 L 374.800 90.957 374.800 209.559 L 374.800 328.162 373.522 329.481 L 372.243 330.800 362.841 330.800 L 353.438 330.800 352.119 329.522 L 350.800 328.243 350.800 221.535 L 350.800 114.827 349.387 113.413 L 347.973 112.000 200.200 112.000 L 52.427 112.000 51.013 113.413 L 49.600 114.827 49.600 221.494 L 49.600 328.162 48.322 329.481 L 47.043 330.800 37.641 330.800 L 28.238 330.800 26.919 329.522 L 25.600 328.243 25.600 209.641 L 25.600 91.038 26.878 89.719 L 28.157 88.400 200.159 88.400 L 372.162 88.400 373.481 89.678 " stroke="none" fill="#cccccc" fill-rule="evenodd"></path><path id="path1" d="M16.138 79.017 C 15.791 79.921,16.102 79.969,16.900 79.133 C 17.492 78.513,17.506 78.400,16.987 78.400 C 16.651 78.400,16.268 78.678,16.138 79.017 M383.500 79.133 C 384.298 79.969,384.609 79.921,384.262 79.017 C 384.132 78.678,383.749 78.400,383.413 78.400 C 382.894 78.400,382.908 78.513,383.500 79.133 M26.878 89.719 L 25.600 91.038 25.600 209.641 L 25.600 328.243 26.919 329.522 L 28.238 330.800 37.641 330.800 L 47.043 330.800 48.322 329.481 L 49.600 328.162 49.600 221.494 L 49.600 114.827 51.013 113.413 L 52.427 112.000 200.200 112.000 L 347.973 112.000 349.387 113.413 L 350.800 114.827 350.800 221.535 L 350.800 328.243 352.119 329.522 L 353.438 330.800 362.841 330.800 L 372.243 330.800 373.522 329.481 L 374.800 328.162 374.800 209.559 L 374.800 90.957 373.481 89.678 L 372.162 88.400 200.159 88.400 L 28.157 88.400 26.878 89.719 M16.000 339.813 C 16.000 340.149,16.278 340.532,16.617 340.662 C 17.521 341.009,17.569 340.698,16.733 339.900 C 16.113 339.308,16.000 339.294,16.000 339.813 M58.481 340.018 C 58.172 340.513,58.146 340.800,58.409 340.800 C 58.638 340.800,58.932 340.522,59.062 340.183 C 59.422 339.245,59.033 339.134,58.481 340.018 M383.500 340.067 C 382.908 340.687,382.894 340.800,383.413 340.800 C 383.749 340.800,384.132 340.522,384.262 340.183 C 384.609 339.279,384.298 339.231,383.500 340.067 " stroke="none" fill="#f4f4f4" fill-rule="evenodd"></path><path id="path2" d="M61.667 119.954 C 59.797 120.138,58.982 120.410,58.555 120.994 C 57.742 122.105,57.898 219.271,58.714 220.701 L 59.229 221.601 200.283 221.501 L 341.337 221.400 341.843 219.000 C 342.813 214.398,342.605 121.971,341.622 120.916 C 340.415 119.620,336.109 119.521,289.600 119.720 C 266.390 119.820,246.320 119.879,245.000 119.851 C 241.897 119.785,158.562 119.784,155.400 119.850 C 154.080 119.877,133.020 119.855,108.600 119.802 C 84.180 119.748,63.060 119.816,61.667 119.954 M148.700 121.859 L 150.800 122.111 150.800 131.842 L 150.800 141.573 149.387 142.987 L 147.973 144.400 106.400 144.400 L 64.827 144.400 63.413 142.987 L 62.000 141.573 62.000 131.811 L 62.000 122.048 63.500 121.891 C 66.066 121.623,146.480 121.593,148.700 121.859 M242.300 121.859 L 244.400 122.111 244.400 131.842 L 244.400 141.573 242.987 142.987 L 241.573 144.400 200.115 144.400 L 158.657 144.400 157.328 142.950 L 156.000 141.499 156.000 131.775 L 156.000 122.051 157.300 121.889 C 159.485 121.618,240.055 121.590,242.300 121.859 M336.300 121.859 L 338.400 122.111 338.400 131.842 L 338.400 141.573 336.987 142.987 L 335.573 144.400 294.000 144.400 L 252.427 144.400 251.013 142.987 L 249.600 141.573 249.600 131.811 L 249.600 122.048 251.100 121.891 C 253.666 121.623,334.080 121.593,336.300 121.859 M149.387 151.013 L 150.800 152.427 150.800 181.400 L 150.800 210.373 149.387 211.787 L 147.973 213.200 106.400 213.200 L 64.827 213.200 63.413 211.787 L 62.000 210.373 62.000 181.400 L 62.000 152.427 63.413 151.013 L 64.827 149.600 106.400 149.600 L 147.973 149.600 149.387 151.013 M242.987 151.013 L 244.400 152.427 244.400 181.400 L 244.400 210.373 242.987 211.787 L 241.573 213.200 200.115 213.200 L 158.657 213.200 157.328 211.750 L 156.000 210.299 156.000 181.412 L 156.000 152.525 157.300 151.065 L 158.600 149.604 200.087 149.602 L 241.573 149.600 242.987 151.013 M336.987 151.013 L 338.400 152.427 338.400 181.400 L 338.400 210.373 336.987 211.787 L 335.573 213.200 294.000 213.200 L 252.427 213.200 251.013 211.787 L 249.600 210.373 249.600 181.400 L 249.600 152.427 251.013 151.013 L 252.427 149.600 294.000 149.600 L 335.573 149.600 336.987 151.013 " stroke="none" fill="#3c3c3c" fill-rule="evenodd"></path><path id="path3" d="M63.600 131.525 L 63.600 141.050 64.784 141.925 L 65.968 142.800 106.400 142.800 L 146.832 142.800 148.016 141.925 L 149.200 141.050 149.200 131.525 L 149.200 122.000 106.400 122.000 L 63.600 122.000 63.600 131.525 M157.600 131.530 C 157.600 140.975,157.608 141.068,158.526 141.930 L 159.452 142.800 200.226 142.793 L 241.000 142.786 241.900 141.837 C 242.781 140.907,242.800 140.689,242.800 131.444 L 242.800 122.000 200.200 122.000 L 157.600 122.000 157.600 131.530 M251.200 131.525 L 251.200 141.050 252.384 141.925 L 253.568 142.800 294.000 142.800 L 334.432 142.800 335.616 141.925 L 336.800 141.050 336.800 131.525 L 336.800 122.000 294.000 122.000 L 251.200 122.000 251.200 131.525 M64.675 152.322 L 63.600 153.444 63.600 181.400 L 63.600 209.356 64.675 210.478 L 65.750 211.600 106.400 211.600 L 147.050 211.600 148.125 210.478 L 149.200 209.356 149.200 181.400 L 149.200 153.444 148.125 152.322 L 147.050 151.200 106.400 151.200 L 65.750 151.200 64.675 152.322 M158.427 152.362 C 157.127 154.188,157.127 208.612,158.427 210.438 L 159.254 211.600 200.152 211.600 L 241.050 211.600 241.925 210.416 L 242.800 209.232 242.800 181.400 L 242.800 153.568 241.925 152.384 L 241.050 151.200 200.152 151.200 L 159.254 151.200 158.427 152.362 M252.275 152.322 L 251.200 153.444 251.200 181.400 L 251.200 209.356 252.275 210.478 L 253.350 211.600 294.000 211.600 L 334.650 211.600 335.725 210.478 L 336.800 209.356 336.800 181.400 L 336.800 153.444 335.725 152.322 L 334.650 151.200 294.000 151.200 L 253.350 151.200 252.275 152.322 M129.468 221.900 C 168.225 221.956,231.765 221.956,270.668 221.900 C 309.570 221.844,277.860 221.798,200.200 221.798 C 122.540 221.798,90.710 221.844,129.468 221.900 " stroke="none" fill="#2c2c2c" fill-rule="evenodd"></path><path id="path4" d="M59.324 117.880 C 58.843 117.973,57.808 118.759,57.024 119.626 L 55.600 121.202 55.609 169.101 C 55.618 221.250,55.522 218.916,57.737 220.749 C 58.614 221.475,58.580 221.265,57.404 218.740 L 56.408 216.600 56.404 169.167 L 56.400 121.733 57.754 120.167 L 59.109 118.600 200.134 118.600 L 341.160 118.600 342.580 120.150 L 344.000 121.701 344.000 169.221 L 344.000 216.742 342.587 219.453 C 341.224 222.068,341.211 222.129,342.240 221.182 C 344.955 218.680,344.781 222.216,344.791 169.131 L 344.800 121.261 343.719 119.976 C 343.124 119.270,342.052 118.447,341.337 118.148 C 340.098 117.630,61.988 117.366,59.324 117.880 " stroke="none" fill="#b87ce4" fill-rule="evenodd"></path><path id="path5" d="M60.310 118.692 C 59.182 118.810,58.525 119.204,57.610 120.315 L 56.400 121.782 56.400 169.111 L 56.400 216.440 57.500 219.015 C 58.105 220.432,58.741 221.593,58.914 221.596 C 59.087 221.598,58.997 221.195,58.714 220.700 C 57.732 218.981,57.763 121.837,58.746 120.854 C 59.969 119.631,64.915 119.524,110.800 119.720 C 134.010 119.820,154.080 119.879,155.400 119.851 C 158.532 119.785,241.868 119.785,245.000 119.851 C 246.320 119.879,266.390 119.820,289.600 119.720 C 336.109 119.521,340.415 119.620,341.622 120.916 C 342.550 121.912,342.870 214.578,341.959 218.199 C 341.274 220.918,341.793 221.234,342.948 218.800 L 343.992 216.600 343.996 169.150 L 344.000 121.701 342.580 120.150 L 341.160 118.600 201.480 118.569 C 124.656 118.552,61.129 118.607,60.310 118.692 " stroke="none" fill="#503094" fill-rule="evenodd"></path><path id="path6" d="" stroke="none" fill="#54302c" fill-rule="evenodd"></path><path id="path7" d="M85.500 121.900 C 96.995 121.959,115.805 121.959,127.300 121.900 C 138.795 121.841,129.390 121.793,106.400 121.793 C 83.410 121.793,74.005 121.841,85.500 121.900 M179.100 121.900 C 190.595 121.959,209.405 121.959,220.900 121.900 C 232.395 121.841,222.990 121.793,200.000 121.793 C 177.010 121.793,167.605 121.841,179.100 121.900 M273.100 121.900 C 284.595 121.959,303.405 121.959,314.900 121.900 C 326.395 121.841,316.990 121.793,294.000 121.793 C 271.010 121.793,261.605 121.841,273.100 121.900 M62.000 131.787 L 62.000 141.573 63.413 142.987 L 64.827 144.400 106.400 144.400 L 147.973 144.400 149.387 142.987 L 150.800 141.573 150.800 131.787 C 150.800 125.529,150.656 122.000,150.400 122.000 C 150.144 122.000,150.000 125.469,150.000 131.606 L 150.000 141.211 148.700 142.394 L 147.400 143.577 106.400 143.577 L 65.400 143.577 64.100 142.394 L 62.800 141.211 62.800 131.606 C 62.800 125.469,62.656 122.000,62.400 122.000 C 62.144 122.000,62.000 125.529,62.000 131.787 M156.000 131.750 L 156.000 141.499 157.328 142.950 L 158.657 144.400 200.115 144.400 L 241.573 144.400 242.987 142.987 L 244.400 141.573 244.400 131.787 C 244.400 125.529,244.256 122.000,244.000 122.000 C 243.744 122.000,243.600 125.456,243.600 131.569 L 243.600 141.138 242.369 142.369 L 241.138 143.600 200.130 143.600 L 159.121 143.600 157.960 142.358 L 156.800 141.115 156.800 131.558 C 156.800 125.453,156.656 122.000,156.400 122.000 C 156.144 122.000,156.000 125.517,156.000 131.750 M249.600 131.787 L 249.600 141.573 251.013 142.987 L 252.427 144.400 294.000 144.400 L 335.573 144.400 336.987 142.987 L 338.400 141.573 338.400 131.787 C 338.400 125.529,338.256 122.000,338.000 122.000 C 337.744 122.000,337.600 125.469,337.600 131.606 L 337.600 141.211 336.300 142.394 L 335.000 143.577 294.000 143.577 L 253.000 143.577 251.700 142.394 L 250.400 141.211 250.400 131.606 C 250.400 125.469,250.256 122.000,250.000 122.000 C 249.744 122.000,249.600 125.529,249.600 131.787 M63.413 151.013 L 62.000 152.427 62.000 181.400 L 62.000 210.373 63.413 211.787 L 64.827 213.200 106.400 213.200 L 147.973 213.200 149.387 211.787 L 150.800 210.373 150.800 181.400 L 150.800 152.427 149.387 151.013 L 147.973 149.600 106.400 149.600 L 64.827 149.600 63.413 151.013 M157.300 151.065 L 156.000 152.525 156.000 181.412 L 156.000 210.299 157.328 211.750 L 158.657 213.200 200.115 213.200 L 241.573 213.200 242.987 211.787 L 244.400 210.373 244.400 181.400 L 244.400 152.427 242.987 151.013 L 241.573 149.600 200.087 149.602 L 158.600 149.604 157.300 151.065 M251.013 151.013 L 249.600 152.427 249.600 181.400 L 249.600 210.373 251.013 211.787 L 252.427 213.200 294.000 213.200 L 335.573 213.200 336.987 211.787 L 338.400 210.373 338.400 181.400 L 338.400 152.427 336.987 151.013 L 335.573 149.600 294.000 149.600 L 252.427 149.600 251.013 151.013 M148.681 151.678 L 150.000 152.957 150.000 181.359 L 150.000 209.762 148.722 211.081 L 147.443 212.400 106.441 212.400 L 65.438 212.400 64.119 211.122 L 62.800 209.843 62.800 181.441 L 62.800 153.038 64.078 151.719 L 65.357 150.400 106.359 150.400 L 147.362 150.400 148.681 151.678 M242.394 151.700 L 243.577 153.000 243.577 181.400 L 243.577 209.800 242.394 211.100 L 241.211 212.400 200.106 212.400 L 159.000 212.400 157.900 211.021 L 156.800 209.643 156.800 181.400 L 156.800 153.157 157.900 151.779 L 159.000 150.400 200.106 150.400 L 241.211 150.400 242.394 151.700 M336.281 151.678 L 337.600 152.957 337.600 181.359 L 337.600 209.762 336.322 211.081 L 335.043 212.400 294.041 212.400 L 253.038 212.400 251.719 211.122 L 250.400 209.843 250.400 181.441 L 250.400 153.038 251.678 151.719 L 252.957 150.400 293.959 150.400 L 334.962 150.400 336.281 151.678 " stroke="none" fill="#2c342c" fill-rule="evenodd"></path><path id="path8" d="M62.800 131.606 L 62.800 141.211 64.100 142.394 L 65.400 143.577 106.400 143.577 L 147.400 143.577 148.700 142.394 L 150.000 141.211 150.000 131.606 C 150.000 125.469,149.856 122.000,149.600 122.000 C 149.345 122.000,149.200 125.442,149.200 131.525 L 149.200 141.050 148.016 141.925 L 146.832 142.800 106.400 142.800 L 65.968 142.800 64.784 141.925 L 63.600 141.050 63.600 131.525 C 63.600 125.442,63.455 122.000,63.200 122.000 C 62.944 122.000,62.800 125.469,62.800 131.606 M156.800 131.558 L 156.800 141.115 157.960 142.358 L 159.121 143.600 200.130 143.600 L 241.138 143.600 242.369 142.369 L 243.600 141.138 243.600 131.569 C 243.600 125.456,243.456 122.000,243.200 122.000 C 242.945 122.000,242.800 125.415,242.800 131.444 C 242.800 140.689,242.781 140.907,241.900 141.837 L 241.000 142.786 200.170 142.793 L 159.339 142.800 158.470 141.874 C 157.627 140.977,157.600 140.651,157.600 131.474 C 157.600 125.425,157.455 122.000,157.200 122.000 C 156.944 122.000,156.800 125.453,156.800 131.558 M250.400 131.606 L 250.400 141.211 251.700 142.394 L 253.000 143.577 294.000 143.577 L 335.000 143.577 336.300 142.394 L 337.600 141.211 337.600 131.606 C 337.600 125.469,337.456 122.000,337.200 122.000 C 336.945 122.000,336.800 125.442,336.800 131.525 L 336.800 141.050 335.616 141.925 L 334.432 142.800 294.000 142.800 L 253.568 142.800 252.384 141.925 L 251.200 141.050 251.200 131.525 C 251.200 125.442,251.055 122.000,250.800 122.000 C 250.544 122.000,250.400 125.469,250.400 131.606 M64.078 151.719 L 62.800 153.038 62.800 181.441 L 62.800 209.843 64.119 211.122 L 65.438 212.400 106.441 212.400 L 147.443 212.400 148.722 211.081 L 150.000 209.762 150.000 181.359 L 150.000 152.957 148.681 151.678 L 147.362 150.400 106.359 150.400 L 65.357 150.400 64.078 151.719 M157.900 151.779 L 156.800 153.157 156.800 181.400 L 156.800 209.643 157.900 211.021 L 159.000 212.400 200.106 212.400 L 241.211 212.400 242.394 211.100 L 243.577 209.800 243.577 181.400 L 243.577 153.000 242.394 151.700 L 241.211 150.400 200.106 150.400 L 159.000 150.400 157.900 151.779 M251.678 151.719 L 250.400 153.038 250.400 181.441 L 250.400 209.843 251.719 211.122 L 253.038 212.400 294.041 212.400 L 335.043 212.400 336.322 211.081 L 337.600 209.762 337.600 181.359 L 337.600 152.957 336.281 151.678 L 334.962 150.400 293.959 150.400 L 252.957 150.400 251.678 151.719 M148.125 152.322 L 149.200 153.444 149.200 181.400 L 149.200 209.356 148.125 210.478 L 147.050 211.600 106.400 211.600 L 65.750 211.600 64.675 210.478 L 63.600 209.356 63.600 181.400 L 63.600 153.444 64.675 152.322 L 65.750 151.200 106.400 151.200 L 147.050 151.200 148.125 152.322 M241.925 152.384 L 242.800 153.568 242.800 181.400 L 242.800 209.232 241.925 210.416 L 241.050 211.600 200.152 211.600 L 159.254 211.600 158.427 210.438 C 157.610 209.290,157.600 208.941,157.600 181.400 C 157.600 153.859,157.610 153.510,158.427 152.362 L 159.254 151.200 200.152 151.200 L 241.050 151.200 241.925 152.384 M335.725 152.322 L 336.800 153.444 336.800 181.400 L 336.800 209.356 335.725 210.478 L 334.650 211.600 294.000 211.600 L 253.350 211.600 252.275 210.478 L 251.200 209.356 251.200 181.400 L 251.200 153.444 252.275 152.322 L 253.350 151.200 294.000 151.200 L 334.650 151.200 335.725 152.322 " stroke="none" fill="#302c2c" fill-rule="evenodd"></path></g></svg>