<svg id="svg" version="1.1" width="400" height="400" viewBox="0 0 400 400" xmlns="http://www.w3.org/2000/svg" xmlns:xlink="http://www.w3.org/1999/xlink" ><g id="svgg"><path id="path0" d="M58.800 120.792 C 57.985 121.307,57.876 331.073,58.690 332.901 L 59.181 334.001 200.259 333.901 L 341.337 333.800 341.843 331.400 C 342.689 327.387,342.625 122.499,341.777 121.289 L 341.155 120.400 200.277 120.406 C 112.185 120.410,59.175 120.554,58.800 120.792 M149.640 126.042 L 150.800 127.285 150.800 156.429 L 150.800 185.573 149.387 186.987 L 147.973 188.400 106.400 188.400 L 64.827 188.400 63.413 186.987 L 62.000 185.573 62.000 156.429 L 62.000 127.285 63.160 126.042 L 64.321 124.800 106.400 124.800 L 148.479 124.800 149.640 126.042 M243.240 126.042 L 244.400 127.285 244.400 156.429 L 244.400 185.573 242.987 186.987 L 241.573 188.400 200.115 188.400 L 158.657 188.400 157.328 186.950 L 156.000 185.499 156.000 156.392 L 156.000 127.285 157.160 126.042 L 158.321 124.800 200.200 124.800 L 242.079 124.800 243.240 126.042 M337.240 126.042 L 338.400 127.285 338.400 156.429 L 338.400 185.573 336.987 186.987 L 335.573 188.400 294.000 188.400 L 252.427 188.400 251.013 186.987 L 249.600 185.573 249.600 156.429 L 249.600 127.285 250.760 126.042 L 251.921 124.800 294.000 124.800 L 336.079 124.800 337.240 126.042 M149.387 194.613 L 150.800 196.027 150.800 225.200 L 150.800 254.373 149.387 255.787 L 147.973 257.200 106.400 257.200 L 64.827 257.200 63.413 255.787 L 62.000 254.373 62.000 225.200 L 62.000 196.027 63.413 194.613 L 64.827 193.200 106.400 193.200 L 147.973 193.200 149.387 194.613 M242.987 194.613 L 244.400 196.027 244.400 225.200 L 244.400 254.373 242.987 255.787 L 241.573 257.200 200.115 257.200 L 158.657 257.200 157.328 255.750 L 156.000 254.299 156.000 225.212 L 156.000 196.125 157.300 194.665 L 158.600 193.204 200.087 193.202 L 241.573 193.200 242.987 194.613 M336.987 194.613 L 338.400 196.027 338.400 225.200 L 338.400 254.373 336.987 255.787 L 335.573 257.200 294.000 257.200 L 252.427 257.200 251.013 255.787 L 249.600 254.373 249.600 225.200 L 249.600 196.027 251.013 194.613 L 252.427 193.200 294.000 193.200 L 335.573 193.200 336.987 194.613 M149.387 263.413 L 150.800 264.827 150.787 293.913 C 150.773 325.470,150.889 323.846,148.577 325.046 C 146.985 325.872,65.815 325.872,64.223 325.046 C 61.911 323.846,62.027 325.470,62.013 293.913 L 62.000 264.827 63.413 263.413 L 64.827 262.000 106.400 262.000 L 147.973 262.000 149.387 263.413 M242.987 263.413 L 244.400 264.827 244.387 293.913 C 244.373 325.470,244.489 323.846,242.177 325.046 C 240.844 325.737,158.400 325.889,158.400 325.200 C 158.400 324.980,158.151 324.800,157.846 324.800 C 156.008 324.800,156.000 324.659,156.000 293.877 L 156.000 264.925 157.300 263.465 L 158.600 262.004 200.087 262.002 L 241.573 262.000 242.987 263.413 M336.987 263.413 L 338.400 264.827 338.387 293.913 C 338.373 325.470,338.489 323.846,336.177 325.046 C 334.585 325.872,253.415 325.872,251.823 325.046 C 249.511 323.846,249.627 325.470,249.613 293.913 L 249.600 264.827 251.013 263.413 L 252.427 262.000 294.000 262.000 L 335.573 262.000 336.987 263.413 " stroke="none" fill="#3c3c3c" fill-rule="evenodd"></path><path id="path1" d="M16.800 79.200 C 15.536 80.464,15.536 338.736,16.800 340.000 C 17.579 340.779,18.133 340.800,37.777 340.800 L 57.955 340.800 58.577 339.911 C 59.503 338.589,59.399 335.003,58.393 333.591 C 55.786 329.929,56.019 340.484,56.009 225.372 L 56.000 121.744 57.431 120.072 L 58.862 118.400 200.108 118.400 L 341.353 118.400 342.877 120.034 L 344.400 121.667 344.400 225.246 C 344.400 338.671,344.587 329.737,342.134 333.290 C 340.946 335.010,340.872 339.694,342.021 340.421 C 343.372 341.276,382.723 340.877,383.600 340.000 C 384.864 338.736,384.864 80.464,383.600 79.200 C 382.335 77.935,18.065 77.935,16.800 79.200 M373.481 89.678 L 374.800 90.957 374.800 209.559 L 374.800 328.162 373.522 329.481 L 372.243 330.800 362.841 330.800 L 353.438 330.800 352.119 329.522 L 350.800 328.243 350.800 221.535 L 350.800 114.827 349.387 113.413 L 347.973 112.000 200.200 112.000 L 52.427 112.000 51.013 113.413 L 49.600 114.827 49.600 221.494 L 49.600 328.162 48.322 329.481 L 47.043 330.800 37.641 330.800 L 28.238 330.800 26.919 329.522 L 25.600 328.243 25.600 209.641 L 25.600 91.038 26.878 89.719 L 28.157 88.400 200.159 88.400 L 372.162 88.400 373.481 89.678 " stroke="none" fill="#cccccc" fill-rule="evenodd"></path><path id="path2" d="M16.138 79.017 C 15.791 79.921,16.102 79.969,16.900 79.133 C 17.492 78.513,17.506 78.400,16.987 78.400 C 16.651 78.400,16.268 78.678,16.138 79.017 M383.500 79.133 C 384.298 79.969,384.609 79.921,384.262 79.017 C 384.132 78.678,383.749 78.400,383.413 78.400 C 382.894 78.400,382.908 78.513,383.500 79.133 M26.878 89.719 L 25.600 91.038 25.600 209.641 L 25.600 328.243 26.919 329.522 L 28.238 330.800 37.641 330.800 L 47.043 330.800 48.322 329.481 L 49.600 328.162 49.600 221.494 L 49.600 114.827 51.013 113.413 L 52.427 112.000 200.200 112.000 L 347.973 112.000 349.387 113.413 L 350.800 114.827 350.800 221.535 L 350.800 328.243 352.119 329.522 L 353.438 330.800 362.841 330.800 L 372.243 330.800 373.522 329.481 L 374.800 328.162 374.800 209.559 L 374.800 90.957 373.481 89.678 L 372.162 88.400 200.159 88.400 L 28.157 88.400 26.878 89.719 M16.000 339.813 C 16.000 340.149,16.278 340.532,16.617 340.662 C 17.521 341.009,17.569 340.698,16.733 339.900 C 16.113 339.308,16.000 339.294,16.000 339.813 M58.481 340.018 C 58.172 340.513,58.146 340.800,58.409 340.800 C 58.638 340.800,58.932 340.522,59.062 340.183 C 59.422 339.245,59.033 339.134,58.481 340.018 M383.500 340.067 C 382.908 340.687,382.894 340.800,383.413 340.800 C 383.749 340.800,384.132 340.522,384.262 340.183 C 384.609 339.279,384.298 339.231,383.500 340.067 " stroke="none" fill="#f4f4f4" fill-rule="evenodd"></path><path id="path3" d="M64.675 127.122 L 63.600 128.244 63.600 156.400 L 63.600 184.556 64.675 185.678 L 65.750 186.800 106.400 186.800 L 147.050 186.800 148.125 185.678 L 149.200 184.556 149.200 156.400 L 149.200 128.244 148.125 127.122 L 147.050 126.000 106.400 126.000 L 65.750 126.000 64.675 127.122 M158.427 127.162 C 157.127 128.988,157.127 183.812,158.427 185.638 L 159.254 186.800 200.152 186.800 L 241.050 186.800 241.925 185.616 L 242.800 184.432 242.800 156.400 L 242.800 128.368 241.925 127.184 L 241.050 126.000 200.152 126.000 L 159.254 126.000 158.427 127.162 M252.275 127.122 L 251.200 128.244 251.200 156.400 L 251.200 184.556 252.275 185.678 L 253.350 186.800 294.000 186.800 L 334.650 186.800 335.725 185.678 L 336.800 184.556 336.800 156.400 L 336.800 128.244 335.725 127.122 L 334.650 126.000 294.000 126.000 L 253.350 126.000 252.275 127.122 M64.675 195.922 L 63.600 197.044 63.600 225.200 L 63.600 253.356 64.675 254.478 L 65.750 255.600 106.400 255.600 L 147.050 255.600 148.125 254.478 L 149.200 253.356 149.200 225.200 L 149.200 197.044 148.125 195.922 L 147.050 194.800 106.400 194.800 L 65.750 194.800 64.675 195.922 M158.427 195.962 C 157.610 197.110,157.600 197.457,157.600 225.200 C 157.600 252.943,157.610 253.290,158.427 254.438 L 159.254 255.600 200.152 255.600 L 241.050 255.600 241.925 254.416 L 242.800 253.232 242.800 225.200 L 242.800 197.168 241.925 195.984 L 241.050 194.800 200.152 194.800 L 159.254 194.800 158.427 195.962 M252.275 195.922 L 251.200 197.044 251.200 225.200 L 251.200 253.356 252.275 254.478 L 253.350 255.600 294.000 255.600 L 334.650 255.600 335.725 254.478 L 336.800 253.356 336.800 225.200 L 336.800 197.044 335.725 195.922 L 334.650 194.800 294.000 194.800 L 253.350 194.800 252.275 195.922 M64.675 264.722 L 63.600 265.844 63.600 294.000 L 63.600 322.156 64.675 323.278 L 65.750 324.400 106.400 324.400 L 147.050 324.400 148.125 323.278 L 149.200 322.156 149.200 294.000 L 149.200 265.844 148.125 264.722 L 147.050 263.600 106.400 263.600 L 65.750 263.600 64.675 264.722 M158.427 264.762 C 157.610 265.910,157.600 266.257,157.600 294.000 C 157.600 321.743,157.610 322.090,158.427 323.238 L 159.254 324.400 200.152 324.400 L 241.050 324.400 241.925 323.216 L 242.800 322.032 242.800 294.000 L 242.800 265.968 241.925 264.784 L 241.050 263.600 200.152 263.600 L 159.254 263.600 158.427 264.762 M252.275 264.722 L 251.200 265.844 251.200 294.000 L 251.200 322.156 252.275 323.278 L 253.350 324.400 294.000 324.400 L 334.650 324.400 335.725 323.278 L 336.800 322.156 336.800 294.000 L 336.800 265.844 335.725 264.722 L 334.650 263.600 294.000 263.600 L 253.350 263.600 252.275 264.722 M129.468 334.300 C 168.225 334.356,231.765 334.356,270.668 334.300 C 309.570 334.244,277.860 334.198,200.200 334.198 C 122.540 334.198,90.710 334.244,129.468 334.300 " stroke="none" fill="#2c2c2c" fill-rule="evenodd"></path><path id="path4" d="M57.431 120.072 L 56.000 121.744 56.004 225.372 L 56.008 329.000 56.960 331.000 C 57.484 332.100,58.217 333.360,58.589 333.800 L 59.265 334.600 58.998 333.800 C 58.071 331.023,57.990 321.204,58.091 224.685 C 58.187 133.187,58.270 121.127,58.800 120.792 C 59.175 120.554,112.190 120.410,200.277 120.406 L 341.155 120.400 341.777 121.289 C 342.492 122.310,342.748 327.621,342.038 330.400 C 341.841 331.170,341.571 332.410,341.439 333.155 L 341.198 334.511 342.006 333.483 C 344.608 330.175,344.381 340.451,344.391 225.334 L 344.400 121.667 342.877 120.034 L 341.353 118.400 200.108 118.400 L 58.862 118.400 57.431 120.072 " stroke="none" fill="#5c3094" fill-rule="evenodd"></path><path id="path5" d="" stroke="none" fill="#60302c" fill-rule="evenodd"></path><path id="path6" d="M63.160 126.042 L 62.000 127.285 62.000 156.429 L 62.000 185.573 63.413 186.987 L 64.827 188.400 106.400 188.400 L 147.973 188.400 149.387 186.987 L 150.800 185.573 150.800 156.429 L 150.800 127.285 149.640 126.042 L 148.479 124.800 106.400 124.800 L 64.321 124.800 63.160 126.042 M157.160 126.042 L 156.000 127.285 156.000 156.392 L 156.000 185.499 157.328 186.950 L 158.657 188.400 200.115 188.400 L 241.573 188.400 242.987 186.987 L 244.400 185.573 244.400 156.429 L 244.400 127.285 243.240 126.042 L 242.079 124.800 200.200 124.800 L 158.321 124.800 157.160 126.042 M250.760 126.042 L 249.600 127.285 249.600 156.429 L 249.600 185.573 251.013 186.987 L 252.427 188.400 294.000 188.400 L 335.573 188.400 336.987 186.987 L 338.400 185.573 338.400 156.429 L 338.400 127.285 337.240 126.042 L 336.079 124.800 294.000 124.800 L 251.921 124.800 250.760 126.042 M148.681 126.478 L 150.000 127.757 150.000 156.359 L 150.000 184.962 148.722 186.281 L 147.443 187.600 106.441 187.600 L 65.438 187.600 64.119 186.322 L 62.800 185.043 62.800 156.441 L 62.800 127.838 64.078 126.519 L 65.357 125.200 106.359 125.200 L 147.362 125.200 148.681 126.478 M242.394 126.500 L 243.577 127.800 243.577 156.400 L 243.577 185.000 242.394 186.300 L 241.211 187.600 200.106 187.600 L 159.000 187.600 157.900 186.221 L 156.800 184.843 156.800 156.400 L 156.800 127.957 157.900 126.579 L 159.000 125.200 200.106 125.200 L 241.211 125.200 242.394 126.500 M336.281 126.478 L 337.600 127.757 337.600 156.359 L 337.600 184.962 336.322 186.281 L 335.043 187.600 294.041 187.600 L 253.038 187.600 251.719 186.322 L 250.400 185.043 250.400 156.441 L 250.400 127.838 251.678 126.519 L 252.957 125.200 293.959 125.200 L 334.962 125.200 336.281 126.478 M63.413 194.613 L 62.000 196.027 62.000 225.200 L 62.000 254.373 63.413 255.787 L 64.827 257.200 106.400 257.200 L 147.973 257.200 149.387 255.787 L 150.800 254.373 150.800 225.200 L 150.800 196.027 149.387 194.613 L 147.973 193.200 106.400 193.200 L 64.827 193.200 63.413 194.613 M157.300 194.665 L 156.000 196.125 156.000 225.212 L 156.000 254.299 157.328 255.750 L 158.657 257.200 200.115 257.200 L 241.573 257.200 242.987 255.787 L 244.400 254.373 244.400 225.200 L 244.400 196.027 242.987 194.613 L 241.573 193.200 200.087 193.202 L 158.600 193.204 157.300 194.665 M251.013 194.613 L 249.600 196.027 249.600 225.200 L 249.600 254.373 251.013 255.787 L 252.427 257.200 294.000 257.200 L 335.573 257.200 336.987 255.787 L 338.400 254.373 338.400 225.200 L 338.400 196.027 336.987 194.613 L 335.573 193.200 294.000 193.200 L 252.427 193.200 251.013 194.613 M148.681 195.278 L 150.000 196.557 150.000 225.159 L 150.000 253.762 148.722 255.081 L 147.443 256.400 106.441 256.400 L 65.438 256.400 64.119 255.122 L 62.800 253.843 62.800 225.241 L 62.800 196.638 64.078 195.319 L 65.357 194.000 106.359 194.000 L 147.362 194.000 148.681 195.278 M242.394 195.300 L 243.577 196.600 243.577 225.200 L 243.577 253.800 242.394 255.100 L 241.211 256.400 200.106 256.400 L 159.000 256.400 157.900 255.021 L 156.800 253.643 156.800 225.200 L 156.800 196.757 157.900 195.379 L 159.000 194.000 200.106 194.000 L 241.211 194.000 242.394 195.300 M336.281 195.278 L 337.600 196.557 337.600 225.159 L 337.600 253.762 336.322 255.081 L 335.043 256.400 294.041 256.400 L 253.038 256.400 251.719 255.122 L 250.400 253.843 250.400 225.241 L 250.400 196.638 251.678 195.319 L 252.957 194.000 293.959 194.000 L 334.962 194.000 336.281 195.278 M63.413 263.413 L 62.000 264.827 62.013 293.913 C 62.027 325.470,61.911 323.846,64.223 325.046 C 65.815 325.872,146.985 325.872,148.577 325.046 C 150.889 323.846,150.773 325.470,150.787 293.913 L 150.800 264.827 149.387 263.413 L 147.973 262.000 106.400 262.000 L 64.827 262.000 63.413 263.413 M157.300 263.465 L 156.000 264.925 156.000 293.877 C 156.000 324.659,156.008 324.800,157.846 324.800 C 158.151 324.800,158.400 324.980,158.400 325.200 C 158.400 325.889,240.844 325.737,242.177 325.046 C 244.489 323.846,244.373 325.470,244.387 293.913 L 244.400 264.827 242.987 263.413 L 241.573 262.000 200.087 262.002 L 158.600 262.004 157.300 263.465 M251.013 263.413 L 249.600 264.827 249.613 293.913 C 249.627 325.470,249.511 323.846,251.823 325.046 C 253.415 325.872,334.585 325.872,336.177 325.046 C 338.489 323.846,338.373 325.470,338.387 293.913 L 338.400 264.827 336.987 263.413 L 335.573 262.000 294.000 262.000 L 252.427 262.000 251.013 263.413 M148.681 264.078 L 150.000 265.357 150.000 293.957 L 150.000 322.556 148.925 323.678 L 147.850 324.800 106.400 324.800 L 64.950 324.800 63.875 323.678 L 62.800 322.556 62.800 293.997 L 62.800 265.438 64.078 264.119 L 65.357 262.800 106.359 262.800 L 147.362 262.800 148.681 264.078 M242.394 264.100 L 243.577 265.400 243.588 293.978 L 243.600 322.556 242.525 323.678 L 241.450 324.800 200.106 324.800 L 158.762 324.800 157.793 323.700 L 156.825 322.600 156.813 294.079 L 156.800 265.557 157.900 264.179 L 159.000 262.800 200.106 262.800 L 241.211 262.800 242.394 264.100 M336.281 264.078 L 337.600 265.357 337.600 293.957 L 337.600 322.556 336.525 323.678 L 335.450 324.800 294.000 324.800 L 252.550 324.800 251.475 323.678 L 250.400 322.556 250.400 293.997 L 250.400 265.438 251.678 264.119 L 252.957 262.800 293.959 262.800 L 334.962 262.800 336.281 264.078 " stroke="none" fill="#2c342c" fill-rule="evenodd"></path><path id="path7" d="M64.078 126.519 L 62.800 127.838 62.800 156.441 L 62.800 185.043 64.119 186.322 L 65.438 187.600 106.441 187.600 L 147.443 187.600 148.722 186.281 L 150.000 184.962 150.000 156.359 L 150.000 127.757 148.681 126.478 L 147.362 125.200 106.359 125.200 L 65.357 125.200 64.078 126.519 M157.900 126.579 L 156.800 127.957 156.800 156.400 L 156.800 184.843 157.900 186.221 L 159.000 187.600 200.106 187.600 L 241.211 187.600 242.394 186.300 L 243.577 185.000 243.577 156.400 L 243.577 127.800 242.394 126.500 L 241.211 125.200 200.106 125.200 L 159.000 125.200 157.900 126.579 M251.678 126.519 L 250.400 127.838 250.400 156.441 L 250.400 185.043 251.719 186.322 L 253.038 187.600 294.041 187.600 L 335.043 187.600 336.322 186.281 L 337.600 184.962 337.600 156.359 L 337.600 127.757 336.281 126.478 L 334.962 125.200 293.959 125.200 L 252.957 125.200 251.678 126.519 M148.125 127.122 L 149.200 128.244 149.200 156.400 L 149.200 184.556 148.125 185.678 L 147.050 186.800 106.400 186.800 L 65.750 186.800 64.675 185.678 L 63.600 184.556 63.600 156.400 L 63.600 128.244 64.675 127.122 L 65.750 126.000 106.400 126.000 L 147.050 126.000 148.125 127.122 M241.925 127.184 L 242.800 128.368 242.800 156.400 L 242.800 184.432 241.925 185.616 L 241.050 186.800 200.152 186.800 L 159.254 186.800 158.427 185.638 C 157.610 184.490,157.600 184.143,157.600 156.400 C 157.600 128.657,157.610 128.310,158.427 127.162 L 159.254 126.000 200.152 126.000 L 241.050 126.000 241.925 127.184 M335.725 127.122 L 336.800 128.244 336.800 156.400 L 336.800 184.556 335.725 185.678 L 334.650 186.800 294.000 186.800 L 253.350 186.800 252.275 185.678 L 251.200 184.556 251.200 156.400 L 251.200 128.244 252.275 127.122 L 253.350 126.000 294.000 126.000 L 334.650 126.000 335.725 127.122 M64.078 195.319 L 62.800 196.638 62.800 225.241 L 62.800 253.843 64.119 255.122 L 65.438 256.400 106.441 256.400 L 147.443 256.400 148.722 255.081 L 150.000 253.762 150.000 225.159 L 150.000 196.557 148.681 195.278 L 147.362 194.000 106.359 194.000 L 65.357 194.000 64.078 195.319 M157.900 195.379 L 156.800 196.757 156.800 225.200 L 156.800 253.643 157.900 255.021 L 159.000 256.400 200.106 256.400 L 241.211 256.400 242.394 255.100 L 243.577 253.800 243.577 225.200 L 243.577 196.600 242.394 195.300 L 241.211 194.000 200.106 194.000 L 159.000 194.000 157.900 195.379 M251.678 195.319 L 250.400 196.638 250.400 225.241 L 250.400 253.843 251.719 255.122 L 253.038 256.400 294.041 256.400 L 335.043 256.400 336.322 255.081 L 337.600 253.762 337.600 225.159 L 337.600 196.557 336.281 195.278 L 334.962 194.000 293.959 194.000 L 252.957 194.000 251.678 195.319 M148.125 195.922 L 149.200 197.044 149.200 225.200 L 149.200 253.356 148.125 254.478 L 147.050 255.600 106.400 255.600 L 65.750 255.600 64.675 254.478 L 63.600 253.356 63.600 225.200 L 63.600 197.044 64.675 195.922 L 65.750 194.800 106.400 194.800 L 147.050 194.800 148.125 195.922 M241.925 195.984 L 242.800 197.168 242.800 225.200 L 242.800 253.232 241.925 254.416 L 241.050 255.600 200.152 255.600 L 159.254 255.600 158.427 254.438 C 157.610 253.290,157.600 252.943,157.600 225.200 C 157.600 197.457,157.610 197.110,158.427 195.962 L 159.254 194.800 200.152 194.800 L 241.050 194.800 241.925 195.984 M335.725 195.922 L 336.800 197.044 336.800 225.200 L 336.800 253.356 335.725 254.478 L 334.650 255.600 294.000 255.600 L 253.350 255.600 252.275 254.478 L 251.200 253.356 251.200 225.200 L 251.200 197.044 252.275 195.922 L 253.350 194.800 294.000 194.800 L 334.650 194.800 335.725 195.922 M64.078 264.119 L 62.800 265.438 62.800 293.997 L 62.800 322.556 63.875 323.678 L 64.950 324.800 106.400 324.800 L 147.850 324.800 148.925 323.678 L 150.000 322.556 150.000 293.957 L 150.000 265.357 148.681 264.078 L 147.362 262.800 106.359 262.800 L 65.357 262.800 64.078 264.119 M157.900 264.179 L 156.800 265.557 156.813 294.079 L 156.825 322.600 157.793 323.700 L 158.762 324.800 200.106 324.800 L 241.450 324.800 242.525 323.678 L 243.600 322.556 243.588 293.978 L 243.577 265.400 242.394 264.100 L 241.211 262.800 200.106 262.800 L 159.000 262.800 157.900 264.179 M251.678 264.119 L 250.400 265.438 250.400 293.997 L 250.400 322.556 251.475 323.678 L 252.550 324.800 294.000 324.800 L 335.450 324.800 336.525 323.678 L 337.600 322.556 337.600 293.957 L 337.600 265.357 336.281 264.078 L 334.962 262.800 293.959 262.800 L 252.957 262.800 251.678 264.119 M148.125 264.722 L 149.200 265.844 149.200 294.000 L 149.200 322.156 148.125 323.278 L 147.050 324.400 106.400 324.400 L 65.750 324.400 64.675 323.278 L 63.600 322.156 63.600 294.000 L 63.600 265.844 64.675 264.722 L 65.750 263.600 106.400 263.600 L 147.050 263.600 148.125 264.722 M241.925 264.784 L 242.800 265.968 242.800 294.000 L 242.800 322.032 241.925 323.216 L 241.050 324.400 200.152 324.400 L 159.254 324.400 158.427 323.238 C 157.610 322.090,157.600 321.743,157.600 294.000 C 157.600 266.257,157.610 265.910,158.427 264.762 L 159.254 263.600 200.152 263.600 L 241.050 263.600 241.925 264.784 M335.725 264.722 L 336.800 265.844 336.800 294.000 L 336.800 322.156 335.725 323.278 L 334.650 324.400 294.000 324.400 L 253.350 324.400 252.275 323.278 L 251.200 322.156 251.200 294.000 L 251.200 265.844 252.275 264.722 L 253.350 263.600 294.000 263.600 L 334.650 263.600 335.725 264.722 " stroke="none" fill="#302c2c" fill-rule="evenodd"></path><path id="path8" d="M64.078 126.519 L 62.800 127.838 62.800 156.441 L 62.800 185.043 64.119 186.322 L 65.438 187.600 106.441 187.600 L 147.443 187.600 148.722 186.281 L 150.000 184.962 150.000 156.359 L 150.000 127.757 148.681 126.478 L 147.362 125.200 106.359 125.200 L 65.357 125.200 64.078 126.519 M157.900 126.579 L 156.800 127.957 156.800 156.400 L 156.800 184.843 157.900 186.221 L 159.000 187.600 200.106 187.600 L 241.211 187.600 242.394 186.300 L 243.577 185.000 243.577 156.400 L 243.577 127.800 242.394 126.500 L 241.211 125.200 200.106 125.200 L 159.000 125.200 157.900 126.579 M251.678 126.519 L 250.400 127.838 250.400 156.441 L 250.400 185.043 251.719 186.322 L 253.038 187.600 294.041 187.600 L 335.043 187.600 336.322 186.281 L 337.600 184.962 337.600 156.359 L 337.600 127.757 336.281 126.478 L 334.962 125.200 293.959 125.200 L 252.957 125.200 251.678 126.519 M148.125 127.122 L 149.200 128.244 149.200 156.400 L 149.200 184.556 148.125 185.678 L 147.050 186.800 106.400 186.800 L 65.750 186.800 64.675 185.678 L 63.600 184.556 63.600 156.400 L 63.600 128.244 64.675 127.122 L 65.750 126.000 106.400 126.000 L 147.050 126.000 148.125 127.122 M241.925 127.184 L 242.800 128.368 242.800 156.400 L 242.800 184.432 241.925 185.616 L 241.050 186.800 200.152 186.800 L 159.254 186.800 158.427 185.638 C 157.610 184.490,157.600 184.143,157.600 156.400 C 157.600 128.657,157.610 128.310,158.427 127.162 L 159.254 126.000 200.152 126.000 L 241.050 126.000 241.925 127.184 M335.725 127.122 L 336.800 128.244 336.800 156.400 L 336.800 184.556 335.725 185.678 L 334.650 186.800 294.000 186.800 L 253.350 186.800 252.275 185.678 L 251.200 184.556 251.200 156.400 L 251.200 128.244 252.275 127.122 L 253.350 126.000 294.000 126.000 L 334.650 126.000 335.725 127.122 M64.078 195.319 L 62.800 196.638 62.800 225.241 L 62.800 253.843 64.119 255.122 L 65.438 256.400 106.441 256.400 L 147.443 256.400 148.722 255.081 L 150.000 253.762 150.000 225.159 L 150.000 196.557 148.681 195.278 L 147.362 194.000 106.359 194.000 L 65.357 194.000 64.078 195.319 M157.900 195.379 L 156.800 196.757 156.800 225.200 L 156.800 253.643 157.900 255.021 L 159.000 256.400 200.106 256.400 L 241.211 256.400 242.394 255.100 L 243.577 253.800 243.577 225.200 L 243.577 196.600 242.394 195.300 L 241.211 194.000 200.106 194.000 L 159.000 194.000 157.900 195.379 M251.678 195.319 L 250.400 196.638 250.400 225.241 L 250.400 253.843 251.719 255.122 L 253.038 256.400 294.041 256.400 L 335.043 256.400 336.322 255.081 L 337.600 253.762 337.600 225.159 L 337.600 196.557 336.281 195.278 L 334.962 194.000 293.959 194.000 L 252.957 194.000 251.678 195.319 M148.125 195.922 L 149.200 197.044 149.200 225.200 L 149.200 253.356 148.125 254.478 L 147.050 255.600 106.400 255.600 L 65.750 255.600 64.675 254.478 L 63.600 253.356 63.600 225.200 L 63.600 197.044 64.675 195.922 L 65.750 194.800 106.400 194.800 L 147.050 194.800 148.125 195.922 M241.925 195.984 L 242.800 197.168 242.800 225.200 L 242.800 253.232 241.925 254.416 L 241.050 255.600 200.152 255.600 L 159.254 255.600 158.427 254.438 C 157.610 253.290,157.600 252.943,157.600 225.200 C 157.600 197.457,157.610 197.110,158.427 195.962 L 159.254 194.800 200.152 194.800 L 241.050 194.800 241.925 195.984 M335.725 195.922 L 336.800 197.044 336.800 225.200 L 336.800 253.356 335.725 254.478 L 334.650 255.600 294.000 255.600 L 253.350 255.600 252.275 254.478 L 251.200 253.356 251.200 225.200 L 251.200 197.044 252.275 195.922 L 253.350 194.800 294.000 194.800 L 334.650 194.800 335.725 195.922 M64.078 264.119 L 62.800 265.438 62.800 293.997 L 62.800 322.556 63.875 323.678 L 64.950 324.800 106.400 324.800 L 147.850 324.800 148.925 323.678 L 150.000 322.556 150.000 293.957 L 150.000 265.357 148.681 264.078 L 147.362 262.800 106.359 262.800 L 65.357 262.800 64.078 264.119 M157.900 264.179 L 156.800 265.557 156.813 294.079 L 156.825 322.600 157.793 323.700 L 158.762 324.800 200.106 324.800 L 241.450 324.800 242.525 323.678 L 243.600 322.556 243.588 293.978 L 243.577 265.400 242.394 264.100 L 241.211 262.800 200.106 262.800 L 159.000 262.800 157.900 264.179 M251.678 264.119 L 250.400 265.438 250.400 293.997 L 250.400 322.556 251.475 323.678 L 252.550 324.800 294.000 324.800 L 335.450 324.800 336.525 323.678 L 337.600 322.556 337.600 293.957 L 337.600 265.357 336.281 264.078 L 334.962 262.800 293.959 262.800 L 252.957 262.800 251.678 264.119 M148.125 264.722 L 149.200 265.844 149.200 294.000 L 149.200 322.156 148.125 323.278 L 147.050 324.400 106.400 324.400 L 65.750 324.400 64.675 323.278 L 63.600 322.156 63.600 294.000 L 63.600 265.844 64.675 264.722 L 65.750 263.600 106.400 263.600 L 147.050 263.600 148.125 264.722 M241.925 264.784 L 242.800 265.968 242.800 294.000 L 242.800 322.032 241.925 323.216 L 241.050 324.400 200.152 324.400 L 159.254 324.400 158.427 323.238 C 157.610 322.090,157.600 321.743,157.600 294.000 C 157.600 266.257,157.610 265.910,158.427 264.762 L 159.254 263.600 200.152 263.600 L 241.050 263.600 241.925 264.784 M335.725 264.722 L 336.800 265.844 336.800 294.000 L 336.800 322.156 335.725 323.278 L 334.650 324.400 294.000 324.400 L 253.350 324.400 252.275 323.278 L 251.200 322.156 251.200 294.000 L 251.200 265.844 252.275 264.722 L 253.350 263.600 294.000 263.600 L 334.650 263.600 335.725 264.722 " stroke="none" fill="#302c2c" fill-rule="evenodd"></path></g></svg>