<?xml version="1.0" encoding="UTF-8" standalone="no"?>
<svg
   xmlns:dc="http://purl.org/dc/elements/1.1/"
   xmlns:cc="http://creativecommons.org/ns#"
   xmlns:rdf="http://www.w3.org/1999/02/22-rdf-syntax-ns#"
   xmlns:svg="http://www.w3.org/2000/svg"
   xmlns="http://www.w3.org/2000/svg"
   viewBox="0 0 400 400"
   height="400"
   width="400"
   version="1.1"
   id="svg">
  <metadata
     id="metadata4574">
    <rdf:RDF>
      <cc:Work
         rdf:about="">
        <dc:format>image/svg+xml</dc:format>
        <dc:type
           rdf:resource="http://purl.org/dc/dcmitype/StillImage" />
        <dc:title></dc:title>
      </cc:Work>
    </rdf:RDF>
  </metadata>
  <defs
     id="defs4572" />
  <g
     id="svgg">
    <path
       fill-rule="evenodd"
       fill="#cccccc"
       stroke="none"
       d="M16.800 79.200 C 15.536 80.464,15.536 338.736,16.800 340.000 C 17.579 340.779,18.133 340.800,37.777 340.800 L 57.955 340.800 58.577 339.911 C 59.624 338.417,59.516 172.591,58.468 170.712 C 56.401 167.009,56.400 166.997,56.400 143.793 L 56.400 122.129 57.500 120.667 C 58.105 119.863,59.050 119.069,59.600 118.903 C 60.150 118.736,123.658 118.600,200.729 118.600 L 340.857 118.600 342.429 120.285 L 344.000 121.969 344.000 143.713 C 344.000 167.010,343.990 167.137,341.927 170.634 C 340.899 172.377,340.971 339.758,342.000 340.408 C 343.371 341.275,382.711 340.889,383.600 340.000 C 384.864 338.736,384.864 80.464,383.600 79.200 C 382.335 77.935,18.065 77.935,16.800 79.200 M373.481 89.678 L 374.800 90.957 374.800 209.559 L 374.800 328.162 373.522 329.481 L 372.243 330.800 362.841 330.800 L 353.438 330.800 352.119 329.522 L 350.800 328.243 350.800 221.535 L 350.800 114.827 349.387 113.413 L 347.973 112.000 200.200 112.000 L 52.427 112.000 51.013 113.413 L 49.600 114.827 49.600 221.494 L 49.600 328.162 48.322 329.481 L 47.043 330.800 37.641 330.800 L 28.238 330.800 26.919 329.522 L 25.600 328.243 25.600 209.641 L 25.600 91.038 26.878 89.719 L 28.157 88.400 200.159 88.400 L 372.162 88.400 373.481 89.678 "
       id="path0" />
    <path
       fill-rule="evenodd"
       fill="#f4f4f4"
       stroke="none"
       d="M16.138 79.017 C 15.791 79.921,16.102 79.969,16.900 79.133 C 17.492 78.513,17.506 78.400,16.987 78.400 C 16.651 78.400,16.268 78.678,16.138 79.017 M383.500 79.133 C 384.298 79.969,384.609 79.921,384.262 79.017 C 384.132 78.678,383.749 78.400,383.413 78.400 C 382.894 78.400,382.908 78.513,383.500 79.133 M26.878 89.719 L 25.600 91.038 25.600 209.641 L 25.600 328.243 26.919 329.522 L 28.238 330.800 37.641 330.800 L 47.043 330.800 48.322 329.481 L 49.600 328.162 49.600 221.494 L 49.600 114.827 51.013 113.413 L 52.427 112.000 200.200 112.000 L 347.973 112.000 349.387 113.413 L 350.800 114.827 350.800 221.535 L 350.800 328.243 352.119 329.522 L 353.438 330.800 362.841 330.800 L 372.243 330.800 373.522 329.481 L 374.800 328.162 374.800 209.559 L 374.800 90.957 373.481 89.678 L 372.162 88.400 200.159 88.400 L 28.157 88.400 26.878 89.719 M16.000 339.813 C 16.000 340.149,16.278 340.532,16.617 340.662 C 17.521 341.009,17.569 340.698,16.733 339.900 C 16.113 339.308,16.000 339.294,16.000 339.813 M58.481 340.018 C 58.172 340.513,58.146 340.800,58.409 340.800 C 58.638 340.800,58.932 340.522,59.062 340.183 C 59.422 339.245,59.033 339.134,58.481 340.018 M383.500 340.067 C 382.908 340.687,382.894 340.800,383.413 340.800 C 383.749 340.800,384.132 340.522,384.262 340.183 C 384.609 339.279,384.298 339.231,383.500 340.067 "
       id="path1" />
    <path
       fill-rule="evenodd"
       fill="#3c3c3c"
       stroke="none"
       d="M61.732 118.769 C 60.155 118.896,58.796 119.090,58.712 119.200 C 58.628 119.310,58.074 119.999,57.480 120.731 L 56.400 122.061 56.400 143.780 C 56.400 166.677,56.377 166.346,58.229 170.300 L 58.838 171.600 200.128 171.600 L 341.418 171.600 342.104 170.300 C 344.006 166.695,344.000 166.776,344.000 143.734 L 344.000 121.969 342.429 120.285 L 340.857 118.600 202.729 118.569 C 126.758 118.552,63.309 118.642,61.732 118.769 M148.341 121.857 L 150.800 122.114 150.797 140.757 C 150.794 161.411,150.890 160.630,148.143 162.441 C 146.358 163.618,66.442 163.618,64.657 162.441 C 61.910 160.630,62.006 161.415,62.003 140.723 L 62.000 122.046 63.700 121.893 C 66.692 121.623,145.786 121.590,148.341 121.857 M242.300 121.859 L 244.400 122.111 244.397 140.756 C 244.394 161.249,244.497 160.350,241.928 162.371 C 240.272 163.674,159.877 163.681,158.375 162.378 C 155.904 160.235,156.006 161.165,156.003 140.724 L 156.000 122.048 157.500 121.891 C 160.066 121.623,240.080 121.593,242.300 121.859 M335.941 121.857 L 338.400 122.114 338.397 140.757 C 338.394 161.411,338.490 160.630,335.743 162.441 C 333.958 163.618,254.042 163.618,252.257 162.441 C 249.510 160.630,249.606 161.415,249.603 140.723 L 249.600 122.046 251.300 121.893 C 254.292 121.623,333.386 121.590,335.941 121.857 "
       id="path2" />
    <path
       fill-rule="evenodd"
       fill="#2c2c2c"
       stroke="none"
       d="M63.700 121.893 L 62.000 122.046 62.003 140.723 C 62.006 161.415,61.910 160.630,64.657 162.441 C 66.442 163.618,146.358 163.618,148.143 162.441 C 150.890 160.630,150.794 161.411,150.797 140.757 L 150.800 122.114 148.341 121.857 C 145.786 121.590,66.692 121.623,63.700 121.893 M157.500 121.891 L 156.000 122.048 156.003 140.724 C 156.006 161.165,155.904 160.235,158.375 162.378 C 159.877 163.681,240.272 163.674,241.928 162.371 C 244.497 160.350,244.394 161.249,244.397 140.756 L 244.400 122.111 242.300 121.859 C 240.080 121.593,160.066 121.623,157.500 121.891 M251.300 121.893 L 249.600 122.046 249.603 140.723 C 249.606 161.415,249.510 160.630,252.257 162.441 C 254.042 163.618,333.958 163.618,335.743 162.441 C 338.490 160.630,338.394 161.411,338.397 140.757 L 338.400 122.114 335.941 121.857 C 333.386 121.590,254.292 121.623,251.300 121.893 M129.468 171.900 C 168.225 171.956,231.765 171.956,270.668 171.900 C 309.570 171.844,277.860 171.798,200.200 171.798 C 122.540 171.798,90.710 171.844,129.468 171.900 "
       id="path3" />
    <path
       fill-rule="evenodd"
       fill="#b8e4f8"
       stroke="none"
       d=""
       id="path4" />
    <path
       fill-rule="evenodd"
       fill="#b8e4f8"
       stroke="none"
       d=""
       id="path5" />
    <path
       fill-rule="evenodd"
       fill="#b8e4f8"
       stroke="none"
       d=""
       id="path6" />
    <path
       fill-rule="evenodd"
       fill="#b8e4f8"
       stroke="none"
       d=""
       id="path7" />
    <path
       fill-rule="evenodd"
       fill="#b8e4f8"
       stroke="none"
       d=""
       id="path8" />
  </g>
  <rect
     transform="scale(-1,1)"
     y="287.95795"
     x="-246.52898"
     height="28.037384"
     width="93.457939"
     id="rect4576"
     style="opacity:1;fill:#3c3c3c;fill-opacity:1;stroke:none;stroke-width:0.79724103;stroke-opacity:1" />
  <rect
     style="opacity:1;fill:#3c3c3c;fill-opacity:1;stroke:none;stroke-width:0.79724103;stroke-opacity:1"
     id="rect4578"
     width="93.457939"
     height="28.037384"
     x="-246.52898"
     y="253.95796"
     transform="scale(-1,1)" />
  <path
     transform="matrix(-1.6241814,0,0,-0.4931041,517.75261,382.92679)"
     d="m 241.05637,277.20487 -22.70887,39.33292 -22.70887,39.33292 -22.70887,-39.33292 -22.70887,-39.33292 45.41774,0 z"
     id="path4582"
     style="opacity:1;fill:#3c3c3c;fill-opacity:1;stroke:none;stroke-opacity:1" />
</svg>
