<svg id="svg" version="1.1" width="400" height="400" viewBox="0 0 400 400" xmlns="http://www.w3.org/2000/svg" xmlns:xlink="http://www.w3.org/1999/xlink" ><g id="svgg"><path id="path0" d="M16.800 79.200 C 15.536 80.464,15.536 338.736,16.800 340.000 C 17.579 340.779,18.133 340.800,37.777 340.800 L 57.955 340.800 58.577 339.911 C 59.137 339.112,59.200 329.267,59.200 243.069 L 59.200 147.115 58.138 145.858 C 55.749 143.028,55.618 142.290,55.611 131.600 C 55.605 120.829,55.619 120.759,58.199 118.729 L 59.380 117.800 200.200 117.800 L 341.020 117.800 342.201 118.729 C 344.781 120.759,344.795 120.829,344.789 131.600 C 344.782 142.292,344.652 143.027,342.259 145.861 L 341.195 147.121 341.298 243.575 C 341.388 328.802,341.470 340.073,342.000 340.408 C 343.371 341.275,382.711 340.889,383.600 340.000 C 384.864 338.736,384.864 80.464,383.600 79.200 C 382.335 77.935,18.065 77.935,16.800 79.200 M373.481 89.678 L 374.800 90.957 374.800 209.559 L 374.800 328.162 373.522 329.481 L 372.243 330.800 362.841 330.800 L 353.438 330.800 352.119 329.522 L 350.800 328.243 350.800 221.535 L 350.800 114.827 349.387 113.413 L 347.973 112.000 200.200 112.000 L 52.427 112.000 51.013 113.413 L 49.600 114.827 49.600 221.494 L 49.600 328.162 48.322 329.481 L 47.043 330.800 37.641 330.800 L 28.238 330.800 26.919 329.522 L 25.600 328.243 25.600 209.641 L 25.600 91.038 26.878 89.719 L 28.157 88.400 200.159 88.400 L 372.162 88.400 373.481 89.678 " stroke="none" fill="#cccccc" fill-rule="evenodd"></path><path id="path1" d="M61.714 119.100 C 59.406 119.228,59.140 119.343,58.014 120.710 L 56.800 122.182 56.802 131.391 C 56.804 140.688,57.424 144.784,59.082 146.442 C 59.293 146.653,117.580 146.760,200.366 146.701 L 341.290 146.600 342.424 143.800 C 343.556 141.006,343.558 140.979,343.579 131.567 L 343.600 122.133 342.246 120.567 L 340.892 119.000 202.546 118.981 C 126.456 118.970,63.081 119.024,61.714 119.100 " stroke="none" fill="#313131" fill-rule="evenodd"></path><path id="path2" d="M16.138 79.017 C 15.791 79.921,16.102 79.969,16.900 79.133 C 17.492 78.513,17.506 78.400,16.987 78.400 C 16.651 78.400,16.268 78.678,16.138 79.017 M383.500 79.133 C 384.298 79.969,384.609 79.921,384.262 79.017 C 384.132 78.678,383.749 78.400,383.413 78.400 C 382.894 78.400,382.908 78.513,383.500 79.133 M26.878 89.719 L 25.600 91.038 25.600 209.641 L 25.600 328.243 26.919 329.522 L 28.238 330.800 37.641 330.800 L 47.043 330.800 48.322 329.481 L 49.600 328.162 49.600 221.494 L 49.600 114.827 51.013 113.413 L 52.427 112.000 200.200 112.000 L 347.973 112.000 349.387 113.413 L 350.800 114.827 350.800 221.535 L 350.800 328.243 352.119 329.522 L 353.438 330.800 362.841 330.800 L 372.243 330.800 373.522 329.481 L 374.800 328.162 374.800 209.559 L 374.800 90.957 373.481 89.678 L 372.162 88.400 200.159 88.400 L 28.157 88.400 26.878 89.719 M16.000 339.813 C 16.000 340.149,16.278 340.532,16.617 340.662 C 17.521 341.009,17.569 340.698,16.733 339.900 C 16.113 339.308,16.000 339.294,16.000 339.813 M58.481 340.018 C 58.172 340.513,58.146 340.800,58.409 340.800 C 58.638 340.800,58.932 340.522,59.062 340.183 C 59.422 339.245,59.033 339.134,58.481 340.018 M383.500 340.067 C 382.908 340.687,382.894 340.800,383.413 340.800 C 383.749 340.800,384.132 340.522,384.262 340.183 C 384.609 339.279,384.298 339.231,383.500 340.067 " stroke="none" fill="#f4f4f4" fill-rule="evenodd"></path><path id="path3" d="M61.637 117.901 C 56.106 118.204,55.606 119.341,55.603 131.621 C 55.600 142.298,55.938 144.019,58.478 146.246 C 59.015 146.717,59.204 146.775,58.982 146.400 C 57.178 143.356,56.804 140.771,56.802 131.367 L 56.800 122.133 58.154 120.567 L 59.509 119.000 200.200 119.000 L 340.891 119.000 342.246 120.567 L 343.600 122.133 343.600 131.452 C 343.600 139.984,343.529 140.949,342.759 142.885 C 340.978 147.366,341.050 147.060,341.970 146.227 C 344.470 143.965,344.800 142.257,344.797 131.621 C 344.794 120.829,344.780 120.758,342.201 118.729 L 341.020 117.800 202.610 117.781 C 126.484 117.770,63.047 117.824,61.637 117.901 " stroke="none" fill="#c07ce4" fill-rule="evenodd"></path><path id="path4" d="" stroke="none" fill="#c0e4f8" fill-rule="evenodd"></path><path id="path5" d="" stroke="none" fill="#c0e4f8" fill-rule="evenodd"></path><path id="path6" d="" stroke="none" fill="#c0e4f8" fill-rule="evenodd"></path><path id="path7" d="" stroke="none" fill="#c0e4f8" fill-rule="evenodd"></path><path id="path8" d="" stroke="none" fill="#c0e4f8" fill-rule="evenodd"></path></g></svg>