<svg id="svg" version="1.1" width="400" height="400" viewBox="0 0 400 400" xmlns="http://www.w3.org/2000/svg" xmlns:xlink="http://www.w3.org/1999/xlink" ><g id="svgg"><path id="path0" d="M16.800 79.200 C 15.536 80.464,15.536 338.736,16.800 340.000 C 17.579 340.779,18.133 340.800,37.777 340.800 L 57.955 340.800 58.577 339.911 C 59.562 338.506,59.522 259.564,58.536 258.749 C 58.171 258.447,57.453 257.300,56.940 256.200 L 56.008 254.200 56.004 187.951 L 56.000 121.703 57.554 119.951 L 59.109 118.200 200.138 118.200 L 341.167 118.200 342.783 119.934 L 344.400 121.667 344.391 187.934 C 344.381 261.376,344.562 256.099,341.974 258.510 C 340.902 259.509,340.927 339.730,342.000 340.409 C 343.371 341.275,382.711 340.889,383.600 340.000 C 384.864 338.736,384.864 80.464,383.600 79.200 C 382.335 77.935,18.065 77.935,16.800 79.200 M373.481 89.678 L 374.800 90.957 374.800 209.559 L 374.800 328.162 373.522 329.481 L 372.243 330.800 362.841 330.800 L 353.438 330.800 352.119 329.522 L 350.800 328.243 350.800 221.535 L 350.800 114.827 349.387 113.413 L 347.973 112.000 200.200 112.000 L 52.427 112.000 51.013 113.413 L 49.600 114.827 49.600 221.494 L 49.600 328.162 48.322 329.481 L 47.043 330.800 37.641 330.800 L 28.238 330.800 26.919 329.522 L 25.600 328.243 25.600 209.641 L 25.600 91.038 26.878 89.719 L 28.157 88.400 200.159 88.400 L 372.162 88.400 373.481 89.678 " stroke="none" fill="#cccccc" fill-rule="evenodd"></path><path id="path1" d="M62.400 119.995 C 58.962 120.391,58.464 120.645,58.194 122.139 C 57.676 125.008,58.182 256.969,58.714 257.901 L 59.229 258.801 200.284 258.701 L 341.340 258.600 341.853 256.400 C 342.784 252.407,342.620 122.360,341.682 121.202 C 340.441 119.669,336.200 119.550,290.835 119.770 C 267.386 119.883,246.760 119.937,245.000 119.888 C 240.807 119.773,159.095 119.773,155.200 119.889 C 153.550 119.938,132.580 119.915,108.600 119.837 C 84.620 119.759,63.830 119.830,62.400 119.995 M148.700 121.859 L 150.800 122.111 150.800 150.642 L 150.800 179.173 149.387 180.587 L 147.973 182.000 106.400 182.000 L 64.827 182.000 63.413 180.587 L 62.000 179.173 62.000 150.611 L 62.000 122.048 63.500 121.891 C 66.066 121.623,146.480 121.593,148.700 121.859 M242.300 121.859 L 244.400 122.111 244.400 150.642 L 244.400 179.173 242.987 180.587 L 241.573 182.000 200.115 182.000 L 158.657 182.000 157.328 180.550 L 156.000 179.099 156.000 150.575 L 156.000 122.051 157.300 121.889 C 159.485 121.618,240.055 121.590,242.300 121.859 M336.300 121.859 L 338.400 122.111 338.400 150.642 L 338.400 179.173 336.987 180.587 L 335.573 182.000 294.000 182.000 L 252.427 182.000 251.013 180.587 L 249.600 179.173 249.600 150.611 L 249.600 122.048 251.100 121.891 C 253.666 121.623,334.080 121.593,336.300 121.859 M149.387 188.613 L 150.800 190.027 150.800 219.000 L 150.800 247.973 149.387 249.387 L 147.973 250.800 106.400 250.800 L 64.827 250.800 63.413 249.387 L 62.000 247.973 62.000 219.000 L 62.000 190.027 63.413 188.613 L 64.827 187.200 106.400 187.200 L 147.973 187.200 149.387 188.613 M242.987 188.613 L 244.400 190.027 244.400 219.000 L 244.400 247.973 242.987 249.387 L 241.573 250.800 200.115 250.800 L 158.657 250.800 157.328 249.350 L 156.000 247.899 156.000 219.012 L 156.000 190.125 157.300 188.665 L 158.600 187.204 200.087 187.202 L 241.573 187.200 242.987 188.613 M336.987 188.613 L 338.400 190.027 338.400 219.000 L 338.400 247.973 336.987 249.387 L 335.573 250.800 294.000 250.800 L 252.427 250.800 251.013 249.387 L 249.600 247.973 249.600 219.000 L 249.600 190.027 251.013 188.613 L 252.427 187.200 294.000 187.200 L 335.573 187.200 336.987 188.613 " stroke="none" fill="#3c3c3c" fill-rule="evenodd"></path><path id="path2" d="M16.138 79.017 C 15.791 79.921,16.102 79.969,16.900 79.133 C 17.492 78.513,17.506 78.400,16.987 78.400 C 16.651 78.400,16.268 78.678,16.138 79.017 M383.500 79.133 C 384.298 79.969,384.609 79.921,384.262 79.017 C 384.132 78.678,383.749 78.400,383.413 78.400 C 382.894 78.400,382.908 78.513,383.500 79.133 M26.878 89.719 L 25.600 91.038 25.600 209.641 L 25.600 328.243 26.919 329.522 L 28.238 330.800 37.641 330.800 L 47.043 330.800 48.322 329.481 L 49.600 328.162 49.600 221.494 L 49.600 114.827 51.013 113.413 L 52.427 112.000 200.200 112.000 L 347.973 112.000 349.387 113.413 L 350.800 114.827 350.800 221.535 L 350.800 328.243 352.119 329.522 L 353.438 330.800 362.841 330.800 L 372.243 330.800 373.522 329.481 L 374.800 328.162 374.800 209.559 L 374.800 90.957 373.481 89.678 L 372.162 88.400 200.159 88.400 L 28.157 88.400 26.878 89.719 M16.000 339.813 C 16.000 340.149,16.278 340.532,16.617 340.662 C 17.521 341.009,17.569 340.698,16.733 339.900 C 16.113 339.308,16.000 339.294,16.000 339.813 M58.481 340.018 C 58.172 340.513,58.146 340.800,58.409 340.800 C 58.638 340.800,58.932 340.522,59.062 340.183 C 59.422 339.245,59.033 339.134,58.481 340.018 M383.500 340.067 C 382.908 340.687,382.894 340.800,383.413 340.800 C 383.749 340.800,384.132 340.522,384.262 340.183 C 384.609 339.279,384.298 339.231,383.500 340.067 " stroke="none" fill="#f4f4f4" fill-rule="evenodd"></path><path id="path3" d="M63.600 150.078 L 63.600 178.156 64.675 179.278 L 65.750 180.400 106.400 180.400 L 147.050 180.400 148.125 179.278 L 149.200 178.156 149.200 150.078 L 149.200 122.000 106.400 122.000 L 63.600 122.000 63.600 150.078 M157.600 150.038 C 157.600 177.743,157.610 178.090,158.427 179.238 L 159.254 180.400 200.152 180.400 L 241.050 180.400 241.925 179.216 L 242.800 178.032 242.800 150.016 L 242.800 122.000 200.200 122.000 L 157.600 122.000 157.600 150.038 M251.200 150.078 L 251.200 178.156 252.275 179.278 L 253.350 180.400 294.000 180.400 L 334.650 180.400 335.725 179.278 L 336.800 178.156 336.800 150.078 L 336.800 122.000 294.000 122.000 L 251.200 122.000 251.200 150.078 M64.675 189.922 L 63.600 191.044 63.600 219.000 L 63.600 246.956 64.675 248.078 L 65.750 249.200 106.400 249.200 L 147.050 249.200 148.125 248.078 L 149.200 246.956 149.200 219.000 L 149.200 191.044 148.125 189.922 L 147.050 188.800 106.400 188.800 L 65.750 188.800 64.675 189.922 M158.427 189.962 C 157.127 191.788,157.127 246.212,158.427 248.038 L 159.254 249.200 200.152 249.200 L 241.050 249.200 241.925 248.016 L 242.800 246.832 242.800 219.000 L 242.800 191.168 241.925 189.984 L 241.050 188.800 200.152 188.800 L 159.254 188.800 158.427 189.962 M252.275 189.922 L 251.200 191.044 251.200 219.000 L 251.200 246.956 252.275 248.078 L 253.350 249.200 294.000 249.200 L 334.650 249.200 335.725 248.078 L 336.800 246.956 336.800 219.000 L 336.800 191.044 335.725 189.922 L 334.650 188.800 294.000 188.800 L 253.350 188.800 252.275 189.922 M129.468 259.100 C 168.225 259.156,231.765 259.156,270.668 259.100 C 309.570 259.044,277.860 258.998,200.200 258.998 C 122.540 258.998,90.710 259.044,129.468 259.100 " stroke="none" fill="#2c2c2c" fill-rule="evenodd"></path><path id="path4" d="M61.114 118.298 C 59.003 118.428,58.721 118.565,57.414 120.092 L 56.000 121.744 56.004 187.972 L 56.008 254.200 56.940 256.200 C 57.876 258.206,59.745 260.362,59.021 258.600 C 58.840 258.160,58.547 256.990,58.370 256.000 C 58.003 253.953,57.884 123.073,58.248 121.717 C 58.787 119.707,62.937 119.625,153.000 119.842 C 155.640 119.848,176.700 119.841,199.800 119.827 C 222.900 119.812,243.240 119.840,245.000 119.888 C 246.760 119.937,267.386 119.883,290.835 119.770 C 336.200 119.550,340.441 119.669,341.682 121.202 C 342.482 122.190,342.826 252.519,342.037 255.600 C 341.085 259.313,341.084 259.339,341.965 258.519 C 344.564 256.097,344.381 261.401,344.391 187.934 L 344.400 121.667 342.784 119.934 L 341.167 118.200 202.284 118.179 C 125.898 118.167,62.372 118.221,61.114 118.298 " stroke="none" fill="#603094" fill-rule="evenodd"></path><path id="path5" d="" stroke="none" fill="#64302c" fill-rule="evenodd"></path><path id="path6" d="M85.500 121.900 C 96.995 121.959,115.805 121.959,127.300 121.900 C 138.795 121.841,129.390 121.793,106.400 121.793 C 83.410 121.793,74.005 121.841,85.500 121.900 M179.100 121.900 C 190.595 121.959,209.405 121.959,220.900 121.900 C 232.395 121.841,222.990 121.793,200.000 121.793 C 177.010 121.793,167.605 121.841,179.100 121.900 M273.100 121.900 C 284.595 121.959,303.405 121.959,314.900 121.900 C 326.395 121.841,316.990 121.793,294.000 121.793 C 271.010 121.793,261.605 121.841,273.100 121.900 M62.000 150.587 L 62.000 179.173 63.413 180.587 L 64.827 182.000 106.400 182.000 L 147.973 182.000 149.387 180.587 L 150.800 179.173 150.800 150.587 C 150.800 131.796,150.663 122.000,150.400 122.000 C 150.137 122.000,150.000 131.707,150.000 150.322 L 150.000 178.643 148.681 179.922 L 147.362 181.200 106.359 181.200 L 65.357 181.200 64.078 179.881 L 62.800 178.562 62.800 150.281 C 62.800 131.694,62.663 122.000,62.400 122.000 C 62.137 122.000,62.000 131.796,62.000 150.587 M156.000 150.550 L 156.000 179.099 157.328 180.550 L 158.657 182.000 200.115 182.000 L 241.573 182.000 242.987 180.587 L 244.400 179.173 244.400 150.587 C 244.400 131.796,244.263 122.000,244.000 122.000 C 243.737 122.000,243.596 131.708,243.588 150.300 L 243.577 178.600 242.394 179.900 L 241.211 181.200 200.106 181.200 L 159.000 181.200 157.900 179.821 L 156.800 178.443 156.800 150.221 C 156.800 131.674,156.663 122.000,156.400 122.000 C 156.137 122.000,156.000 131.783,156.000 150.550 M249.600 150.587 L 249.600 179.173 251.013 180.587 L 252.427 182.000 294.000 182.000 L 335.573 182.000 336.987 180.587 L 338.400 179.173 338.400 150.587 C 338.400 131.796,338.263 122.000,338.000 122.000 C 337.737 122.000,337.600 131.707,337.600 150.322 L 337.600 178.643 336.281 179.922 L 334.962 181.200 293.959 181.200 L 252.957 181.200 251.678 179.881 L 250.400 178.562 250.400 150.281 C 250.400 131.694,250.263 122.000,250.000 122.000 C 249.737 122.000,249.600 131.796,249.600 150.587 M63.413 188.613 L 62.000 190.027 62.000 219.000 L 62.000 247.973 63.413 249.387 L 64.827 250.800 106.400 250.800 L 147.973 250.800 149.387 249.387 L 150.800 247.973 150.800 219.000 L 150.800 190.027 149.387 188.613 L 147.973 187.200 106.400 187.200 L 64.827 187.200 63.413 188.613 M157.300 188.665 L 156.000 190.125 156.000 219.012 L 156.000 247.899 157.328 249.350 L 158.657 250.800 200.115 250.800 L 241.573 250.800 242.987 249.387 L 244.400 247.973 244.400 219.000 L 244.400 190.027 242.987 188.613 L 241.573 187.200 200.087 187.202 L 158.600 187.204 157.300 188.665 M251.013 188.613 L 249.600 190.027 249.600 219.000 L 249.600 247.973 251.013 249.387 L 252.427 250.800 294.000 250.800 L 335.573 250.800 336.987 249.387 L 338.400 247.973 338.400 219.000 L 338.400 190.027 336.987 188.613 L 335.573 187.200 294.000 187.200 L 252.427 187.200 251.013 188.613 M148.681 189.278 L 150.000 190.557 150.000 218.959 L 150.000 247.362 148.722 248.681 L 147.443 250.000 106.441 250.000 L 65.438 250.000 64.119 248.722 L 62.800 247.443 62.800 219.041 L 62.800 190.638 64.078 189.319 L 65.357 188.000 106.359 188.000 L 147.362 188.000 148.681 189.278 M242.394 189.300 L 243.577 190.600 243.577 219.000 L 243.577 247.400 242.394 248.700 L 241.211 250.000 200.106 250.000 L 159.000 250.000 157.900 248.621 L 156.800 247.243 156.800 219.000 L 156.800 190.757 157.900 189.379 L 159.000 188.000 200.106 188.000 L 241.211 188.000 242.394 189.300 M336.281 189.278 L 337.600 190.557 337.600 218.959 L 337.600 247.362 336.322 248.681 L 335.043 250.000 294.041 250.000 L 253.038 250.000 251.719 248.722 L 250.400 247.443 250.400 219.041 L 250.400 190.638 251.678 189.319 L 252.957 188.000 293.959 188.000 L 334.962 188.000 336.281 189.278 " stroke="none" fill="#2c342c" fill-rule="evenodd"></path><path id="path7" d="M62.800 150.322 L 62.800 178.643 64.119 179.922 L 65.438 181.200 106.441 181.200 L 147.443 181.200 148.722 179.881 L 150.000 178.562 150.000 150.281 C 150.000 131.694,149.863 122.000,149.600 122.000 C 149.337 122.000,149.200 131.626,149.200 150.078 L 149.200 178.156 148.125 179.278 L 147.050 180.400 106.400 180.400 L 65.750 180.400 64.675 179.278 L 63.600 178.156 63.600 150.078 C 63.600 131.626,63.463 122.000,63.200 122.000 C 62.937 122.000,62.800 131.707,62.800 150.322 M156.800 150.221 L 156.800 178.443 157.900 179.821 L 159.000 181.200 200.106 181.200 L 241.211 181.200 242.394 179.900 L 243.577 178.600 243.588 150.300 C 243.596 131.692,243.463 122.000,243.200 122.000 C 242.937 122.000,242.800 131.605,242.800 150.016 L 242.800 178.032 241.925 179.216 L 241.050 180.400 200.152 180.400 L 159.254 180.400 158.427 179.238 C 157.610 178.090,157.600 177.743,157.600 150.038 C 157.600 131.613,157.463 122.000,157.200 122.000 C 156.937 122.000,156.800 131.674,156.800 150.221 M250.400 150.322 L 250.400 178.643 251.719 179.922 L 253.038 181.200 294.041 181.200 L 335.043 181.200 336.322 179.881 L 337.600 178.562 337.600 150.281 C 337.600 131.694,337.463 122.000,337.200 122.000 C 336.937 122.000,336.800 131.626,336.800 150.078 L 336.800 178.156 335.725 179.278 L 334.650 180.400 294.000 180.400 L 253.350 180.400 252.275 179.278 L 251.200 178.156 251.200 150.078 C 251.200 131.626,251.063 122.000,250.800 122.000 C 250.537 122.000,250.400 131.707,250.400 150.322 M64.078 189.319 L 62.800 190.638 62.800 219.041 L 62.800 247.443 64.119 248.722 L 65.438 250.000 106.441 250.000 L 147.443 250.000 148.722 248.681 L 150.000 247.362 150.000 218.959 L 150.000 190.557 148.681 189.278 L 147.362 188.000 106.359 188.000 L 65.357 188.000 64.078 189.319 M157.900 189.379 L 156.800 190.757 156.800 219.000 L 156.800 247.243 157.900 248.621 L 159.000 250.000 200.106 250.000 L 241.211 250.000 242.394 248.700 L 243.577 247.400 243.577 219.000 L 243.577 190.600 242.394 189.300 L 241.211 188.000 200.106 188.000 L 159.000 188.000 157.900 189.379 M251.678 189.319 L 250.400 190.638 250.400 219.041 L 250.400 247.443 251.719 248.722 L 253.038 250.000 294.041 250.000 L 335.043 250.000 336.322 248.681 L 337.600 247.362 337.600 218.959 L 337.600 190.557 336.281 189.278 L 334.962 188.000 293.959 188.000 L 252.957 188.000 251.678 189.319 M148.125 189.922 L 149.200 191.044 149.200 219.000 L 149.200 246.956 148.125 248.078 L 147.050 249.200 106.400 249.200 L 65.750 249.200 64.675 248.078 L 63.600 246.956 63.600 219.000 L 63.600 191.044 64.675 189.922 L 65.750 188.800 106.400 188.800 L 147.050 188.800 148.125 189.922 M241.925 189.984 L 242.800 191.168 242.800 219.000 L 242.800 246.832 241.925 248.016 L 241.050 249.200 200.152 249.200 L 159.254 249.200 158.427 248.038 C 157.610 246.890,157.600 246.541,157.600 219.000 C 157.600 191.459,157.610 191.110,158.427 189.962 L 159.254 188.800 200.152 188.800 L 241.050 188.800 241.925 189.984 M335.725 189.922 L 336.800 191.044 336.800 219.000 L 336.800 246.956 335.725 248.078 L 334.650 249.200 294.000 249.200 L 253.350 249.200 252.275 248.078 L 251.200 246.956 251.200 219.000 L 251.200 191.044 252.275 189.922 L 253.350 188.800 294.000 188.800 L 334.650 188.800 335.725 189.922 " stroke="none" fill="#302c2c" fill-rule="evenodd"></path><path id="path8" d="M62.800 150.322 L 62.800 178.643 64.119 179.922 L 65.438 181.200 106.441 181.200 L 147.443 181.200 148.722 179.881 L 150.000 178.562 150.000 150.281 C 150.000 131.694,149.863 122.000,149.600 122.000 C 149.337 122.000,149.200 131.626,149.200 150.078 L 149.200 178.156 148.125 179.278 L 147.050 180.400 106.400 180.400 L 65.750 180.400 64.675 179.278 L 63.600 178.156 63.600 150.078 C 63.600 131.626,63.463 122.000,63.200 122.000 C 62.937 122.000,62.800 131.707,62.800 150.322 M156.800 150.221 L 156.800 178.443 157.900 179.821 L 159.000 181.200 200.106 181.200 L 241.211 181.200 242.394 179.900 L 243.577 178.600 243.588 150.300 C 243.596 131.692,243.463 122.000,243.200 122.000 C 242.937 122.000,242.800 131.605,242.800 150.016 L 242.800 178.032 241.925 179.216 L 241.050 180.400 200.152 180.400 L 159.254 180.400 158.427 179.238 C 157.610 178.090,157.600 177.743,157.600 150.038 C 157.600 131.613,157.463 122.000,157.200 122.000 C 156.937 122.000,156.800 131.674,156.800 150.221 M250.400 150.322 L 250.400 178.643 251.719 179.922 L 253.038 181.200 294.041 181.200 L 335.043 181.200 336.322 179.881 L 337.600 178.562 337.600 150.281 C 337.600 131.694,337.463 122.000,337.200 122.000 C 336.937 122.000,336.800 131.626,336.800 150.078 L 336.800 178.156 335.725 179.278 L 334.650 180.400 294.000 180.400 L 253.350 180.400 252.275 179.278 L 251.200 178.156 251.200 150.078 C 251.200 131.626,251.063 122.000,250.800 122.000 C 250.537 122.000,250.400 131.707,250.400 150.322 M64.078 189.319 L 62.800 190.638 62.800 219.041 L 62.800 247.443 64.119 248.722 L 65.438 250.000 106.441 250.000 L 147.443 250.000 148.722 248.681 L 150.000 247.362 150.000 218.959 L 150.000 190.557 148.681 189.278 L 147.362 188.000 106.359 188.000 L 65.357 188.000 64.078 189.319 M157.900 189.379 L 156.800 190.757 156.800 219.000 L 156.800 247.243 157.900 248.621 L 159.000 250.000 200.106 250.000 L 241.211 250.000 242.394 248.700 L 243.577 247.400 243.577 219.000 L 243.577 190.600 242.394 189.300 L 241.211 188.000 200.106 188.000 L 159.000 188.000 157.900 189.379 M251.678 189.319 L 250.400 190.638 250.400 219.041 L 250.400 247.443 251.719 248.722 L 253.038 250.000 294.041 250.000 L 335.043 250.000 336.322 248.681 L 337.600 247.362 337.600 218.959 L 337.600 190.557 336.281 189.278 L 334.962 188.000 293.959 188.000 L 252.957 188.000 251.678 189.319 M148.125 189.922 L 149.200 191.044 149.200 219.000 L 149.200 246.956 148.125 248.078 L 147.050 249.200 106.400 249.200 L 65.750 249.200 64.675 248.078 L 63.600 246.956 63.600 219.000 L 63.600 191.044 64.675 189.922 L 65.750 188.800 106.400 188.800 L 147.050 188.800 148.125 189.922 M241.925 189.984 L 242.800 191.168 242.800 219.000 L 242.800 246.832 241.925 248.016 L 241.050 249.200 200.152 249.200 L 159.254 249.200 158.427 248.038 C 157.610 246.890,157.600 246.541,157.600 219.000 C 157.600 191.459,157.610 191.110,158.427 189.962 L 159.254 188.800 200.152 188.800 L 241.050 188.800 241.925 189.984 M335.725 189.922 L 336.800 191.044 336.800 219.000 L 336.800 246.956 335.725 248.078 L 334.650 249.200 294.000 249.200 L 253.350 249.200 252.275 248.078 L 251.200 246.956 251.200 219.000 L 251.200 191.044 252.275 189.922 L 253.350 188.800 294.000 188.800 L 334.650 188.800 335.725 189.922 " stroke="none" fill="#302c2c" fill-rule="evenodd"></path></g></svg>